<svg width="389" height="362" viewBox="0 0 389 362" fill="none" xmlns="http://www.w3.org/2000/svg">
<path d="M165.452 333.58C250.306 347.067 330.027 289.212 343.514 204.358C357 119.504 299.146 39.7836 214.292 26.2968C129.438 12.8101 49.7172 70.6646 36.2305 155.519C22.7438 240.372 80.5983 320.093 165.452 333.58Z" stroke="#4466F5" stroke-width="1.1903" stroke-miterlimit="10"/>
<path d="M136.507 279.125L71.4897 272.39C66.2138 271.858 62.3734 267.112 62.9056 261.836L76.919 126.451C77.4513 121.175 82.1969 117.335 87.4729 117.867L152.49 124.602C157.766 125.134 161.606 129.88 161.074 135.156L147.061 270.541C146.529 275.817 141.783 279.657 136.507 279.125Z" fill="#FFFFFC"/>
<path d="M160.16 144.011L75.9785 135.32L63.8466 252.829L148.029 261.52L160.16 144.011Z" fill="#D0E2FF" fill-opacity="0.3"/>
<path d="M113.136 268.137L96.7104 266.445C95.6528 266.353 94.8124 265.377 94.9158 264.245C95.0073 263.188 95.9833 262.347 97.1155 262.451L113.541 264.142C114.598 264.234 115.439 265.21 115.335 266.342C115.157 267.462 114.193 268.228 113.136 268.137Z" stroke="#292E2E" stroke-width="0.9653" stroke-miterlimit="10" stroke-linecap="round" stroke-linejoin="round"/>
<path d="M106.001 128.011L132.294 130.735" stroke="#292E2E" stroke-width="0.9653" stroke-miterlimit="10" stroke-linecap="round" stroke-linejoin="round"/>
<path d="M148.038 261.507L63.8081 252.791" stroke="#292E2E" stroke-width="0.9653" stroke-miterlimit="10" stroke-linecap="round" stroke-linejoin="round"/>
<path d="M160.15 144.004L75.9678 135.312L75.1445 143.287L159.326 151.978L160.15 144.004Z" fill="#FFFFFC"/>
<path d="M136.507 279.125L71.4897 272.39C66.2138 271.858 62.3734 267.112 62.9056 261.836L76.919 126.451C77.4513 121.175 82.1969 117.335 87.4729 117.867L152.49 124.602C157.766 125.134 161.606 129.88 161.074 135.156L147.061 270.541C146.529 275.817 141.783 279.657 136.507 279.125Z" stroke="#292E2E" stroke-width="0.9653" stroke-miterlimit="10" stroke-linecap="round" stroke-linejoin="round"/>
<path d="M160.134 143.966L75.979 135.261" stroke="#292E2E" stroke-width="0.9653" stroke-miterlimit="10" stroke-linecap="round" stroke-linejoin="round"/>
<path d="M159.335 151.88L75.1683 143.25" stroke="#292E2E" stroke-width="0.9653" stroke-miterlimit="10" stroke-linecap="round" stroke-linejoin="round"/>
<path d="M84.0846 140.15C84.0168 141.058 83.2258 141.698 82.3177 141.63C81.4095 141.562 80.7694 140.771 80.8372 139.863C80.905 138.955 81.6959 138.315 82.6041 138.383C83.5123 138.45 84.1523 139.241 84.0846 140.15Z" stroke="#292E2E" stroke-width="0.9653" stroke-miterlimit="10" stroke-linecap="round" stroke-linejoin="round"/>
<path d="M89.9576 140.777C89.8898 141.685 89.0989 142.325 88.1907 142.257C87.2825 142.189 86.6425 141.398 86.7102 140.49C86.778 139.582 87.5689 138.942 88.4771 139.01C89.3853 139.077 90.0254 139.868 89.9576 140.777Z" stroke="#292E2E" stroke-width="0.9653" stroke-miterlimit="10" stroke-linecap="round" stroke-linejoin="round"/>
<path d="M95.8433 141.329C95.7756 142.237 94.9846 142.877 94.0765 142.81C93.1683 142.742 92.5282 141.951 92.596 141.043C92.6637 140.135 93.4547 139.495 94.3629 139.562C95.271 139.63 95.9111 140.421 95.8433 141.329Z" stroke="#292E2E" stroke-width="0.9653" stroke-miterlimit="10" stroke-linecap="round" stroke-linejoin="round"/>
<path d="M136.282 249.223L75.9191 243.075C74.264 242.889 73.0467 241.393 73.2332 239.738L76.5929 207.037C76.7793 205.382 78.2747 204.165 79.9298 204.351L140.292 210.499C141.947 210.686 143.165 212.181 142.978 213.836L139.619 246.537C139.432 248.192 137.937 249.41 136.282 249.223Z" fill="#FFFFFC"/>
<path d="M98.3196 217.787L92.8271 217.225L90.8928 236.11L96.3853 236.672L98.3196 217.787Z" fill="#E110D1"/>
<path d="M105.905 226.951L100.412 226.389L99.3255 236.997L104.818 237.56L105.905 226.951Z" fill="#6FBCE6"/>
<path d="M114.939 221.502L109.446 220.939L107.72 237.793L113.212 238.356L114.939 221.502Z" fill="#E110D1"/>
<path d="M122.909 227.129L117.417 226.566L116.176 238.68L121.669 239.242L122.909 227.129Z" fill="#6FBCE6"/>
<path d="M83.8807 235.381L128.64 239.968" stroke="#292E2E" stroke-width="0.9653" stroke-miterlimit="10" stroke-linecap="round" stroke-linejoin="round"/>
<path d="M140.623 206.494L118.249 204.163C116.594 203.977 115.377 202.481 115.564 200.826L118.376 173.015C118.562 171.36 120.057 170.143 121.713 170.33L144.086 172.66C145.741 172.847 146.958 174.342 146.772 175.997L143.96 203.808C143.773 205.463 142.278 206.68 140.623 206.494Z" fill="#FFFFFC"/>
<path d="M122.008 181.481L140.847 183.403" stroke="#292E2E" stroke-width="0.9653" stroke-miterlimit="10" stroke-linecap="round" stroke-linejoin="round"/>
<path d="M121.431 187.516L140.271 189.439" stroke="#292E2E" stroke-width="0.9653" stroke-miterlimit="10" stroke-linecap="round" stroke-linejoin="round"/>
<path d="M120.78 193.538L127.338 194.197" stroke="#292E2E" stroke-width="0.9653" stroke-miterlimit="10" stroke-linecap="round" stroke-linejoin="round"/>
<path d="M107.921 203.133L80.3465 200.282C78.6914 200.096 77.4741 198.6 77.6606 196.945L80.4726 169.135C80.6591 167.479 82.1545 166.262 83.8096 166.449L111.384 169.3C113.039 169.486 114.257 170.982 114.07 172.637L111.258 200.447C111.072 202.102 109.576 203.32 107.921 203.133Z" fill="#60D669"/>
<path d="M106.547 188.788C108.695 183.036 105.773 176.632 100.021 174.484C94.2689 172.336 87.8647 175.258 85.717 181.011C83.5692 186.763 86.4912 193.167 92.2434 195.315C97.9955 197.462 104.4 194.54 106.547 188.788Z" fill="#FFFFFC"/>
<mask id="mask0_1159_1105" style="mask-type:luminance" maskUnits="userSpaceOnUse" x="85" y="173" width="23" height="24">
<path d="M106.547 188.788C108.695 183.036 105.773 176.632 100.021 174.484C94.2689 172.336 87.8647 175.258 85.717 181.011C83.5692 186.763 86.4912 193.167 92.2434 195.315C97.9955 197.462 104.4 194.54 106.547 188.788Z" fill="white"/>
</mask>
<g mask="url(#mask0_1159_1105)">
<path d="M105.181 199.174C104.577 204.898 99.4618 209.139 93.663 208.524C87.939 207.92 83.6978 202.805 84.3132 197.006C84.9166 191.282 90.0323 187.041 95.8311 187.656C101.63 188.271 105.796 193.375 105.181 199.174Z" fill="#5C9DFF" fill-opacity="0.3"/>
</g>
<path d="M99.7604 182.691C99.5383 184.57 97.8699 185.913 96.0654 185.703C94.1862 185.481 92.8433 183.813 93.0535 182.008C93.2756 180.129 94.944 178.786 96.7485 178.996C98.5649 179.132 99.9078 180.8 99.7604 182.691Z" fill="#5C9DFF" fill-opacity="0.3"/>
<path d="M144.594 167.533L84.2318 161.385C82.5767 161.198 81.3593 159.703 81.5458 158.048L82.0899 152.697C82.2764 151.042 83.7717 149.825 85.4268 150.011L145.789 156.159C147.444 156.346 148.662 157.841 148.475 159.496L147.931 164.847C147.745 166.502 146.249 167.719 144.594 167.533Z" fill="#FFFFFC"/>
<path d="M88.3308 155.833L141.613 161.239" stroke="#292E2E" stroke-width="0.9653" stroke-miterlimit="10" stroke-linecap="round" stroke-linejoin="round"/>
<path d="M126.899 46.6368L83.8457 42.3976C81.3572 42.1553 79.1574 43.9498 78.9032 46.5131L76.9642 66.4218C76.7218 68.9104 78.5164 71.1101 81.0796 71.3643L97.9769 72.9779L101.147 79.5315C101.551 80.3615 102.683 80.4649 103.262 79.7145L107.322 73.9271L124.132 75.6035C126.621 75.8458 128.821 74.0513 129.075 71.488L131.014 51.5793C131.256 49.0907 129.387 46.8792 126.899 46.6368Z" fill="#E110D1"/>
<path d="M126.899 46.6368L83.8457 42.3976C81.3572 42.1553 79.1574 43.9498 78.9032 46.5131L76.9642 66.4218C76.7218 68.9104 78.5164 71.1101 81.0796 71.3643L97.9769 72.9779L101.147 79.5315C101.551 80.3615 102.683 80.4649 103.262 79.7145L107.322 73.9271L124.132 75.6035C126.621 75.8458 128.821 74.0513 129.075 71.488L131.014 51.5793C131.256 49.0907 129.387 46.8792 126.899 46.6368Z" stroke="#292E2E" stroke-width="0.7442" stroke-miterlimit="10" stroke-linecap="round" stroke-linejoin="round"/>
<path d="M103.709 54.7444C102.491 53.249 100.301 53.0541 98.869 54.358L97.893 55.1984L97.0526 54.2225C95.8353 52.7272 93.6455 52.5323 92.2248 53.7615C90.7295 54.9788 90.5346 57.1686 91.7638 58.5893L94.7876 62.2096C95.2273 62.8156 95.9387 63.1583 96.599 63.3399C97.6328 63.5808 98.8126 63.3854 99.7019 62.6078L103.322 59.584C104.743 58.3548 104.926 56.2397 103.709 54.7444Z" fill="#FFFFFC"/>
<path d="M113.489 65.4877L110.552 65.1741L111.081 59.4381C111.113 58.754 111.22 58.0818 111.303 57.559C111.118 57.7593 110.858 57.9477 110.586 58.2109L109.3 59.0785L107.93 57.0994L111.951 54.4456L114.589 54.7118L113.489 65.4877Z" fill="white"/>
<path d="M178.986 78.3505C179.149 76.8448 178.132 75.5344 176.626 75.3717L153.978 72.844C152.472 72.6813 151.162 73.6983 150.999 75.204L150.626 78.5142L149.539 87.7607C149.456 88.2835 150.093 88.6145 150.526 88.3004L153.678 85.8147L175.206 88.1643C176.711 88.3271 178.022 87.3101 178.185 85.8044L178.986 78.3505Z" fill="#FFFFFC"/>
<path d="M178.986 78.3505C179.149 76.8448 178.132 75.5344 176.626 75.3717L153.978 72.844C152.472 72.6813 151.162 73.6983 150.999 75.204L150.626 78.5142L149.539 87.7607C149.456 88.2835 150.093 88.6145 150.526 88.3004L153.678 85.8147L175.206 88.1643C176.711 88.3271 178.022 87.3101 178.185 85.8044L178.986 78.3505Z" stroke="#292E2E" stroke-width="0.7442" stroke-miterlimit="10" stroke-linecap="round" stroke-linejoin="round"/>
<path d="M159.55 79.7035C159.494 80.537 158.703 81.1771 157.882 81.0465C157.048 80.9906 156.408 80.1996 156.539 79.378C156.594 78.5445 157.385 77.9045 158.207 78.0351C159.029 78.1656 159.606 78.87 159.55 79.7035Z" fill="#292E2E"/>
<path d="M166.095 80.4368C166.039 81.2703 165.248 81.9104 164.427 81.7798C163.593 81.7239 162.953 80.9329 163.084 80.1113C163.214 79.2897 163.931 78.6378 164.752 78.7683C165.586 78.8242 166.226 79.6152 166.095 80.4368Z" fill="#292E2E"/>
<path d="M172.716 81.1838C172.66 82.0173 171.869 82.6574 171.048 82.5268C170.214 82.4709 169.574 81.6799 169.705 80.8583C169.761 80.0248 170.552 79.3848 171.373 79.5153C172.207 79.5712 172.772 80.3503 172.716 81.1838Z" fill="#292E2E"/>
<path d="M183.075 135.972L139.248 131.304C136.311 130.99 134.277 128.369 134.591 125.433L136.305 110.313C136.618 107.376 139.239 105.342 142.176 105.656L186.003 110.324C188.939 110.638 190.973 113.258 190.66 116.195L188.946 131.315C188.557 134.24 185.937 136.274 183.075 135.972Z" fill="#60D669"/>
<path d="M183.075 135.972L139.248 131.304C136.311 130.99 134.277 128.369 134.591 125.433L136.305 110.313C136.618 107.376 139.239 105.342 142.176 105.656L186.003 110.324C188.939 110.638 190.973 113.258 190.66 116.195L188.946 131.315C188.557 134.24 185.937 136.274 183.075 135.972Z" stroke="#292E2E" stroke-width="0.7442" stroke-miterlimit="10" stroke-linecap="round" stroke-linejoin="round"/>
<path d="M155.155 120.354C154.585 123.94 151.221 126.315 147.648 125.67C144.063 125.1 141.687 121.736 142.332 118.163C142.902 114.578 146.266 112.202 149.839 112.847C153.35 113.405 155.725 116.769 155.155 120.354Z" fill="#FFFFFC"/>
<path d="M159.48 116.754L182.526 119.191" stroke="#292E2E" stroke-width="0.9653" stroke-miterlimit="10" stroke-linecap="round" stroke-linejoin="round"/>
<path d="M158.88 122.937L169.42 124.076" stroke="#292E2E" stroke-width="0.9653" stroke-miterlimit="10" stroke-linecap="round" stroke-linejoin="round"/>
<path d="M60.8624 132.554L33.9599 129.81C31.6954 129.603 30.0264 127.577 30.2451 125.238L32.4418 103.226C32.6486 100.961 34.6752 99.2922 37.0144 99.5108L63.9287 102.18C66.1932 102.387 67.8622 104.414 67.6436 106.753L65.4468 128.765C65.2282 131.104 63.2016 132.773 60.8624 132.554Z" fill="#4438EB"/>
<path d="M60.8624 132.554L33.9599 129.81C31.6954 129.603 30.0264 127.577 30.2451 125.238L32.4418 103.226C32.6486 100.961 34.6752 99.2922 37.0144 99.5108L63.9287 102.18C66.1932 102.387 67.8622 104.414 67.6436 106.753L65.4468 128.765C65.2282 131.104 63.2016 132.773 60.8624 132.554Z" stroke="#292E2E" stroke-width="0.7442" stroke-miterlimit="10" stroke-linecap="round" stroke-linejoin="round"/>
<path d="M45.9242 121.985C48.6368 122.263 51.4123 122.628 53.9993 122.733C54.8328 122.788 55.644 121.539 54.7205 121.086C55.1296 120.921 55.6134 120.768 55.834 120.344C56.0546 119.92 55.9255 119.286 55.4892 119.14C56.4365 119.444 56.9727 117.998 56.2223 117.419C56.6551 117.105 57.0251 116.704 57.1829 116.193C57.3407 115.682 57.125 115.112 56.7125 114.817C56.4375 114.62 56.064 114.56 55.7652 114.513C54.633 114.41 53.5007 114.306 52.3804 114.128C52.8893 112.371 53.1233 110.417 52.3898 108.769C52.1622 108.273 51.4984 107.632 50.8415 107.91C50.2593 108.201 50.3528 109.058 50.2697 109.581C50.1495 111.783 48.6611 113.92 46.6038 114.818C46.5291 114.806 46.2294 119.583 45.9242 121.985Z" fill="white"/>
<path d="M45.6391 114.702L41.5 114.289L40.7875 121.438L44.9266 121.851L45.6391 114.702Z" fill="white"/>
<path d="M284.901 267.181L221.482 251.358C216.324 250.078 213.176 244.83 214.456 239.673L247.393 107.602C248.672 102.445 253.921 99.2968 259.078 100.576L322.497 116.399C327.655 117.678 330.803 122.927 329.523 128.084L296.586 260.155C295.307 265.312 290.133 268.472 284.901 267.181Z" fill="#FFFFFC"/>
<path d="M327.45 136.682L245.342 116.182L216.725 230.795L298.833 251.296L327.45 136.682Z" fill="#D0E2FF" fill-opacity="0.3"/>
<path d="M263.346 252.957L247.289 248.95C246.255 248.709 245.588 247.607 245.828 246.573C246.069 245.54 247.171 244.872 248.205 245.113L264.262 249.12C265.296 249.361 265.963 250.463 265.722 251.497C265.469 252.605 264.368 253.273 263.346 252.957Z" stroke="#292E2E" stroke-width="0.9653" stroke-miterlimit="10" stroke-linecap="round" stroke-linejoin="round"/>
<path d="M276.059 113.23L301.683 119.677" stroke="#292E2E" stroke-width="0.9653" stroke-miterlimit="10" stroke-linecap="round" stroke-linejoin="round"/>
<path d="M298.832 251.322L216.702 230.84" stroke="#292E2E" stroke-width="0.9653" stroke-miterlimit="10" stroke-linecap="round" stroke-linejoin="round"/>
<path d="M327.422 136.694L245.314 116.193L243.372 123.971L325.48 144.472L327.422 136.694Z" fill="#FFFFFC"/>
<path d="M284.901 267.181L221.482 251.358C216.324 250.078 213.176 244.83 214.456 239.673L247.393 107.602C248.672 102.445 253.921 99.2968 259.078 100.576L322.497 116.399C327.655 117.678 330.803 122.927 329.523 128.084L296.586 260.155C295.307 265.312 290.133 268.472 284.901 267.181Z" stroke="#292E2E" stroke-width="0.9653" stroke-miterlimit="10" stroke-linecap="round" stroke-linejoin="round"/>
<path d="M327.462 136.716L245.332 116.234" stroke="#292E2E" stroke-width="0.9653" stroke-miterlimit="10" stroke-linecap="round" stroke-linejoin="round"/>
<path d="M325.544 144.451L243.414 123.969" stroke="#292E2E" stroke-width="0.9653" stroke-miterlimit="10" stroke-linecap="round" stroke-linejoin="round"/>
<path d="M252.663 122.147C252.446 123.031 251.592 123.585 250.719 123.293C249.835 123.076 249.281 122.222 249.573 121.35C249.79 120.465 250.644 119.912 251.517 120.203C252.401 120.421 252.88 121.263 252.663 122.147Z" stroke="#292E2E" stroke-width="0.9653" stroke-miterlimit="10" stroke-linecap="round" stroke-linejoin="round"/>
<path d="M258.406 123.596C258.189 124.481 257.335 125.034 256.462 124.742C255.578 124.525 255.025 123.671 255.316 122.799C255.534 121.914 256.387 121.361 257.26 121.653C258.132 121.945 258.623 122.712 258.406 123.596Z" stroke="#292E2E" stroke-width="0.9653" stroke-miterlimit="10" stroke-linecap="round" stroke-linejoin="round"/>
<path d="M264.149 125.045C263.932 125.93 263.078 126.483 262.206 126.191C261.321 125.974 260.768 125.121 261.06 124.248C261.277 123.364 262.13 122.81 263.003 123.102C263.813 123.307 264.366 124.161 264.149 125.045Z" stroke="#292E2E" stroke-width="0.9653" stroke-miterlimit="10" stroke-linecap="round" stroke-linejoin="round"/>
<path d="M293.544 196.904C302.036 185.004 299.273 168.473 287.372 159.981C275.472 151.489 258.941 154.252 250.449 166.152C241.957 178.052 244.72 194.583 256.62 203.075C268.521 211.567 285.052 208.804 293.544 196.904Z" fill="#4466F5"/>
<path d="M293.544 196.904C302.036 185.004 299.273 168.473 287.372 159.981C275.472 151.489 258.941 154.252 250.449 166.152C241.957 178.052 244.72 194.583 256.62 203.075C268.521 211.567 285.052 208.804 293.544 196.904Z" stroke="#292E2E" stroke-width="0.9041" stroke-miterlimit="10" stroke-linecap="round" stroke-linejoin="round"/>
<path d="M280.995 195.877L258.099 190.093C257.065 189.853 256.472 188.763 256.701 187.804L260.613 172.344C260.854 171.31 261.944 170.718 262.903 170.947L285.8 176.73C286.834 176.971 287.426 178.061 287.197 179.02L283.285 194.48C283.044 195.513 282.017 196.192 280.995 195.877Z" fill="#FFFFFC"/>
<path d="M275.009 179.594L270.756 178.52L269.497 183.506L273.75 184.58L275.009 179.594Z" fill="#E110D1"/>
<path d="M280.995 195.877L258.099 190.093C257.065 189.853 256.472 188.763 256.701 187.804L260.613 172.344C260.854 171.31 261.944 170.718 262.903 170.947L285.8 176.73C286.834 176.971 287.426 178.061 287.197 179.02L283.285 194.48C283.044 195.513 282.017 196.193 280.995 195.877Z" stroke="#292E2E" stroke-width="0.9628" stroke-miterlimit="10" stroke-linecap="round" stroke-linejoin="round"/>
<path d="M259.152 178.162C259.14 178.237 270.127 180.902 270.127 180.902" stroke="#292E2E" stroke-width="0.9628" stroke-miterlimit="10" stroke-linecap="round" stroke-linejoin="round"/>
<path d="M274.389 182.037L285.725 184.911" stroke="#292E2E" stroke-width="0.9628" stroke-miterlimit="10" stroke-linecap="round" stroke-linejoin="round"/>
<path d="M275.009 179.594L270.756 178.52L269.497 183.506L273.75 184.58L275.009 179.594Z" stroke="#292E2E" stroke-width="0.9628" stroke-miterlimit="10" stroke-linecap="round" stroke-linejoin="round"/>
<path d="M267.238 172.096L267.819 169.891C268.194 168.495 269.63 167.651 271.025 168.026L279.633 170.237C281.029 170.612 281.873 172.048 281.498 173.443L280.917 175.648" stroke="#292E2E" stroke-width="0.9628" stroke-miterlimit="10" stroke-linecap="round" stroke-linejoin="round"/>
<path d="M309.445 158.051L250.585 143.412C248.966 143.001 247.922 141.38 248.344 139.686L249.635 134.454C250.046 132.835 251.667 131.79 253.361 132.213L312.221 146.852C313.84 147.263 314.884 148.884 314.462 150.578L313.171 155.81C312.76 157.429 311.139 158.473 309.445 158.051Z" fill="#FFFFFC"/>
<path d="M255.435 138.439L307.368 151.365" stroke="#292E2E" stroke-width="0.9653" stroke-miterlimit="10" stroke-linecap="round" stroke-linejoin="round"/>
<path d="M287.186 240.281L232.599 226.704C230.319 226.112 228.921 223.822 229.513 221.542L232.542 209.235C233.134 206.955 235.424 205.557 237.703 206.149L292.29 219.727C294.57 220.319 295.968 222.608 295.376 224.888L292.347 237.196C291.755 239.476 289.466 240.873 287.186 240.281Z" fill="#FFFFFC"/>
<path d="M243.975 213.426L244.633 216.517L247.576 217.75L244.877 219.312L244.615 222.41L242.262 220.352L239.233 221.096L240.455 218.227L238.818 215.516L241.979 215.865L243.975 213.426Z" fill="#E110D1"/>
<path d="M256.121 216.506L256.79 219.522L259.734 220.756L256.96 222.306L256.76 225.491L254.419 223.357L251.391 224.101L252.613 221.232L250.964 218.596L254.062 218.859L256.121 216.506Z" fill="#E110D1"/>
<path d="M268.279 219.51L268.936 222.601L271.817 223.748L269.118 225.31L268.918 228.494L266.577 226.361L263.474 227.093L264.771 224.236L263.122 221.6L266.22 221.863L268.279 219.51Z" fill="#E110D1"/>
<path d="M280.363 222.502L281.095 225.605L283.976 226.752L281.265 228.389L281.002 231.487L278.649 229.428L275.621 230.172L276.855 227.228L275.206 224.592L278.367 224.941L280.363 222.502Z" fill="#6FBCE6"/>
<path d="M298.002 59.9728C298.46 58.0545 297.302 56.1857 295.384 55.7277L254.204 45.9663C252.286 45.5082 250.417 46.6662 249.959 48.5844L245.683 66.8197C245.224 68.7379 246.382 70.6067 248.301 71.0648L285.793 79.9338L289.632 86.1343C290.248 87.0746 291.664 86.8401 291.992 85.7435L294.546 74.969L298.002 59.9728Z" fill="#E110D1"/>
<path d="M298.002 59.9728C298.46 58.0545 297.302 56.1857 295.384 55.7277L254.204 45.9663C252.286 45.5082 250.417 46.6662 249.959 48.5844L245.683 66.8197C245.224 68.7379 246.382 70.6067 248.301 71.0648L285.793 79.9338L289.632 86.1343C290.248 87.0746 291.664 86.8401 291.992 85.7435L294.546 74.969L298.002 59.9728Z" stroke="#292E2E" stroke-width="0.7442" stroke-miterlimit="10" stroke-linecap="round" stroke-linejoin="round"/>
<path d="M273.46 60.2066C272.427 58.511 270.198 58.0802 268.577 59.1244L267.476 59.7916L266.809 58.69C265.776 56.9944 263.559 56.4889 261.926 57.6078C260.231 58.6401 259.725 60.8571 260.844 62.4899L263.411 66.5738C263.839 67.2544 264.377 67.7228 265.101 67.9909C266.111 68.3812 267.341 68.3471 268.356 67.7426L272.44 65.1754C273.986 64.1193 274.492 61.9023 273.46 60.2066Z" fill="#FFFFFC"/>
<path d="M281.995 72.5141L279.043 71.8152L280.417 66.0604C280.598 65.4 280.78 64.7397 280.949 64.154C280.69 64.3425 280.43 64.5309 280.096 64.7075L278.597 65.4648L277.498 63.2226L281.971 61.1001L284.624 61.7515L281.995 72.5141Z" fill="white"/>
<path d="M359.64 191.071L333.292 184.356C331.087 183.776 329.69 181.486 330.27 179.281L335.765 157.717C336.345 155.511 338.635 154.114 340.84 154.694L367.188 161.409C369.393 161.989 370.79 164.279 370.21 166.484L364.715 188.049C364.198 190.34 361.92 191.663 359.64 191.071Z" fill="#FFFFFC"/>
<path d="M359.64 191.071L333.292 184.356C331.087 183.776 329.69 181.486 330.27 179.281L335.765 157.717C336.345 155.511 338.635 154.114 340.84 154.694L367.188 161.409C369.393 161.989 370.79 164.279 370.21 166.484L364.715 188.049C364.198 190.34 361.92 191.663 359.64 191.071Z" stroke="#292E2E" stroke-width="0.7051" stroke-miterlimit="10" stroke-linecap="round" stroke-linejoin="round"/>
<path d="M352.621 165.373L353.178 170.056C353.229 170.217 353.355 170.39 353.492 170.489L358.028 171.822C358.464 171.968 358.531 172.515 358.11 172.754L353.81 174.751C353.649 174.802 353.539 175.014 353.515 175.164L353.6 179.925C353.604 180.385 353.034 180.601 352.782 180.255L349.585 176.76C349.46 176.587 349.236 176.551 349.074 176.602L344.61 178.19C344.201 178.355 343.812 177.91 344.033 177.486L346.377 173.34C346.475 173.202 346.436 172.966 346.31 172.793L343.46 169.047C343.208 168.701 343.516 168.214 343.964 168.285L348.634 169.257C348.858 169.293 349.019 169.242 349.129 169.03L351.811 165.167C352.02 164.818 352.531 164.975 352.621 165.373Z" fill="#E110D1"/>
<path d="M354.581 110.165L313.472 99.955C311.554 99.497 310.408 97.5535 310.929 95.7218L313.889 84.3226C314.347 82.4043 316.291 81.2582 318.123 81.7791L359.231 91.9887C361.149 92.4467 362.295 94.3902 361.774 96.2219L358.814 107.621C358.442 109.477 356.499 110.623 354.581 110.165Z" fill="#FFFFFC"/>
<path d="M354.581 110.165L313.472 99.955C311.554 99.497 310.408 97.5535 310.929 95.7218L313.889 84.3226C314.347 82.4043 316.291 81.2582 318.123 81.7791L359.231 91.9887C361.149 92.4467 362.295 94.3902 361.774 96.2219L358.814 107.621C358.442 109.477 356.499 110.623 354.581 110.165Z" stroke="#292E2E" stroke-width="0.9653" stroke-miterlimit="10" stroke-linecap="round" stroke-linejoin="round"/>
<path d="M321.139 89.3047L353.54 97.4412" stroke="#292E2E" stroke-width="0.9653" stroke-miterlimit="10" stroke-linecap="round" stroke-linejoin="round"/>
<path d="M319.761 94.5977L338.31 99.3072" stroke="#292E2E" stroke-width="0.9653" stroke-miterlimit="10" stroke-linecap="round" stroke-linejoin="round"/>
</svg>
