<svg width="25" height="24" viewBox="0 0 25 24" fill="none" xmlns="http://www.w3.org/2000/svg">
<path d="M11.4402 6.08019C11.7909 6.02642 12.1453 5.99967 12.5002 6.00019C15.6802 6.00019 18.6702 8.29018 20.4102 12.0002C20.1441 12.5648 19.8435 13.1125 19.5102 13.6402C19.4044 13.804 19.3487 13.9952 19.3502 14.1902C19.3524 14.4084 19.426 14.6199 19.5596 14.7925C19.6933 14.965 19.8798 15.089 20.0905 15.1457C20.3013 15.2024 20.5248 15.1885 20.727 15.1063C20.9291 15.024 21.0988 14.8779 21.2102 14.6902C21.6761 13.9581 22.0808 13.1888 22.4202 12.3902C22.4738 12.2654 22.5015 12.131 22.5015 11.9952C22.5015 11.8594 22.4738 11.725 22.4202 11.6002C20.4002 6.91019 16.6002 4.00019 12.5002 4.00019C12.0309 3.99782 11.5623 4.03798 11.1002 4.12019C10.9689 4.14251 10.8432 4.19048 10.7304 4.26136C10.6177 4.33224 10.5199 4.42464 10.4429 4.53329C10.3658 4.64193 10.3109 4.76469 10.2812 4.89456C10.2516 5.02443 10.2479 5.15886 10.2702 5.29019C10.2925 5.42151 10.3405 5.54715 10.4114 5.65993C10.4822 5.77271 10.5746 5.87043 10.6833 5.9475C10.7919 6.02457 10.9147 6.07949 11.0446 6.10912C11.1744 6.13875 11.3089 6.14251 11.4402 6.12019V6.08019ZM4.21019 2.29019C4.11695 2.19695 4.00626 2.12299 3.88443 2.07253C3.76261 2.02207 3.63204 1.99609 3.50019 1.99609C3.36833 1.99609 3.23776 2.02207 3.11594 2.07253C2.99411 2.12299 2.88342 2.19695 2.79019 2.29019C2.60188 2.47849 2.49609 2.73388 2.49609 3.00019C2.49609 3.26649 2.60188 3.52188 2.79019 3.71019L5.89019 6.80019C4.47576 8.16171 3.35004 9.79417 2.58019 11.6002C2.52512 11.7264 2.4967 11.8625 2.4967 12.0002C2.4967 12.1378 2.52512 12.274 2.58019 12.4002C4.60019 17.0902 8.40019 20.0002 12.5002 20.0002C14.2973 19.9878 16.052 19.4527 17.5502 18.4602L20.7902 21.7102C20.8831 21.8039 20.9937 21.8783 21.1156 21.9291C21.2375 21.9798 21.3682 22.006 21.5002 22.006C21.6322 22.006 21.7629 21.9798 21.8848 21.9291C22.0066 21.8783 22.1172 21.8039 22.2102 21.7102C22.3039 21.6172 22.3783 21.5066 22.4291 21.3848C22.4798 21.2629 22.506 21.1322 22.506 21.0002C22.506 20.8682 22.4798 20.7375 22.4291 20.6156C22.3783 20.4937 22.3039 20.3831 22.2102 20.2902L4.21019 2.29019ZM10.5702 11.4802L13.0202 13.9302C12.8512 13.9787 12.676 14.0022 12.5002 14.0002C11.9698 14.0002 11.461 13.7895 11.086 13.4144C10.7109 13.0393 10.5002 12.5306 10.5002 12.0002C10.4981 11.8244 10.5217 11.6492 10.5702 11.4802ZM12.5002 18.0002C9.32018 18.0002 6.33019 15.7102 4.60019 12.0002C5.24627 10.5739 6.16326 9.28676 7.30019 8.21019L9.07019 10.0002C8.65443 10.759 8.49592 11.6321 8.61844 12.4886C8.74096 13.3452 9.1379 14.1388 9.74971 14.7507C10.3615 15.3625 11.1552 15.7594 12.0117 15.8819C12.8682 16.0044 13.7414 15.8459 14.5002 15.4302L16.0902 17.0002C15.0013 17.6411 13.7636 17.9858 12.5002 18.0002Z" fill="#595F6C"/>
</svg>
