<svg width="25" height="24" viewBox="0 0 25 24" fill="none" xmlns="http://www.w3.org/2000/svg">
<g clip-path="url(#clip0_578_350)">
<path d="M24.0309 11.5406C23.3491 10.1654 22.4465 8.9113 21.359 7.82812C18.9309 5.40938 15.8746 4.125 12.4996 4.125C9.12461 4.125 6.06836 5.40938 3.64024 7.82812C2.55272 8.9113 1.65012 10.1654 0.968362 11.5406C0.908014 11.6863 0.876953 11.8424 0.876953 12C0.876953 12.1576 0.908014 12.3137 0.968362 12.4594C1.65012 13.8346 2.55272 15.0887 3.64024 16.1719C6.06836 18.5906 9.12461 19.875 12.4996 19.875C15.8746 19.875 18.9309 18.5906 21.359 16.1719C22.4465 15.0887 23.3491 13.8346 24.0309 12.4594C24.0912 12.3137 24.1223 12.1576 24.1223 12C24.1223 11.8424 24.0912 11.6863 24.0309 11.5406ZM19.709 14.6344C17.7027 16.6219 15.2746 17.625 12.4996 17.625C9.72461 17.625 7.29649 16.6219 5.29024 14.6344C4.49936 13.8517 3.81817 12.9655 3.26524 12C3.81572 11.0328 4.49716 10.1463 5.29024 9.36563C7.29649 7.37813 9.72461 6.375 12.4996 6.375C15.2746 6.375 17.7027 7.37813 19.709 9.36563C20.4999 10.1483 21.1811 11.0345 21.734 12C21.1811 12.9655 20.4999 13.8517 19.709 14.6344ZM12.4996 7.875C11.6838 7.875 10.8862 8.11693 10.2079 8.57019C9.52953 9.02345 9.00082 9.66769 8.68861 10.4214C8.3764 11.1752 8.29471 12.0046 8.45387 12.8047C8.61304 13.6049 9.0059 14.3399 9.5828 14.9168C10.1597 15.4937 10.8947 15.8866 11.6949 16.0457C12.495 16.2049 13.3244 16.1232 14.0782 15.811C14.8319 15.4988 15.4762 14.9701 15.9294 14.2917C16.3827 13.6134 16.6246 12.8158 16.6246 12C16.6246 10.906 16.19 9.85677 15.4164 9.08318C14.6428 8.3096 13.5936 7.875 12.4996 7.875ZM12.4996 13.875C12.1288 13.875 11.7663 13.765 11.4579 13.559C11.1496 13.353 10.9093 13.0601 10.7673 12.7175C10.6254 12.3749 10.5883 11.9979 10.6606 11.6342C10.733 11.2705 10.9116 10.9364 11.1738 10.6742C11.436 10.412 11.7701 10.2334 12.1338 10.161C12.4975 10.0887 12.8745 10.1258 13.2171 10.2677C13.5598 10.4096 13.8526 10.65 14.0586 10.9583C14.2646 11.2666 14.3746 11.6292 14.3746 12C14.3721 12.4965 14.1738 12.972 13.8227 13.3231C13.4716 13.6742 12.9961 13.8725 12.4996 13.875Z" fill="#595F6C"/>
</g>
<defs>
<clipPath id="clip0_578_350">
<rect width="24" height="24" fill="white" transform="translate(0.5)"/>
</clipPath>
</defs>
</svg>
