<svg width="120" height="120" viewBox="0 0 120 120" fill="none" xmlns="http://www.w3.org/2000/svg">
<path d="M35 28.8753C30.4167 32.5419 26.77 37.0636 24.06 42.4403C21.35 47.8169 19.9967 53.6703 20 60.0003C20 69.5836 22.9167 77.9386 28.75 85.0653C34.5833 92.1919 41.9583 96.7953 50.875 98.8753C52.125 99.2086 53.125 99.9386 53.875 101.065C54.625 102.192 55 103.42 55 104.75C55 106.084 54.5417 107.209 53.625 108.125C52.7083 109.042 51.6667 109.375 50.5 109.125C38.8333 106.959 29.1667 101.314 21.5 92.1903C13.8333 83.0669 10 72.3369 10 60.0003C10 52.4169 11.5217 45.4169 14.565 39.0003C17.6083 32.5836 21.7533 27.0836 27 22.5003H20C18.5833 22.5003 17.395 22.0203 16.435 21.0603C15.475 20.1003 14.9967 18.9136 15 17.5003C15 16.0836 15.48 14.8953 16.44 13.9353C17.4 12.9753 18.5867 12.4969 20 12.5003H40C41.4167 12.5003 42.605 12.9803 43.565 13.9403C44.525 14.9003 45.0033 16.0869 45 17.5003V37.5003C45 38.9169 44.52 40.1053 43.56 41.0653C42.6 42.0253 41.4133 42.5036 40 42.5003C38.5833 42.5003 37.395 42.0203 36.435 41.0603C35.475 40.1003 34.9967 38.9136 35 37.5003V28.8753ZM52.875 68.8753L77.75 44.0003C78.75 43.0003 79.9167 42.5203 81.25 42.5603C82.5833 42.6003 83.75 43.1219 84.75 44.1253C85.6667 45.1253 86.1467 46.2919 86.19 47.6253C86.2333 48.9586 85.7533 50.1253 84.75 51.1253L56.375 79.5003C55.375 80.5003 54.2083 81.0003 52.875 81.0003C51.5417 81.0003 50.375 80.5003 49.375 79.5003L35.25 65.2503C34.3333 64.3336 33.855 63.1869 33.815 61.8103C33.775 60.4336 34.2533 59.2469 35.25 58.2503C36.1667 57.3336 37.3333 56.8753 38.75 56.8753C40.1667 56.8753 41.3333 57.3336 42.25 58.2503L52.875 68.8753ZM93 97.5003H100C101.417 97.5003 102.605 97.9803 103.565 98.9403C104.525 99.9003 105.003 101.087 105 102.5C105 103.917 104.52 105.105 103.56 106.065C102.6 107.025 101.413 107.504 100 107.5H80C78.5833 107.5 77.395 107.02 76.435 106.06C75.475 105.1 74.9967 103.914 75 102.5V82.5003C75 81.0836 75.48 79.8953 76.44 78.9353C77.4 77.9753 78.5867 77.4969 80 77.5003C81.4167 77.5003 82.605 77.9803 83.565 78.9403C84.525 79.9003 85.0033 81.0869 85 82.5003V91.1253C89.5833 87.3753 93.23 82.8336 95.94 77.5003C98.65 72.1669 100.003 66.3336 100 60.0003C100 50.4169 97.0833 42.0619 91.25 34.9353C85.4167 27.8086 78.0417 23.2053 69.125 21.1253C67.875 20.7919 66.875 20.0636 66.125 18.9403C65.375 17.8169 65 16.5869 65 15.2503C65 13.9169 65.4583 12.7919 66.375 11.8753C67.2917 10.9586 68.3333 10.6253 69.5 10.8753C81.1667 13.0419 90.8333 18.6886 98.5 27.8153C106.167 36.9419 110 47.6703 110 60.0003C110 67.5836 108.478 74.5836 105.435 81.0003C102.392 87.4169 98.2467 92.9169 93 97.5003Z" fill="url(#paint0_linear_8890_177735)"/>
<defs>
<linearGradient id="paint0_linear_8890_177735" x1="80" y1="17.2619" x2="41.6328" y2="109.926" gradientUnits="userSpaceOnUse">
<stop stop-color="#9CE562"/>
<stop offset="1" stop-color="#4466F5"/>
</linearGradient>
</defs>
</svg>
