<svg width="24" height="24" viewBox="0 0 24 24" fill="none" xmlns="http://www.w3.org/2000/svg">
<g clip-path="url(#clip0_750_562)">
<path d="M9.9825 2C8.73313 2.00067 7.50135 2.29443 6.38615 2.85767C5.27096 3.42091 4.30345 4.23792 3.56139 5.24304C2.81933 6.24815 2.32343 7.41334 2.11352 8.64494C1.90362 9.87654 1.98559 11.1402 2.35282 12.3344C2.72006 13.5286 3.36233 14.6199 4.228 15.5208C5.09368 16.4216 6.15862 17.1068 7.33723 17.5212C8.51585 17.9357 9.77525 18.0679 11.0142 17.9072C12.2532 17.7464 13.4372 17.2973 14.4711 16.5958L19.4069 21.5276C19.544 21.6748 19.7093 21.7928 19.893 21.8746C20.0767 21.9565 20.275 22.0005 20.4761 22.004C20.6771 22.0076 20.8769 21.9706 21.0633 21.8953C21.2498 21.82 21.4192 21.7079 21.5614 21.5657C21.7036 21.4235 21.8157 21.2541 21.891 21.0676C21.9663 20.8811 22.0033 20.6814 21.9998 20.4803C21.9962 20.2793 21.9522 20.081 21.8704 19.8973C21.7885 19.7136 21.6705 19.5482 21.5234 19.4111L16.5915 14.4753C17.4075 13.2745 17.8806 11.8739 17.9602 10.4243C18.0397 8.97468 17.7226 7.53079 17.043 6.24788C16.3633 4.96498 15.3468 3.89159 14.1028 3.14314C12.8588 2.39468 11.4343 1.99947 9.9825 2ZM4.99077 9.98677C4.99077 8.66288 5.51668 7.39321 6.45281 6.45708C7.38894 5.52095 8.65861 4.99504 9.9825 4.99504C11.3064 4.99504 12.5761 5.52095 13.5122 6.45708C14.4483 7.39321 14.9742 8.66288 14.9742 9.98677C14.9742 11.3107 14.4483 12.5803 13.5122 13.5165C12.5761 14.4526 11.3064 14.9785 9.9825 14.9785C8.65861 14.9785 7.38894 14.4526 6.45281 13.5165C5.51668 12.5803 4.99077 11.3107 4.99077 9.98677Z" fill="#595F6C"/>
</g>
<defs>
<clipPath id="clip0_750_562">
<rect width="20" height="20" fill="white" transform="translate(2 2)"/>
</clipPath>
</defs>
</svg>
