<svg width="100" height="100" viewBox="0 0 100 100" fill="none" xmlns="http://www.w3.org/2000/svg">
<g opacity="0.94">
<path d="M22.5 10C19.1848 10 16.0054 11.317 13.6612 13.6612C11.317 16.0054 10 19.1848 10 22.5V67.5C10 70.8152 11.317 73.9946 13.6612 76.3388C16.0054 78.683 19.1848 80 22.5 80H30.175C30.0575 79.1719 29.999 78.3364 30 77.5V57.5C30 52.8587 31.8437 48.4075 35.1256 45.1256C38.4075 41.8437 42.8587 40 47.5 40H77.5C78.35 40 79.185 40.06 80 40.175V22.5C80 19.1848 78.683 16.0054 76.3388 13.6612C73.9946 11.317 70.8152 10 67.5 10H22.5ZM25 22.5C25 21.837 25.2634 21.2011 25.7322 20.7322C26.2011 20.2634 26.837 20 27.5 20H62.5C63.163 20 63.7989 20.2634 64.2678 20.7322C64.7366 21.2011 65 21.837 65 22.5C65 23.163 64.7366 23.7989 64.2678 24.2678C63.7989 24.7366 63.163 25 62.5 25H27.5C26.837 25 26.2011 24.7366 25.7322 24.2678C25.2634 23.7989 25 23.163 25 22.5ZM35 32.5C35 31.837 35.2634 31.2011 35.7322 30.7322C36.2011 30.2634 36.837 30 37.5 30H62.5C63.163 30 63.7989 30.2634 64.2678 30.7322C64.7366 31.2011 65 31.837 65 32.5C65 33.163 64.7366 33.7989 64.2678 34.2678C63.7989 34.7366 63.163 35 62.5 35H37.5C36.837 35 36.2011 34.7366 35.7322 34.2678C35.2634 33.7989 35 33.163 35 32.5ZM62.5 68.49L35.97 52.665C36.9228 50.3935 38.5255 48.4541 40.5768 47.0903C42.6282 45.7266 45.0367 44.9994 47.5 45H77.5C79.9633 44.9994 82.3718 45.7266 84.4232 47.0903C86.4745 48.4541 88.0772 50.3935 89.03 52.665L62.5 68.49ZM63.78 73.545L90 57.91V77.5C90 80.8152 88.683 83.9946 86.3388 86.3388C83.9946 88.683 80.8152 90 77.5 90H47.5C44.1848 90 41.0054 88.683 38.6612 86.3388C36.317 83.9946 35 80.8152 35 77.5V57.91L61.22 73.545C61.6071 73.7757 62.0494 73.8975 62.5 73.8975C62.9506 73.8975 63.3929 73.7757 63.78 73.545Z" fill="url(#paint0_linear_750_426)"/>
</g>
<defs>
<linearGradient id="paint0_linear_750_426" x1="50" y1="10" x2="50" y2="90" gradientUnits="userSpaceOnUse">
<stop stop-color="#D40AA5"/>
<stop offset="0.413314" stop-color="#932ED2"/>
<stop offset="1" stop-color="#6248F3"/>
</linearGradient>
</defs>
</svg>
