<svg width="24" height="24" viewBox="0 0 24 24" fill="none" xmlns="http://www.w3.org/2000/svg">
<path d="M23.5309 11.5406C22.8491 10.1654 21.9465 8.9113 20.859 7.82812C18.4309 5.40938 15.3746 4.125 11.9996 4.125C8.62461 4.125 5.56836 5.40938 3.14024 7.82812C2.05272 8.9113 1.15012 10.1654 0.468362 11.5406C0.408014 11.6863 0.376953 11.8424 0.376953 12C0.376953 12.1576 0.408014 12.3137 0.468362 12.4594C1.15012 13.8346 2.05272 15.0887 3.14024 16.1719C5.56836 18.5906 8.62461 19.875 11.9996 19.875C15.3746 19.875 18.4309 18.5906 20.859 16.1719C21.9465 15.0887 22.8491 13.8346 23.5309 12.4594C23.5912 12.3137 23.6223 12.1576 23.6223 12C23.6223 11.8424 23.5912 11.6863 23.5309 11.5406ZM19.209 14.6344C17.2027 16.6219 14.7746 17.625 11.9996 17.625C9.22461 17.625 6.79649 16.6219 4.79024 14.6344C3.99936 13.8517 3.31817 12.9655 2.76524 12C3.31572 11.0328 3.99716 10.1463 4.79024 9.36563C6.79649 7.37813 9.22461 6.375 11.9996 6.375C14.7746 6.375 17.2027 7.37813 19.209 9.36563C19.9999 10.1483 20.6811 11.0345 21.234 12C20.6811 12.9655 19.9999 13.8517 19.209 14.6344ZM11.9996 7.875C11.1838 7.875 10.3862 8.11693 9.70788 8.57019C9.02953 9.02345 8.50082 9.66769 8.18861 10.4214C7.8764 11.1752 7.79471 12.0046 7.95387 12.8047C8.11304 13.6049 8.5059 14.3399 9.0828 14.9168C9.65969 15.4937 10.3947 15.8866 11.1949 16.0457C11.995 16.2049 12.8244 16.1232 13.5782 15.811C14.3319 15.4988 14.9762 14.9701 15.4294 14.2917C15.8827 13.6134 16.1246 12.8158 16.1246 12C16.1246 10.906 15.69 9.85677 14.9164 9.08318C14.1428 8.3096 13.0936 7.875 11.9996 7.875ZM11.9996 13.875C11.6288 13.875 11.2663 13.765 10.9579 13.559C10.6496 13.353 10.4093 13.0601 10.2673 12.7175C10.1254 12.3749 10.0883 11.9979 10.1606 11.6342C10.233 11.2705 10.4116 10.9364 10.6738 10.6742C10.936 10.412 11.2701 10.2334 11.6338 10.161C11.9975 10.0887 12.3745 10.1258 12.7171 10.2677C13.0598 10.4096 13.3526 10.65 13.5586 10.9583C13.7646 11.2666 13.8746 11.6292 13.8746 12C13.8721 12.4965 13.6738 12.972 13.3227 13.3231C12.9716 13.6742 12.4961 13.8725 11.9996 13.875Z" fill="#595F6C"/>
</svg>
