<svg width="493" height="427" viewBox="0 0 493 427" fill="none" xmlns="http://www.w3.org/2000/svg">
<rect y="117" width="493" height="277" rx="30" fill="#E2ECFF"/>
<g filter="url(#filter0_d_4625_51889)">
<rect x="40" y="6" width="321" height="251" rx="20" fill="white"/>
<rect x="60" y="26" width="281" height="18" rx="9" fill="#E1E2E6"/>
<rect x="60" y="54" width="281" height="18" rx="9" fill="#E1E2E6"/>
<rect x="60" y="88" width="281" height="43" rx="10" fill="#E1E2E6"/>
<rect x="60" y="141" width="281" height="43" rx="10" fill="#E1E2E6"/>
<rect x="60" y="194" width="281" height="43" rx="10" fill="#E1E2E6"/>
</g>
<g filter="url(#filter1_d_4625_51889)">
<rect x="229" y="107" width="232" height="260" rx="20" fill="white"/>
<rect x="249.428" y="127.428" width="191.144" height="63.1442" rx="9.57212" fill="white"/>
<circle cx="276.5" cy="159" r="17.5" fill="url(#paint0_linear_4625_51889)"/>
<rect x="304" y="137" width="72" height="10" rx="5" fill="#E1E2E6"/>
<rect x="304" y="153.846" width="127" height="10" rx="5" fill="#E1E2E6"/>
<rect x="304" y="170.692" width="103" height="10" rx="5" fill="#E1E2E6"/>
<rect x="249.428" y="127.428" width="191.144" height="63.1442" rx="9.57212" stroke="#E1E2E6" stroke-width="0.855751"/>
<rect x="249.428" y="205.428" width="191.144" height="63.1442" rx="9.57212" fill="white"/>
<circle cx="276.5" cy="237" r="17.5" fill="url(#paint1_linear_4625_51889)"/>
<rect x="304" y="215" width="72" height="10" rx="5" fill="#E1E2E6"/>
<rect x="304" y="231.846" width="127" height="10" rx="5" fill="#E1E2E6"/>
<rect x="304" y="248.692" width="103" height="10" rx="5" fill="#E1E2E6"/>
<rect x="249.428" y="205.428" width="191.144" height="63.1442" rx="9.57212" stroke="#E1E2E6" stroke-width="0.855751"/>
<rect x="249.428" y="283.428" width="191.144" height="63.1442" rx="9.57212" fill="white"/>
<circle cx="276.5" cy="315" r="17.5" fill="url(#paint2_linear_4625_51889)"/>
<rect x="304" y="293" width="72" height="10" rx="5" fill="#E1E2E6"/>
<rect x="304" y="309.846" width="127" height="10" rx="5" fill="#E1E2E6"/>
<rect x="304" y="326.692" width="103" height="10" rx="5" fill="#E1E2E6"/>
<rect x="249.428" y="283.428" width="191.144" height="63.1442" rx="9.57212" stroke="#E1E2E6" stroke-width="0.855751"/>
</g>
<defs>
<filter id="filter0_d_4625_51889" x="34.3369" y="0.33687" width="333.944" height="263.944" filterUnits="userSpaceOnUse" color-interpolation-filters="sRGB">
<feFlood flood-opacity="0" result="BackgroundImageFix"/>
<feColorMatrix in="SourceAlpha" type="matrix" values="0 0 0 0 0 0 0 0 0 0 0 0 0 0 0 0 0 0 127 0" result="hardAlpha"/>
<feMorphology radius="3.23607" operator="dilate" in="SourceAlpha" result="effect1_dropShadow_4625_51889"/>
<feOffset dx="0.809019" dy="0.809019"/>
<feGaussianBlur stdDeviation="1.61804"/>
<feComposite in2="hardAlpha" operator="out"/>
<feColorMatrix type="matrix" values="0 0 0 0 0 0 0 0 0 0 0 0 0 0 0 0 0 0 0.05 0"/>
<feBlend mode="normal" in2="BackgroundImageFix" result="effect1_dropShadow_4625_51889"/>
<feBlend mode="normal" in="SourceGraphic" in2="effect1_dropShadow_4625_51889" result="shape"/>
</filter>
<filter id="filter1_d_4625_51889" x="223.01" y="101.01" width="245.692" height="273.692" filterUnits="userSpaceOnUse" color-interpolation-filters="sRGB">
<feFlood flood-opacity="0" result="BackgroundImageFix"/>
<feColorMatrix in="SourceAlpha" type="matrix" values="0 0 0 0 0 0 0 0 0 0 0 0 0 0 0 0 0 0 127 0" result="hardAlpha"/>
<feMorphology radius="3.423" operator="dilate" in="SourceAlpha" result="effect1_dropShadow_4625_51889"/>
<feOffset dx="0.855751" dy="0.855751"/>
<feGaussianBlur stdDeviation="1.7115"/>
<feComposite in2="hardAlpha" operator="out"/>
<feColorMatrix type="matrix" values="0 0 0 0 0 0 0 0 0 0 0 0 0 0 0 0 0 0 0.05 0"/>
<feBlend mode="normal" in2="BackgroundImageFix" result="effect1_dropShadow_4625_51889"/>
<feBlend mode="normal" in="SourceGraphic" in2="effect1_dropShadow_4625_51889" result="shape"/>
</filter>
<linearGradient id="paint0_linear_4625_51889" x1="296.439" y1="169.675" x2="254.534" y2="165.172" gradientUnits="userSpaceOnUse">
<stop stop-color="#0059E9" stop-opacity="0.25"/>
<stop offset="1" stop-color="#0059E9" stop-opacity="0.1"/>
</linearGradient>
<linearGradient id="paint1_linear_4625_51889" x1="296.439" y1="247.675" x2="254.534" y2="243.172" gradientUnits="userSpaceOnUse">
<stop stop-color="#0059E9" stop-opacity="0.25"/>
<stop offset="1" stop-color="#0059E9" stop-opacity="0.1"/>
</linearGradient>
<linearGradient id="paint2_linear_4625_51889" x1="296.439" y1="325.675" x2="254.534" y2="321.172" gradientUnits="userSpaceOnUse">
<stop stop-color="#0059E9" stop-opacity="0.25"/>
<stop offset="1" stop-color="#0059E9" stop-opacity="0.1"/>
</linearGradient>
</defs>
</svg>
