<svg width="48" height="48" viewBox="0 0 48 48" fill="none" xmlns="http://www.w3.org/2000/svg">
<path fill-rule="evenodd" clip-rule="evenodd" d="M4 24.0116C4 12.9725 12.9768 4 24 4C35.0232 4 44 12.9725 44 24.0116C44 35.0275 35.0232 44 24 44C12.9768 44 4 35.0275 4 24.0116ZM31.3357 26.0357C31.548 25.8234 31.8183 25.4954 31.8762 25.4182C32.1851 25.013 32.3395 24.5113 32.3395 24.0115C32.3395 23.45 32.1658 22.9291 31.8376 22.5046C31.8107 22.4777 31.758 22.4204 31.6894 22.3457C31.561 22.2059 31.3766 22.0052 31.2005 21.8292C29.6175 20.1312 25.4862 17.3526 23.3241 16.5036C22.9959 16.3704 22.1658 16.0791 21.7218 16.0598C21.297 16.0598 20.8916 16.1563 20.5055 16.3492C20.0229 16.6194 19.6368 17.0439 19.4245 17.5456C19.2893 17.8929 19.077 18.9348 19.077 18.9541C18.8646 20.0926 18.7488 21.945 18.7488 23.9903C18.7488 25.9411 18.8646 27.7144 19.0384 28.8721C19.0431 28.8769 19.0597 28.9597 19.0855 29.0883C19.164 29.4794 19.3274 30.2941 19.5017 30.628C19.9264 31.4385 20.7565 31.9402 21.6445 31.9402H21.7218C22.3009 31.9209 23.5171 31.4192 23.5171 31.3999C25.5634 30.5509 29.5982 27.9073 31.2198 26.1514L31.3357 26.0357Z" fill="url(#paint0_linear_4625_51887)"/>
<defs>
<linearGradient id="paint0_linear_4625_51887" x1="32" y1="6.62857" x2="16.2286" y2="44.1143" gradientUnits="userSpaceOnUse">
<stop stop-color="#9CE562"/>
<stop offset="1" stop-color="#4466F5"/>
</linearGradient>
</defs>
</svg>
