<svg width="49" height="48" viewBox="0 0 49 48" fill="none" xmlns="http://www.w3.org/2000/svg">
<path d="M34.9013 21.1242C30.6201 21.1242 27.1366 24.6711 27.1366 29.0302C27.1366 33.3893 30.6201 36.9361 34.9013 36.9361C39.1825 36.9361 42.666 33.3893 42.666 29.0302C42.666 24.6711 39.1825 21.1242 34.9013 21.1242ZM38.1934 27.7616C35.9362 31.2095 36.5763 30.232 35.3698 32.074C34.9365 32.7358 34.0592 32.9113 33.4119 32.472L31.2943 31.0345C30.6457 30.5943 30.471 29.7022 30.9034 29.041C31.3357 28.3806 32.2119 28.2028 32.8613 28.643L33.8037 29.2826C36.0553 25.8444 35.9342 25.9395 36.3131 25.7196C37.5989 24.9622 39.0197 26.498 38.1934 27.7616ZM28.5484 37.6495V45.5608C28.5484 46.6622 29.72 47.3563 30.6607 46.8087L34.9013 44.3417L39.1419 46.8087C40.0789 47.3555 41.2543 46.6652 41.2543 45.5608V37.6495C37.493 40.5308 32.315 40.535 28.5484 37.6495ZM37.7248 18.6393L37.666 6C37.666 3 35.166 1 32.666 1H11.666C9.97543 1 6.66602 3 6.66602 6V36.5C6.66602 39 8.66602 40.5 11.166 40.5298H25.7248C25.7248 34.344 25.7154 34.7269 25.7469 34.4422C21.0208 26.1924 28.5463 16.0439 37.7248 18.6393ZM15.1366 8.18723H27.1366C27.9166 8.18723 28.5484 8.83049 28.5484 9.62468C28.5484 10.4189 27.9166 11.0621 27.1366 11.0621H15.1366C14.3566 11.0621 13.7248 10.4189 13.7248 9.62468C13.7248 8.83049 14.3566 8.18723 15.1366 8.18723ZM22.1954 22.5617H15.1366C14.3566 22.5617 13.7248 21.9184 13.7248 21.1242C13.7248 20.3301 14.3566 19.6868 15.1366 19.6868H22.1954C22.9754 19.6868 23.6072 20.3301 23.6072 21.1242C23.6072 21.9184 22.9754 22.5617 22.1954 22.5617ZM15.1366 16.8119C14.3566 16.8119 13.7248 16.1686 13.7248 15.3745C13.7248 14.5803 14.3566 13.937 15.1366 13.937H27.1366C27.9166 13.937 28.5484 14.5803 28.5484 15.3745C28.5484 16.1686 27.9166 16.8119 27.1366 16.8119H15.1366Z" fill="#4466F5"/>
</svg>
