<svg width="48" height="48" viewBox="0 0 48 48" fill="none" xmlns="http://www.w3.org/2000/svg">
<path d="M35.42 6.58031C34.222 6.17832 32.962 6.00032 31.7 6.00032C28.92 5.98032 26.222 6.90031 24 8.5983C23.82 8.4603 23.6 8.3383 23.4 8.2203C23.2 8.0983 22.84 7.8003 22.54 7.64031L21.78 7.30031C21.38 7.08031 20.962 6.92031 20.52 6.77831C20.48 6.74031 20.42 6.69831 20.34 6.66031H20.222C19.04 6.25832 17.82 6.03832 16.56 6.00032H16.34C15.78 6.00032 15.222 6.03832 14.66 6.12032H14.42C13.82 6.19832 13.222 6.33832 12.642 6.53831C5.18003 8.98029 2.52003 17.0802 4.78003 24.1602C6.06003 27.7781 8.12203 31.0601 10.802 33.7581C14.7 37.5181 18.962 40.838 23.54 43.678L24.06 44L24.56 43.698C29.122 40.838 33.36 37.518 37.222 33.7781C39.92 31.0801 41.98 27.7781 43.24 24.1602C45.462 17.0802 42.802 8.98029 35.42 6.58031V6.58031Z" fill="#4466F5"/>
</svg>
