<svg width="48" height="48" viewBox="0 0 48 48" fill="none" xmlns="http://www.w3.org/2000/svg">
<path d="M24.0016 16.1984C24.0016 18.2671 23.1798 20.2511 21.717 21.7139C20.2542 23.1767 18.2703 23.9984 16.2016 23.9984C14.1329 23.9984 12.1489 23.1767 10.6861 21.7139C9.22335 20.2511 8.40156 18.2671 8.40156 16.1984C8.40156 14.1297 9.22335 12.1458 10.6861 10.683C12.1489 9.22022 14.1329 8.39844 16.2016 8.39844C18.2703 8.39844 20.2542 9.22022 21.717 10.683C23.1798 12.1458 24.0016 14.1297 24.0016 16.1984ZM27.2464 27.6608L22.6576 32.2544C22.323 32.5888 22.0576 32.9857 21.8766 33.4226C21.6955 33.8596 21.6023 34.3279 21.6023 34.8008C21.6023 35.2738 21.6955 35.7421 21.8766 36.179C22.0576 36.616 22.323 37.0129 22.6576 37.3472L24.2104 38.8976C22.372 40.016 19.8016 40.7984 16.2016 40.7984C3.60156 40.7984 3.60156 31.1984 3.60156 31.1984C3.60156 29.9254 4.10728 28.7045 5.00745 27.8043C5.90762 26.9042 7.12852 26.3984 8.40156 26.3984H24.0016C25.252 26.3984 26.392 26.8784 27.2464 27.6608ZM34.8016 23.9984C36.3929 23.9984 37.919 23.3663 39.0442 22.2411C40.1694 21.1159 40.8016 19.5897 40.8016 17.9984C40.8016 16.4071 40.1694 14.881 39.0442 13.7558C37.919 12.6306 36.3929 11.9984 34.8016 11.9984C33.2103 11.9984 31.6841 12.6306 30.5589 13.7558C29.4337 14.881 28.8016 16.4071 28.8016 17.9984C28.8016 19.5897 29.4337 21.1159 30.5589 22.2411C31.6841 23.3663 33.2103 23.9984 34.8016 23.9984ZM30.8512 30.848C31.0765 30.6227 31.2031 30.3171 31.2031 29.9984C31.2031 29.6798 31.0765 29.3742 30.8512 29.1488C30.6258 28.9235 30.3202 28.7969 30.0016 28.7969C29.6829 28.7969 29.3773 28.9235 29.152 29.1488L24.352 33.9488C24.2402 34.0603 24.1515 34.1927 24.0911 34.3385C24.0306 34.4843 23.9994 34.6406 23.9994 34.7984C23.9994 34.9563 24.0306 35.1126 24.0911 35.2584C24.1515 35.4041 24.2402 35.5366 24.352 35.648L29.152 40.448C29.3773 40.6734 29.6829 40.8 30.0016 40.8C30.3202 40.8 30.6258 40.6734 30.8512 40.448C31.0765 40.2227 31.2031 39.9171 31.2031 39.5984C31.2031 39.2798 31.0765 38.9742 30.8512 38.7488L28.0984 35.9984H41.5048L38.752 38.7488C38.5266 38.9742 38.4 39.2798 38.4 39.5984C38.4 39.9171 38.5266 40.2227 38.752 40.448C38.9773 40.6734 39.2829 40.8 39.6016 40.8C39.9202 40.8 40.2258 40.6734 40.4512 40.448L45.2512 35.648C45.3629 35.5366 45.4516 35.4041 45.5121 35.2584C45.5726 35.1126 45.6037 34.9563 45.6037 34.7984C45.6037 34.6406 45.5726 34.4843 45.5121 34.3385C45.4516 34.1927 45.3629 34.0603 45.2512 33.9488L40.4512 29.1488C40.2258 28.9235 39.9202 28.7969 39.6016 28.7969C39.2829 28.7969 38.9773 28.9235 38.752 29.1488C38.5266 29.3742 38.4 29.6798 38.4 29.9984C38.4 30.3171 38.5266 30.6227 38.752 30.848L41.5048 33.5984H28.0984L30.8512 30.848Z" fill="#4466F5"/>
</svg>
