<svg width="49" height="48" viewBox="0 0 49 48" fill="none" xmlns="http://www.w3.org/2000/svg">
<path d="M39.0007 18.5H28.5632C26.2307 18.5 24.334 16.5441 24.334 14.1387V3.375C24.334 2.88 24.4607 2.40906 24.6898 2H13.334C11.7373 2 7.83398 3.375 7.33398 7V40.5C7.33398 43.5 10.834 46 13.334 46H35.334C36.9307 46 39.834 44.5 40.334 41V18.133C39.9286 18.3743 39.4687 18.5008 39.0007 18.5ZM19.3915 27.153C19.9123 26.6159 20.7557 26.6159 21.2765 27.153L23.0007 28.9302V20.5625C23.0007 19.8028 23.5973 19.1875 24.334 19.1875C25.0707 19.1875 25.6673 19.8028 25.6673 20.5625V28.9302L27.3915 27.153C27.9115 26.6159 28.7565 26.6159 29.2765 27.153C29.7973 27.6893 29.7973 28.5607 29.2765 29.097L25.2765 33.222C24.9954 33.5193 24.5906 33.6535 24.2057 33.619C23.538 33.527 23.7486 33.5902 19.3915 29.097C18.8707 28.5607 18.8707 27.6893 19.3915 27.153ZM31.0007 39.125H17.6673C16.9307 39.125 16.334 38.5097 16.334 37.75C16.334 36.9903 16.9307 36.375 17.6673 36.375H31.0007C31.7373 36.375 32.334 36.9903 32.334 37.75C32.334 38.5097 31.7373 39.125 31.0007 39.125ZM29.334 15.75H39.0007L27.0007 3.375V13.6275C27.0007 14.5161 28.4723 15.75 29.334 15.75Z" fill="#4466F5"/>
</svg>
