<svg width="49" height="48" viewBox="0 0 49 48" fill="none" xmlns="http://www.w3.org/2000/svg">
<path fill-rule="evenodd" clip-rule="evenodd" d="M35.8718 16.7636H44.334C44.334 9.96919 40.2629 6 33.3651 6H15.3029C8.4051 6 4.33398 9.96919 4.33398 16.6769V31.3231C4.33398 38.0308 8.4051 42 15.3029 42H33.3651C40.2629 42 44.334 38.0308 44.334 31.3231V30.6991H35.8718C31.9444 30.6991 28.7607 27.595 28.7607 23.766C28.7607 19.937 31.9444 16.8329 35.8718 16.8329V16.7636ZM35.8718 19.7448H42.8407C43.6654 19.7448 44.334 20.3967 44.334 21.2008V26.2619C44.3244 27.0621 43.6614 27.7085 42.8407 27.7179H36.0318C34.0435 27.7439 32.305 26.4167 31.854 24.5286C31.6281 23.3566 31.9452 22.1471 32.7201 21.2244C33.4951 20.3017 34.6487 19.7602 35.8718 19.7448ZM36.174 25.066H36.8318C37.6761 25.066 38.3607 24.3986 38.3607 23.5753C38.3607 22.7521 37.6761 22.0847 36.8318 22.0847H36.174C35.7701 22.0801 35.3812 22.2333 35.094 22.5101C34.8067 22.7869 34.6451 23.1643 34.6451 23.558C34.645 24.3841 35.3267 25.0565 36.174 25.066ZM13.8095 16.7636H25.0984C25.9428 16.7636 26.6273 16.0962 26.6273 15.273C26.6273 14.4497 25.9428 13.7824 25.0984 13.7824H13.8095C12.9721 13.7823 12.2904 14.4392 12.2807 15.2557C12.2806 16.0817 12.9623 16.7541 13.8095 16.7636Z" fill="#4466F5"/>
</svg>
