<svg width="56" height="56" viewBox="0 0 56 56" fill="none" xmlns="http://www.w3.org/2000/svg">
<path fill-rule="evenodd" clip-rule="evenodd" d="M25.7411 30.2689C35.0489 39.5742 37.1605 28.809 43.0868 34.7312C48.8003 40.4431 52.0841 41.5875 44.8452 48.8244C43.9385 49.553 38.1774 58.3199 17.9311 38.0792C-2.31779 17.836 6.44402 12.069 7.17292 11.1625C14.4293 3.90564 15.554 7.20856 21.2675 12.9204C27.1938 18.8452 16.4332 20.9636 25.7411 30.2689Z" fill="#4466F5"/>
<path d="M44.5694 14.2047H41.7622V11.4601C41.7622 10.2884 40.8225 9.33301 39.6646 9.33301C38.5091 9.33301 37.567 10.2884 37.567 11.4601V14.2047H34.7646C33.6067 14.2047 32.667 15.1601 32.667 16.3318C32.667 17.5035 33.6067 18.4589 34.7646 18.4589H37.567V21.2059C37.567 22.3776 38.5091 23.333 39.6646 23.333C40.8225 23.333 41.7622 22.3776 41.7622 21.2059V18.4589H44.5694C45.7249 18.4589 46.667 17.5035 46.667 16.3318C46.667 15.1601 45.7249 14.2047 44.5694 14.2047Z" fill="#4466F5"/>
</svg>
