<svg width="48" height="48" viewBox="0 0 48 48" fill="none" xmlns="http://www.w3.org/2000/svg">
<path fill-rule="evenodd" clip-rule="evenodd" d="M28.242 22.4648H33.7777C34.617 22.4648 35.2765 21.7709 35.2765 20.9341C35.2765 20.0769 34.617 19.4033 33.7777 19.4033H28.242C27.4027 19.4033 26.7432 20.0769 26.7432 20.9341C26.7432 21.7709 27.4027 22.4648 28.242 22.4648ZM40.3532 11.854C41.5722 11.854 42.3716 12.2826 43.171 13.2215C43.9703 14.1604 44.1102 15.5074 43.9304 16.73L42.0318 30.1191C41.6721 32.6928 39.5138 34.5889 36.9758 34.5889H15.1728C12.5148 34.5889 10.3166 32.5091 10.0967 29.815L8.25817 7.56583L5.24052 7.03517C4.44114 6.89229 3.88158 6.0963 4.02147 5.27989C4.16136 4.44511 4.94075 3.892 5.76011 4.0165L10.5264 4.74923C11.2059 4.87373 11.7055 5.44317 11.7654 6.13712L12.1451 10.709C12.2051 11.3642 12.7247 11.854 13.3642 11.854H40.3532ZM14.854 37.8135C13.1753 37.8135 11.8164 39.2014 11.8164 40.9158C11.8164 42.6099 13.1753 43.9978 14.854 43.9978C16.5127 43.9978 17.8717 42.6099 17.8717 40.9158C17.8717 39.2014 16.5127 37.8135 14.854 37.8135ZM37.3365 37.8135C35.6578 37.8135 34.2988 39.2014 34.2988 40.9158C34.2988 42.6099 35.6578 43.9978 37.3365 43.9978C38.9952 43.9978 40.3541 42.6099 40.3541 40.9158C40.3541 39.2014 38.9952 37.8135 37.3365 37.8135Z" fill="#4466F5"/>
</svg>
