<svg width="48" height="48" viewBox="0 0 48 48" fill="none" xmlns="http://www.w3.org/2000/svg">
<path d="M23.7803 39.0278L15.3602 43.5418L15.1622 43.6298C13.7322 44.1699 12.3821 44.0619 11.3561 43.1458C10.3921 42.2858 10.0421 41.0538 10.2421 39.6358L11.6501 29.9156L5.29002 23.2315C4.19 22.1115 3.75999 20.7355 4.13 19.2955C4.54001 17.6974 5.89003 16.7794 7.83206 16.4714L16.2862 15.1954L20.7123 6.02525C21.4003 4.73123 22.4723 3.96521 23.8223 4.00122C25.1423 4.03522 26.1884 4.84523 27.0084 6.28725L31.2884 15.2594L40.7686 16.5754C42.2746 16.8354 43.3846 17.6194 43.8286 18.9275C44.2686 20.2335 43.8486 21.5535 42.7146 22.9015L35.8345 29.9216L37.3785 39.6338C37.6225 41.3138 37.3285 42.6438 36.2065 43.4338C35.1945 44.1479 33.9285 44.1479 32.4725 43.6478L32.2324 43.5418L23.7803 39.0278Z" fill="#4466F5"/>
</svg>
