<svg width="49" height="48" viewBox="0 0 49 48" fill="none" xmlns="http://www.w3.org/2000/svg">
<path fill-rule="evenodd" clip-rule="evenodd" d="M18.5175 32.78H29.2898C30.1017 32.78 30.7749 32.1 30.7749 31.28C30.7749 30.46 30.1017 29.8 29.2898 29.8H18.5175C17.7056 29.8 17.0324 30.46 17.0324 31.28C17.0324 32.1 17.7056 32.78 18.5175 32.78ZM25.2106 19.8H18.5175C17.7056 19.8 17.0324 20.48 17.0324 21.3C17.0324 22.12 17.7056 22.78 18.5175 22.78H25.2106C26.0225 22.78 26.6957 22.12 26.6957 21.3C26.6957 20.48 26.0225 19.8 25.2106 19.8ZM39.3422 18.0512C39.8076 18.0458 40.3144 18.04 40.7749 18.04C41.27 18.04 41.666 18.44 41.666 18.94V35.02C41.666 39.98 37.6858 44 32.7749 44H17.0126C11.864 44 7.66602 39.78 7.66602 34.58V13.02C7.66602 8.06 11.666 4 16.5967 4H27.171C27.6858 4 28.0819 4.42 28.0819 4.92V11.36C28.0819 15.02 31.072 18.02 34.6957 18.04C35.5422 18.04 36.2884 18.0463 36.9414 18.0519C37.4494 18.0562 37.9011 18.06 38.2997 18.06C38.5816 18.06 38.9469 18.0558 39.3422 18.0512ZM39.8882 15.132C38.2605 15.138 36.3417 15.132 34.9615 15.118C32.7714 15.118 30.9674 13.296 30.9674 11.084V5.812C30.9674 4.95 32.003 4.522 32.5951 5.144C33.6666 6.26921 35.1389 7.81581 36.6045 9.35545C38.0671 10.8918 39.523 12.4212 40.5674 13.518C41.1456 14.124 40.7219 15.13 39.8882 15.132Z" fill="#4466F5"/>
</svg>
