<svg width="48" height="48" viewBox="0 0 48 48" fill="none" xmlns="http://www.w3.org/2000/svg">
<path d="M24.0004 15.6004C21.9508 15.6004 20.1196 16.5364 18.91 18.0004C18.1636 18.905 17.6717 19.9921 17.4849 21.1499C17.2981 22.3077 17.4233 23.4943 17.8474 24.5877C18.2715 25.6811 18.9793 26.6418 19.8979 27.3708C20.8165 28.0998 21.9128 28.5709 23.074 28.7356C24.6523 25.6909 27.3505 23.3773 30.6004 22.282V22.2004C30.6004 20.6044 30.034 19.1404 29.0908 18.0004C27.8812 16.5364 26.05 15.6004 24.0004 15.6004ZM44.8252 26.2132C43.3879 24.5312 41.5501 23.2383 39.4813 22.4539C37.4126 21.6695 35.1796 21.4189 32.9884 21.7252C32.922 20.4238 32.5723 19.1526 31.9636 18.0004H42.0004C42.9552 18.0004 43.8708 18.3797 44.546 19.0548C45.2211 19.7299 45.6004 20.6456 45.6004 21.6004V22.8004C45.6004 23.9524 45.3364 25.114 44.8252 26.2132ZM22.0972 31.2004C21.7664 32.3717 21.5992 33.5832 21.6004 34.8004C21.6004 39.1132 23.6668 42.9412 26.866 45.3484C25.9203 45.5183 24.9612 45.6026 24.0004 45.6004C16.4644 45.6004 12.0004 40.7308 12.0004 36.0004V34.8004C11.9991 34.3273 12.0914 33.8586 12.2718 33.4212C12.4523 32.9839 12.7174 32.5865 13.052 32.252C13.3865 31.9174 13.7839 31.6523 14.2212 31.4718C14.6586 31.2914 15.1273 31.1991 15.6004 31.2004H22.0972ZM10.3564 31.882C5.29239 30.5116 2.40039 26.6092 2.40039 22.8004V21.6004C2.40039 20.6456 2.77968 19.7299 3.45481 19.0548C4.12994 18.3797 5.04561 18.0004 6.00039 18.0004H16.0396C15.3554 19.2945 14.9986 20.7365 15.0004 22.2004C14.9988 23.4397 15.2539 24.666 15.7495 25.8019C16.2452 26.9378 16.9707 27.9587 17.8804 28.8004H15.6004C14.531 28.8001 13.481 29.0856 12.559 29.6274C11.637 30.1692 10.8765 30.9476 10.3564 31.882ZM14.4004 2.40039C16.1508 2.40039 17.8296 3.09575 19.0673 4.33349C20.305 5.57123 21.0004 7.24996 21.0004 9.00039C21.0004 10.7508 20.305 12.4296 19.0673 13.6673C17.8296 14.905 16.1508 15.6004 14.4004 15.6004C12.65 15.6004 10.9712 14.905 9.73348 13.6673C8.49575 12.4296 7.80039 10.7508 7.80039 9.00039C7.80039 7.24996 8.49575 5.57123 9.73348 4.33349C10.9712 3.09575 12.65 2.40039 14.4004 2.40039ZM33.6004 2.40039C35.3508 2.40039 37.0296 3.09575 38.2673 4.33349C39.505 5.57123 40.2004 7.24996 40.2004 9.00039C40.2004 10.7508 39.505 12.4296 38.2673 13.6673C37.0296 14.905 35.3508 15.6004 33.6004 15.6004C31.85 15.6004 30.1712 14.905 28.9335 13.6673C27.6957 12.4296 27.0004 10.7508 27.0004 9.00039C27.0004 7.24996 27.6957 5.57123 28.9335 4.33349C30.1712 3.09575 31.85 2.40039 33.6004 2.40039ZM34.8004 45.6004C37.6647 45.6004 40.4117 44.4625 42.4371 42.4371C44.4625 40.4118 45.6004 37.6647 45.6004 34.8004C45.6004 31.9361 44.4625 29.189 42.4371 27.1636C40.4117 25.1382 37.6647 24.0004 34.8004 24.0004C31.9361 24.0004 29.189 25.1382 27.1636 27.1636C25.1382 29.189 24.0004 31.9361 24.0004 34.8004C24.0004 37.6647 25.1382 40.4118 27.1636 42.4371C29.189 44.4625 31.9361 45.6004 34.8004 45.6004ZM34.8004 28.8004C35.1186 28.8004 35.4239 28.9268 35.6489 29.1519C35.874 29.3769 36.0004 29.6821 36.0004 30.0004V33.6004H39.6004C39.9186 33.6004 40.2239 33.7268 40.4489 33.9519C40.674 34.1769 40.8004 34.4821 40.8004 34.8004C40.8004 35.1187 40.674 35.4239 40.4489 35.6489C40.2239 35.874 39.9186 36.0004 39.6004 36.0004H36.0004V39.6004C36.0004 39.9187 35.874 40.2239 35.6489 40.4489C35.4239 40.674 35.1186 40.8004 34.8004 40.8004C34.4821 40.8004 34.1769 40.674 33.9519 40.4489C33.7268 40.2239 33.6004 39.9187 33.6004 39.6004V36.0004H30.0004C29.6821 36.0004 29.3769 35.874 29.1519 35.6489C28.9268 35.4239 28.8004 35.1187 28.8004 34.8004C28.8004 34.4821 28.9268 34.1769 29.1519 33.9519C29.3769 33.7268 29.6821 33.6004 30.0004 33.6004H33.6004V30.0004C33.6004 29.6821 33.7268 29.3769 33.9519 29.1519C34.1769 28.9268 34.4821 28.8004 34.8004 28.8004Z" fill="#4466F5"/>
</svg>
