<svg width="32" height="32" viewBox="0 0 32 32" fill="none" xmlns="http://www.w3.org/2000/svg">
<g clip-path="url(#clip0_2011_1337)">
<rect x="4" y="4" width="24" height="24" rx="12" fill="#E2ECFF"/>
<path d="M16.0007 5.33301C13.891 5.33301 11.8287 5.9586 10.0746 7.13067C8.32045 8.30273 6.95328 9.96864 6.14594 11.9177C5.33861 13.8668 5.12737 16.0115 5.53895 18.0806C5.95052 20.1498 6.96642 22.0504 8.45818 23.5421C9.94994 25.0339 11.8506 26.0498 13.9197 26.4614C15.9888 26.873 18.1335 26.6617 20.0826 25.8544C22.0317 25.0471 23.6976 23.6799 24.8697 21.9258C26.0417 20.1716 26.6673 18.1093 26.6673 15.9997C26.6673 13.1707 25.5435 10.4576 23.5431 8.4572C21.5427 6.45681 18.8296 5.33301 16.0007 5.33301ZM16.0007 25.333C14.1547 25.333 12.3502 24.7856 10.8153 23.7601C9.28047 22.7345 8.0842 21.2768 7.37778 19.5714C6.67136 17.8659 6.48653 15.9893 6.84666 14.1788C7.20679 12.3683 8.0957 10.7053 9.40099 9.40001C10.7063 8.09472 12.3693 7.20581 14.1798 6.84568C15.9903 6.48555 17.8669 6.67038 19.5724 7.3768C21.2778 8.08322 22.7355 9.27949 23.761 10.8144C24.7866 12.3492 25.334 14.1537 25.334 15.9997C25.334 18.475 24.3507 20.849 22.6003 22.5993C20.85 24.3497 18.476 25.333 16.0007 25.333Z" fill="#595F6C"/>
<path d="M16.1927 9.94696C15.4702 9.93502 14.7541 10.0823 14.095 10.3785C13.4359 10.6746 12.8502 11.1122 12.3793 11.6603C12.3139 11.7209 12.2614 11.794 12.2247 11.8753C12.1881 11.9566 12.1681 12.0445 12.166 12.1336C12.166 12.2159 12.1825 12.2973 12.2145 12.3731C12.2466 12.4488 12.2936 12.5173 12.3527 12.5745C12.4118 12.6318 12.4818 12.6765 12.5585 12.7061C12.6352 12.7358 12.7171 12.7496 12.7993 12.747C12.9755 12.7426 13.1439 12.6738 13.2727 12.5536C13.629 12.1361 14.0715 11.8007 14.5699 11.5705C15.0682 11.3403 15.6104 11.2209 16.1593 11.2203C17.7327 11.2203 18.7127 12.2336 18.7127 13.4936V13.527C18.7127 15.0003 17.5393 15.8203 15.686 15.9603C15.611 15.9632 15.5374 15.9819 15.4701 16.0152C15.4028 16.0485 15.3432 16.0957 15.2954 16.1536C15.2476 16.2115 15.2125 16.2788 15.1925 16.3512C15.1725 16.4236 15.168 16.4994 15.1793 16.5736C15.1793 16.5736 15.1793 18.1203 15.1793 18.407C15.1959 18.572 15.2734 18.7249 15.3967 18.8358C15.52 18.9468 15.6802 19.0078 15.846 19.007H15.9193C16.0844 18.9904 16.2373 18.9129 16.3482 18.7896C16.4592 18.6663 16.5202 18.5061 16.5193 18.3403V16.967C18.5193 16.687 20.1393 15.6336 20.1393 13.447V13.4136C20.1193 11.4136 18.5593 9.94696 16.1927 9.94696Z" fill="#595F6C"/>
<path d="M15.8529 22.3005C16.3131 22.3005 16.6862 21.9274 16.6862 21.4671C16.6862 21.0069 16.3131 20.6338 15.8529 20.6338C15.3926 20.6338 15.0195 21.0069 15.0195 21.4671C15.0195 21.9274 15.3926 22.3005 15.8529 22.3005Z" fill="#595F6C"/>
</g>
<rect x="2" y="2" width="28" height="28" rx="14" stroke="#E2ECFF" stroke-width="4"/>
<defs>
<clipPath id="clip0_2011_1337">
<rect x="4" y="4" width="24" height="24" rx="12" fill="white"/>
</clipPath>
</defs>
</svg>
