<svg width="24" height="24" viewBox="0 0 24 24" fill="none" xmlns="http://www.w3.org/2000/svg">
<g clip-path="url(#clip0_2011_1323)">
<path d="M12.0007 1.33301C9.89099 1.33301 7.8287 1.9586 6.07457 3.13067C4.32045 4.30273 2.95328 5.96864 2.14594 7.91772C1.33861 9.8668 1.12737 12.0115 1.53895 14.0806C1.95052 16.1498 2.96642 18.0504 4.45818 19.5421C5.94994 21.0339 7.85056 22.0498 9.91969 22.4614C11.9888 22.873 14.1335 22.6617 16.0826 21.8544C18.0317 21.0471 19.6976 19.6799 20.8697 17.9258C22.0417 16.1716 22.6673 14.1093 22.6673 11.9997C22.6673 9.1707 21.5435 6.45759 19.5431 4.4572C17.5427 2.45681 14.8296 1.33301 12.0007 1.33301ZM12.0007 21.333C10.1547 21.333 8.35019 20.7856 6.81533 19.7601C5.28047 18.7345 4.0842 17.2768 3.37778 15.5714C2.67136 13.8659 2.48653 11.9893 2.84666 10.1788C3.20679 8.36834 4.0957 6.7053 5.40099 5.40001C6.70628 4.09472 8.36932 3.20581 10.1798 2.84568C11.9903 2.48555 13.8669 2.67038 15.5724 3.3768C17.2778 4.08322 18.7355 5.27949 19.761 6.81435C20.7866 8.34921 21.334 10.1537 21.334 11.9997C21.334 14.475 20.3507 16.849 18.6003 18.5993C16.85 20.3497 14.476 21.333 12.0007 21.333Z" fill="#E1E2E6"/>
<path d="M12.1927 5.94696C11.4702 5.93502 10.7541 6.08234 10.095 6.37846C9.43592 6.67458 8.85017 7.11222 8.37935 7.66029C8.31394 7.72091 8.26135 7.79404 8.22471 7.87534C8.18807 7.95664 8.16811 8.04447 8.16602 8.13363C8.16597 8.21588 8.18247 8.29731 8.21454 8.37305C8.24661 8.4488 8.29358 8.51732 8.35267 8.57455C8.41176 8.63177 8.48175 8.67652 8.55849 8.70614C8.63523 8.73576 8.71714 8.74964 8.79935 8.74696C8.97547 8.74259 9.14387 8.67381 9.27268 8.55363C9.62899 8.13608 10.0715 7.80068 10.5699 7.57051C11.0682 7.34034 11.6104 7.22086 12.1593 7.22029C13.7327 7.22029 14.7127 8.23363 14.7127 9.49363V9.52696C14.7127 11.0003 13.5393 11.8203 11.686 11.9603C11.611 11.9632 11.5374 11.9819 11.4701 12.0152C11.4028 12.0485 11.3432 12.0957 11.2954 12.1536C11.2476 12.2115 11.2125 12.2788 11.1925 12.3512C11.1725 12.4236 11.168 12.4994 11.1793 12.5736C11.1793 12.5736 11.1793 14.1203 11.1793 14.407C11.1959 14.572 11.2734 14.7249 11.3967 14.8358C11.52 14.9468 11.6802 15.0078 11.846 15.007H11.9193C12.0844 14.9904 12.2373 14.9129 12.3482 14.7896C12.4592 14.6663 12.5202 14.5061 12.5193 14.3403V12.967C14.5193 12.687 16.1393 11.6336 16.1393 9.44696V9.41363C16.1193 7.41363 14.5593 5.94696 12.1927 5.94696Z" fill="#E1E2E6"/>
<path d="M11.8529 18.3005C12.3131 18.3005 12.6862 17.9274 12.6862 17.4671C12.6862 17.0069 12.3131 16.6338 11.8529 16.6338C11.3926 16.6338 11.0195 17.0069 11.0195 17.4671C11.0195 17.9274 11.3926 18.3005 11.8529 18.3005Z" fill="#E1E2E6"/>
</g>
<defs>
<clipPath id="clip0_2011_1323">
<rect width="24" height="24" fill="white"/>
</clipPath>
</defs>
</svg>
