<svg width="40" height="40" viewBox="0 0 40 40" fill="none" xmlns="http://www.w3.org/2000/svg">
<rect width="40" height="40" rx="20" fill="#A281ED"/>
<path d="M28.519 10.337C27.9436 9.78863 25.6148 8.04041 20.4225 8.01698C20.4225 8.01698 14.3015 7.63734 11.3202 10.4682C9.66196 12.1836 9.07749 14.7005 9.01406 17.8173C8.95063 20.9341 8.87361 26.774 14.3151 28.3582H14.3196L14.3151 30.7766C14.3151 30.7766 14.2788 31.7562 14.9041 31.953C15.6562 32.1968 16.1002 31.4515 16.8206 30.6501C17.2148 30.2095 17.7585 29.5627 18.1708 29.0706C21.8951 29.394 24.754 28.6534 25.0802 28.5457C25.8323 28.2926 30.0867 27.7301 30.7754 21.8902C31.4912 15.8629 30.431 12.0571 28.519 10.337ZM29.1488 21.4497C28.5644 26.3241 25.1164 26.6334 24.4821 26.8443C24.2103 26.9334 21.6957 27.5801 18.5377 27.3692C18.5377 27.3692 16.1817 30.3079 15.4478 31.0719C15.2076 31.3203 14.9448 31.2969 14.9494 30.8047C14.9494 30.4813 14.9675 26.7881 14.9675 26.7881C14.963 26.7881 14.963 26.7881 14.9675 26.7881C10.3552 25.4663 10.627 20.4935 10.6769 17.8923C10.7267 15.2911 11.2024 13.1585 12.607 11.7243C15.1306 9.35744 20.3274 9.70896 20.3274 9.70896C24.7177 9.7277 26.82 11.0963 27.3093 11.5556C28.9268 12.9898 29.7514 16.4206 29.1488 21.4497ZM22.851 17.6626C22.8692 18.0657 22.2847 18.0938 22.2666 17.6908C22.2167 16.6596 21.7501 16.1581 20.7895 16.1019C20.3999 16.0785 20.4361 15.4739 20.8213 15.4973C22.0853 15.5676 22.7876 16.3175 22.851 17.6626ZM23.7708 18.1923C23.8161 16.205 22.6154 14.649 20.3365 14.4755C19.9513 14.4474 19.9921 13.8428 20.3772 13.8709C23.0051 14.0678 24.4051 15.9379 24.3553 18.2063C24.3507 18.6094 23.7617 18.5907 23.7708 18.1923ZM25.9003 18.8203C25.9048 19.2234 25.3158 19.2281 25.3158 18.825C25.2886 15.0052 22.8284 12.9242 19.8426 12.9007C19.4575 12.8961 19.4575 12.2961 19.8426 12.2961C23.1818 12.3196 25.8685 14.7052 25.9003 18.8203ZM25.3883 23.4182V23.4275C24.899 24.3181 23.9837 25.3023 23.0413 24.9883L23.0323 24.9742C22.0763 24.6977 19.8245 23.4978 18.4018 22.3261C17.6678 21.7262 16.9973 21.0185 16.4808 20.3389C16.0141 19.7343 15.5429 19.0172 15.0853 18.1548C14.1202 16.3503 13.9073 15.5442 13.9073 15.5442C13.6037 14.5693 14.5507 13.6225 15.416 13.1163H15.4251C15.8419 12.8914 16.2406 12.9664 16.508 13.2991C16.508 13.2991 17.0698 13.9928 17.3099 14.3349C17.5364 14.6536 17.84 15.1645 17.9986 15.4504C18.275 15.9613 18.1028 16.4815 17.8309 16.6971L17.2873 17.1471C17.0109 17.3767 17.0471 17.8033 17.0471 17.8033C17.0471 17.8033 17.8536 20.9575 20.8666 21.7543C20.8666 21.7543 21.2789 21.7918 21.5009 21.5059L21.9358 20.9435C22.1442 20.6623 22.6472 20.4842 23.141 20.7701C23.807 21.1591 24.6543 21.7637 25.2161 22.3121C25.5333 22.5792 25.6058 22.987 25.3883 23.4182Z" fill="white"/>
</svg>
