<svg width="99" height="20" viewBox="0 0 99 20" fill="none" xmlns="http://www.w3.org/2000/svg">
<path d="M9.83594 0L10.215 2.44249C10.7494 5.88541 13.4505 8.58658 16.8934 9.12092L19.3359 9.5L16.8934 9.87908C13.4505 10.4134 10.7494 13.1146 10.215 16.5575L9.83594 19L9.45686 16.5575C8.92251 13.1146 6.22134 10.4134 2.77843 9.87908L0.335938 9.5L2.77843 9.12092C6.22134 8.58658 8.92251 5.88541 9.45686 2.44249L9.83594 0Z" fill="#4466F5"/>
<path d="M28.5689 15V4.81818H29.8018V9.35227H35.2308V4.81818H36.4638V15H35.2308V10.446H29.8018V15H28.5689ZM47.5231 9.90909C47.5231 10.983 47.3292 11.911 46.9414 12.6932C46.5536 13.4754 46.0217 14.0786 45.3455 14.5028C44.6694 14.9271 43.8971 15.1392 43.0288 15.1392C42.1604 15.1392 41.3881 14.9271 40.712 14.5028C40.0359 14.0786 39.5039 13.4754 39.1161 12.6932C38.7283 11.911 38.5344 10.983 38.5344 9.90909C38.5344 8.83523 38.7283 7.9072 39.1161 7.125C39.5039 6.3428 40.0359 5.73958 40.712 5.31534C41.3881 4.8911 42.1604 4.67898 43.0288 4.67898C43.8971 4.67898 44.6694 4.8911 45.3455 5.31534C46.0217 5.73958 46.5536 6.3428 46.9414 7.125C47.3292 7.9072 47.5231 8.83523 47.5231 9.90909ZM46.3299 9.90909C46.3299 9.02746 46.1824 8.28338 45.8874 7.67685C45.5958 7.07031 45.1997 6.61127 44.6992 6.29972C44.2021 5.98816 43.6452 5.83239 43.0288 5.83239C42.4123 5.83239 41.8538 5.98816 41.3533 6.29972C40.8562 6.61127 40.4601 7.07031 40.1651 7.67685C39.8735 8.28338 39.7276 9.02746 39.7276 9.90909C39.7276 10.7907 39.8735 11.5348 40.1651 12.1413C40.4601 12.7479 40.8562 13.2069 41.3533 13.5185C41.8538 13.83 42.4123 13.9858 43.0288 13.9858C43.6452 13.9858 44.2021 13.83 44.6992 13.5185C45.1997 13.2069 45.5958 12.7479 45.8874 12.1413C46.1824 11.5348 46.3299 10.7907 46.3299 9.90909ZM48.6156 5.91193V4.81818H56.252V5.91193H53.0502V15H51.8173V5.91193H48.6156ZM62.0923 15V4.81818H65.5327C66.3314 4.81818 66.9844 4.96236 67.4915 5.25071C68.0019 5.53575 68.3797 5.92188 68.625 6.40909C68.8703 6.89631 68.9929 7.43987 68.9929 8.03977C68.9929 8.63968 68.8703 9.1849 68.625 9.67543C68.383 10.166 68.0085 10.5571 67.5014 10.8487C66.9943 11.1371 66.3447 11.2812 65.5526 11.2812H63.0866V10.1875H65.5128C66.0597 10.1875 66.4988 10.093 66.8303 9.90412C67.1617 9.7152 67.402 9.45999 67.5511 9.13849C67.7036 8.81368 67.7798 8.44744 67.7798 8.03977C67.7798 7.6321 67.7036 7.26752 67.5511 6.94602C67.402 6.62453 67.16 6.37263 66.8253 6.19034C66.4905 6.00473 66.0464 5.91193 65.4929 5.91193H63.3253V15H62.0923ZM70.979 15V4.81818H72.212V13.9062H76.945V15H70.979ZM79.9142 15H78.6216L82.3603 4.81818H83.633L87.3716 15H86.079L83.0364 6.42898H82.9569L79.9142 15ZM80.3915 11.0227H85.6017V12.1165H80.3915V11.0227ZM97.0314 4.81818V15H95.8382L90.29 7.00568H90.1905V15H88.9576V4.81818H90.1507L95.7189 12.8324H95.8184V4.81818H97.0314Z" fill="#595F6C"/>
</svg>
