<svg width="40" height="40" viewBox="0 0 40 40" fill="none" xmlns="http://www.w3.org/2000/svg">
<rect width="40" height="40" rx="20" fill="#A281ED"/>
<path d="M27.7446 11.9475C27.2215 11.4905 25.1044 10.0337 20.3841 10.0142C20.3841 10.0142 14.8195 9.69778 12.1093 12.0569C10.6018 13.4864 10.0704 15.5838 10.0128 18.1811C9.95512 20.7784 9.8851 25.645 14.8319 26.9651H14.836L14.8319 28.9805C14.8319 28.9805 14.7989 29.7968 15.3673 29.9609C16.0511 30.164 16.4547 29.5429 17.1096 28.8751C17.468 28.5079 17.9622 27.9689 18.3371 27.5588C21.7228 27.8283 24.3218 27.2112 24.6184 27.1214C25.3021 26.9105 29.1697 26.4418 29.7958 21.5752C30.4466 16.5524 29.4828 13.3809 27.7446 11.9475ZM28.3171 21.2081C27.7858 25.27 24.6513 25.5278 24.0747 25.7036C23.8275 25.7778 21.5415 26.3168 18.6707 26.141C18.6707 26.141 16.5289 28.5899 15.8616 29.2266C15.6433 29.4336 15.4044 29.4141 15.4085 29.004C15.4085 28.7345 15.425 25.6567 15.425 25.6567C15.4209 25.6567 15.4209 25.6567 15.425 25.6567C11.232 24.5553 11.4791 20.4113 11.5244 18.2436C11.5697 16.0759 12.0022 14.2988 13.2791 13.1036C15.5733 11.1312 20.2976 11.4241 20.2976 11.4241C24.2888 11.4398 26.2 12.5802 26.6448 12.963C28.1153 14.1582 28.8649 17.0172 28.3171 21.2081ZM22.5919 18.0522C22.6083 18.3881 22.077 18.4115 22.0605 18.0756C22.0152 17.2164 21.591 16.7985 20.7178 16.7516C20.3635 16.7321 20.3965 16.2282 20.7466 16.2477C21.8958 16.3063 22.5342 16.9313 22.5919 18.0522ZM23.428 18.4936C23.4692 16.8375 22.3777 15.5408 20.3059 15.3963C19.9558 15.3729 19.9928 14.869 20.3429 14.8924C22.7319 15.0565 24.0046 16.6149 23.9593 18.5053C23.9552 18.8412 23.4198 18.8255 23.428 18.4936ZM25.3639 19.0169C25.368 19.3528 24.8325 19.3567 24.8325 19.0208C24.8078 15.8376 22.5713 14.1035 19.8569 14.084C19.5068 14.08 19.5068 13.5801 19.8569 13.5801C22.8925 13.5996 25.335 15.5877 25.3639 19.0169ZM24.8984 22.8485V22.8563C24.4536 23.5984 23.6216 24.4186 22.7649 24.1569L22.7566 24.1452C21.8875 23.9147 19.8404 22.9149 18.5471 21.9384C17.8799 21.4385 17.2703 20.8487 16.8007 20.2824C16.3765 19.7785 15.9481 19.181 15.5321 18.4623C14.6548 16.9586 14.4612 16.2868 14.4612 16.2868C14.1852 15.4744 15.0461 14.6854 15.8328 14.2636H15.841C16.2199 14.0761 16.5824 14.1386 16.8254 14.4159C16.8254 14.4159 17.3362 14.994 17.5545 15.2791C17.7604 15.5447 18.0364 15.9704 18.1805 16.2087C18.4318 16.6344 18.2753 17.068 18.0281 17.2476L17.5339 17.6226C17.2826 17.814 17.3156 18.1694 17.3156 18.1694C17.3156 18.1694 18.0487 20.798 20.7878 21.4619C20.7878 21.4619 21.1626 21.4932 21.3644 21.2549L21.7598 20.7862C21.9493 20.5519 22.4065 20.4035 22.8555 20.6417C23.4609 20.9659 24.2312 21.4697 24.7419 21.9267C25.0302 22.1493 25.0961 22.4891 24.8984 22.8485Z" fill="white"/>
</svg>

