<svg width="40" height="41" viewBox="0 0 40 41" fill="none" xmlns="http://www.w3.org/2000/svg">
<circle cx="20" cy="20.5" r="20" fill="white"/>
<path d="M20 0.5C8.95417 0.5 0 9.45417 0 20.5C0 31.5458 8.95417 40.5 20 40.5C31.0458 40.5 40 31.5458 40 20.5C40 9.45417 31.0458 0.5 20 0.5ZM27.6917 23.0646C27.6917 23.0646 29.4604 24.8104 29.8958 25.6208C29.9083 25.6375 29.9146 25.6542 29.9187 25.6625C30.0958 25.9604 30.1375 26.1917 30.05 26.3646C29.9042 26.6521 29.4042 26.7938 29.2333 26.8063H26.1083C25.8917 26.8063 25.4375 26.75 24.8875 26.3708C24.4646 26.075 24.0479 25.5896 23.6417 25.1167C23.0354 24.4125 22.5104 23.8042 21.9813 23.8042C21.914 23.8041 21.8472 23.8146 21.7833 23.8354C21.3833 23.9646 20.8708 24.5354 20.8708 26.0562C20.8708 26.5312 20.4958 26.8042 20.2313 26.8042H18.8C18.3125 26.8042 15.7729 26.6333 13.5229 24.2604C10.7687 21.3542 8.28958 15.525 8.26875 15.4708C8.1125 15.0937 8.43542 14.8917 8.7875 14.8917H11.9437C12.3646 14.8917 12.5021 15.1479 12.5979 15.375C12.7104 15.6396 13.1229 16.6917 13.8 17.875C14.8979 19.8042 15.5708 20.5875 16.1104 20.5875C16.2116 20.5863 16.311 20.5606 16.4 20.5125C17.1042 20.1208 16.9729 17.6104 16.9417 17.0896C16.9417 16.9917 16.9396 15.9667 16.5792 15.475C16.3208 15.1187 15.8812 14.9833 15.6146 14.9333C15.7225 14.7844 15.8647 14.6636 16.0292 14.5812C16.5125 14.3396 17.3833 14.3042 18.2479 14.3042H18.7292C19.6667 14.3167 19.9083 14.3771 20.2479 14.4625C20.9354 14.6271 20.95 15.0708 20.8896 16.5896C20.8708 17.0208 20.8521 17.5083 20.8521 18.0833C20.8521 18.2083 20.8458 18.3417 20.8458 18.4833C20.825 19.2562 20.8 20.1333 21.3458 20.4937C21.417 20.5384 21.4993 20.5622 21.5833 20.5625C21.7729 20.5625 22.3437 20.5625 23.8896 17.9104C24.3663 17.0568 24.7806 16.1697 25.1292 15.2562C25.1604 15.2021 25.2521 15.0354 25.3604 14.9708C25.4404 14.9301 25.529 14.9093 25.6187 14.9104H29.3292C29.7333 14.9104 30.0104 14.9708 30.0625 15.1271C30.1542 15.375 30.0458 16.1312 28.3521 18.425L27.5958 19.4229C26.0604 21.4354 26.0604 21.5375 27.6917 23.0646Z" fill="#699BF7"/>
</svg>
