<svg width="40" height="40" viewBox="0 0 40 40" fill="none" xmlns="http://www.w3.org/2000/svg">
<g id="logos:whatsapp-icon" clip-path="url(#clip0_3814_26422)">
<path id="Vector" d="M0.166712 19.8198C0.165741 23.3126 1.08249 26.7231 2.82568 29.7292L0 40L10.5582 37.244C13.4785 38.8267 16.7504 39.6559 20.0753 39.6561H20.0841C31.0604 39.6561 39.9953 30.7644 40 19.8354C40.0021 14.5395 37.9323 9.55959 34.1717 5.81297C30.4118 2.06667 25.4113 0.00241697 20.0833 0C9.10571 0 0.171244 8.89122 0.166712 19.8198Z" fill="url(#paint0_linear_3814_26422)"/>
<path id="Vector_2" d="M16.0496 10.56C15.6809 9.67652 15.293 9.6587 14.9424 9.6432C14.6553 9.62988 14.3272 9.63088 13.9993 9.63088C13.6711 9.63088 13.1379 9.76398 12.6873 10.2946C12.2361 10.8257 10.9648 12.1091 10.9648 14.7194C10.9648 17.3299 12.7282 19.8526 12.974 20.207C13.2201 20.5607 16.3782 26.0889 21.3798 28.2156C25.5366 29.983 26.3825 29.6314 27.2846 29.5428C28.1869 29.4545 30.1961 28.2597 30.606 27.0208C31.0162 25.782 31.0162 24.7201 30.8932 24.4982C30.7702 24.2772 30.4421 24.1444 29.95 23.8792C29.4577 23.6138 27.0385 22.3302 26.5875 22.1531C26.1363 21.9762 25.8083 21.8879 25.4802 22.4192C25.152 22.9496 24.2097 24.1444 23.9225 24.4982C23.6355 24.8529 23.3483 24.8971 22.8564 24.6317C22.364 24.3655 20.7792 23.8059 18.8991 21.9985C17.4362 20.5921 16.4486 18.8554 16.1616 18.3242C15.8745 17.7937 16.1308 17.5062 16.3776 17.2418C16.5987 17.0041 16.8698 16.6223 17.1161 16.3126C17.3615 16.0027 17.4433 15.7816 17.6074 15.4278C17.7717 15.0736 17.6895 14.7638 17.5666 14.4984C17.4433 14.233 16.4871 11.609 16.0496 10.56Z" fill="white"/>
</g>
<defs>
<linearGradient id="paint0_linear_3814_26422" x1="2000" y1="4000" x2="2000" y2="0" gradientUnits="userSpaceOnUse">
<stop stop-color="#1FAF38"/>
<stop offset="1" stop-color="#60D669"/>
</linearGradient>
<clipPath id="clip0_3814_26422">
<rect width="40" height="40" fill="white"/>
</clipPath>
</defs>
</svg>
