<svg width="404" height="381" viewBox="0 0 404 381" fill="none" xmlns="http://www.w3.org/2000/svg">
<g filter="url(#filter0_d_4631_44523)">
<path d="M293.776 115.985L42.0469 166.667C31.2148 168.848 23.8044 179.468 25.4954 190.386L50.0883 349.184C51.7793 360.103 61.9313 367.186 72.7634 365.005L324.492 314.323C335.324 312.142 342.735 301.523 341.044 290.604L316.451 131.806C314.76 120.888 304.608 113.804 293.776 115.985Z" fill="url(#paint0_linear_4631_44523)"/>
<path d="M151.91 48.932C133.429 51.8929 48.4279 151.992 28.0063 176.319C25.7978 178.95 26.7167 182.872 29.7952 184.116L180.369 244.955C182.142 245.671 184.2 245.268 185.645 243.92L308.299 129.499C310.819 127.149 310.448 123.089 307.538 121.47C280.744 106.565 170.371 45.9741 151.91 48.932Z" fill="url(#paint1_linear_4631_44523)"/>
<path d="M177.34 243.468C180.842 244.846 184.897 244.031 187.773 241.371L288.682 148.027C291.258 145.644 292.502 142.134 291.975 138.734L283.523 84.2342C282.677 78.7751 277.6 75.2324 272.183 76.3216L51.4789 120.701C46.0626 121.79 42.3582 127.098 43.2047 132.558L51.9578 189.002C52.485 192.402 54.7089 195.215 57.8458 196.449L177.34 243.468Z" fill="white" stroke="#F4F5F6" stroke-miterlimit="10"/>
<path d="M82.7305 142.153L248.641 110.894" stroke="#F4F5F6" stroke-width="2" stroke-miterlimit="10"/>
<path d="M86.5664 165.283L252.477 134.024" stroke="#F4F5F6" stroke-width="2" stroke-miterlimit="10"/>
<path d="M90.4023 188.425L256.313 157.166" stroke="#F4F5F6" stroke-width="2" stroke-miterlimit="10"/>
<path d="M379.702 97.4711C383.286 96.8651 385.863 100.988 384.027 104.388L342.453 181.384C341.345 183.436 339.007 184.299 337.005 183.395L213.565 127.686C211.183 126.611 210.244 123.51 211.562 121.069L253.47 43.4561C255.137 40.3679 259.229 40.2841 260.91 43.3036L296.896 107.944C297.984 109.899 300.062 110.939 302.169 110.583L379.702 97.4711Z" fill="white" stroke="#F4F5F6"/>
<path d="M262.727 48.3422C260.706 44.044 264.809 39.2794 268.931 41.1383L375.338 89.1292C379.64 91.0695 378.99 97.8787 374.397 98.9864L306.349 115.397C299.823 116.928 293.713 114.268 291.053 108.587L262.727 48.3422Z" fill="url(#paint2_linear_4631_44523)"/>
</g>
<defs>
<filter id="filter0_d_4631_44523" x="-12" y="-9" width="428" height="404" filterUnits="userSpaceOnUse" color-interpolation-filters="sRGB">
<feFlood flood-opacity="0" result="BackgroundImageFix"/>
<feColorMatrix in="SourceAlpha" type="matrix" values="0 0 0 0 0 0 0 0 0 0 0 0 0 0 0 0 0 0 127 0" result="hardAlpha"/>
<feOffset dy="3"/>
<feGaussianBlur stdDeviation="6"/>
<feComposite in2="hardAlpha" operator="out"/>
<feColorMatrix type="matrix" values="0 0 0 0 0 0 0 0 0 0 0 0 0 0 0 0 0 0 0.04 0"/>
<feBlend mode="normal" in2="BackgroundImageFix" result="effect1_dropShadow_4631_44523"/>
<feBlend mode="normal" in="SourceGraphic" in2="effect1_dropShadow_4631_44523" result="shape"/>
</filter>
<linearGradient id="paint0_linear_4631_44523" x1="358.387" y1="267.617" x2="6.20257" y2="266.67" gradientUnits="userSpaceOnUse">
<stop stop-color="#0059E9" stop-opacity="0.25"/>
<stop offset="1" stop-color="#0059E9" stop-opacity="0.1"/>
</linearGradient>
<linearGradient id="paint1_linear_4631_44523" x1="211.932" y1="50.5146" x2="193.584" y2="263.472" gradientUnits="userSpaceOnUse">
<stop stop-color="#9CE562"/>
<stop offset="1" stop-color="#4466F5"/>
</linearGradient>
<linearGradient id="paint2_linear_4631_44523" x1="341.987" y1="149.034" x2="257.573" y2="13.0264" gradientUnits="userSpaceOnUse">
<stop stop-color="#0059E9" stop-opacity="0.25"/>
<stop offset="1" stop-color="#0059E9" stop-opacity="0.1"/>
</linearGradient>
</defs>
</svg>
