<svg width="56" height="56" viewBox="0 0 56 56" fill="none" xmlns="http://www.w3.org/2000/svg">
<g id="Restore 56">
<path id="Vector" d="M30.332 7C24.7625 7 19.4211 9.21249 15.4828 13.1508C11.5445 17.089 9.33203 22.4305 9.33203 28H2.33203L11.4087 37.0767L11.572 37.4033L20.9987 28H13.9987C13.9987 23.6681 15.7195 19.5137 18.7826 16.4506C21.8457 13.3875 26.0002 11.6667 30.332 11.6667C34.6639 11.6667 38.8183 13.3875 41.8814 16.4506C44.9445 19.5137 46.6654 23.6681 46.6654 28C46.6654 32.3319 44.9445 36.4863 41.8814 39.5494C38.8183 42.6125 34.6639 44.3333 30.332 44.3333C25.8287 44.3333 21.7454 42.49 18.8054 39.5267L15.492 42.84C17.4321 44.8014 19.7438 46.3564 22.2918 47.4141C24.8399 48.4718 27.5732 49.0109 30.332 49C35.9016 49 41.243 46.7875 45.1813 42.8492C49.1195 38.911 51.332 33.5695 51.332 28C51.332 22.4305 49.1195 17.089 45.1813 13.1508C41.243 9.21249 35.9016 7 30.332 7Z" fill="#4466F5"/>
</g>
</svg>
