<svg width="20" height="21" viewBox="0 0 20 21" fill="none" xmlns="http://www.w3.org/2000/svg">
<path d="M12.5 13.5C16.6359 13.5 20 10.4723 20 6.75C20 3.02766 16.6354 0 12.5 0H5C4.07969 0 3.33333 0.671719 3.33333 1.5V10.5H1.66667C0.746354 10.5 0 11.1703 0 12C0 12.8297 0.746354 13.5 1.66667 13.5H3.33333V15H1.66667C0.746354 15 0 15.6717 0 16.5C0 17.3283 0.746354 18 1.66667 18H3.33333V19.5C3.33333 20.3283 4.07969 21 5 21C5.92031 21 6.66667 20.3283 6.66667 19.5V18H15C15.9203 18 16.6667 17.3283 16.6667 16.5C16.6667 15.6717 15.9203 15 15 15H6.66667V13.5H12.5ZM6.66667 3H12.5C14.7969 3 16.6667 4.68281 16.6667 6.75C16.6667 8.81719 14.7969 10.5 12.5 10.5H6.66667V3Z" fill="#17181A"/>
</svg>
