<svg width="108" height="112" viewBox="0 0 108 112" fill="none" xmlns="http://www.w3.org/2000/svg">
<path fill-rule="evenodd" clip-rule="evenodd" d="M35.4844 51.682C35.4844 62.3487 44.2161 71.0275 54.9966 71.0275C65.7283 71.0275 74.46 62.3487 74.46 51.682C74.46 40.9669 65.7283 32.2881 54.9966 32.2881C44.2161 32.2881 35.4844 40.9669 35.4844 51.682ZM83.6829 21.9119C92.2195 28.5059 99.4878 38.1544 104.707 50.2271C105.098 51.1483 105.098 52.215 104.707 53.0877C94.2683 77.2332 75.6829 91.6816 55 91.6816H54.9512C34.3171 91.6816 15.7317 77.2332 5.29268 53.0877C4.90244 52.215 4.90244 51.1483 5.29268 50.2271C15.7317 26.0816 34.3171 11.6816 54.9512 11.6816H55C65.3415 11.6816 75.1463 15.2695 83.6829 21.9119ZM55.0154 63.744C61.6984 63.744 67.1618 58.3137 67.1618 51.6712C67.1618 44.9803 61.6984 39.55 55.0154 39.55C54.4301 39.55 53.8447 39.5985 53.3081 39.6955C53.113 45.0288 48.7228 49.2955 43.3081 49.2955H43.0642C42.9179 50.0713 42.8203 50.847 42.8203 51.6712C42.8203 58.3137 48.2837 63.744 55.0154 63.744Z" fill="url(#paint0_linear_8235_101878)"/>
<circle cx="81" cy="85" r="20" fill="white"/>
<path fill-rule="evenodd" clip-rule="evenodd" d="M84.5915 74.75C84.5915 72.6789 82.9125 71 80.8414 71C78.7703 71 77.0914 72.6789 77.0914 74.75V81.4998H70.7501C68.679 81.4998 67 83.1787 67 85.2498C67 87.3209 68.679 88.9998 70.7501 88.9998H77.0914V96C77.0914 98.0711 78.7703 99.75 80.8414 99.75C82.9125 99.75 84.5915 98.0711 84.5915 96V88.9998H91.3425C93.4136 88.9998 95.0926 87.3209 95.0926 85.2498C95.0926 83.1787 93.4136 81.4998 91.3425 81.4998H84.5915V74.75Z" fill="url(#paint1_linear_8235_101878)"/>
<defs>
<linearGradient id="paint0_linear_8235_101878" x1="111.967" y1="76.0817" x2="-6.99687" y2="60.1016" gradientUnits="userSpaceOnUse">
<stop stop-color="#0059E9" stop-opacity="0.25"/>
<stop offset="1" stop-color="#0059E9" stop-opacity="0.1"/>
</linearGradient>
<linearGradient id="paint1_linear_8235_101878" x1="97.0498" y1="94.1438" x2="63.3978" y2="90.6101" gradientUnits="userSpaceOnUse">
<stop stop-color="#0059E9" stop-opacity="0.25"/>
<stop offset="1" stop-color="#0059E9" stop-opacity="0.1"/>
</linearGradient>
</defs>
</svg>
