<svg width="479" height="860" viewBox="0 0 479 860" fill="none" xmlns="http://www.w3.org/2000/svg">
<g filter="url(#filter0_d_4625_52030)">
<rect x="7" y="7" width="322" height="437" rx="20" fill="white"/>
<rect x="27" y="27" width="282" height="179" rx="16" fill="url(#paint0_linear_4625_52030)"/>
<rect x="27" y="228" width="256" height="23" rx="11.5" fill="#E1E2E6"/>
<rect x="27" y="257" width="146" height="23" rx="11.5" fill="#E1E2E6"/>
<rect x="27" y="309" width="282" height="5" rx="2.5" fill="#E1E2E6"/>
<rect x="27" y="326" width="282" height="5" rx="2.5" fill="#E1E2E6"/>
<rect x="27" y="343" width="199" height="5" rx="2.5" fill="#E1E2E6"/>
<rect x="27" y="377" width="155" height="47" rx="16" fill="#E1E2E6"/>
</g>
<circle cx="442" cy="472" r="28" fill="url(#paint1_linear_4625_52030)"/>
<g filter="url(#filter1_d_4625_52030)">
<rect x="148" y="520" width="322" height="125" rx="20" fill="white"/>
<g clip-path="url(#clip0_4625_52030)">
<rect x="168" y="540" width="282" height="5" rx="2.5" fill="#E1E2E6"/>
<rect x="168" y="557" width="282" height="5" rx="2.5" fill="#E1E2E6"/>
<rect x="168" y="574" width="199" height="5" rx="2.5" fill="#E1E2E6"/>
</g>
<g clip-path="url(#clip1_4625_52030)">
<rect x="168" y="603" width="282" height="5" rx="2.5" fill="#E1E2E6"/>
<rect x="168" y="620" width="199" height="5" rx="2.5" fill="#E1E2E6"/>
</g>
</g>
<g filter="url(#filter2_d_4625_52030)">
<rect x="148" y="669" width="322" height="114" rx="20" fill="white"/>
<rect x="168" y="706" width="10" height="40" rx="5" fill="#E2ECFF"/>
<rect x="184" y="695" width="10" height="62" rx="5" fill="#E2ECFF"/>
<rect x="200" y="701" width="10" height="50" rx="5" fill="#E2ECFF"/>
<rect x="216" y="701" width="10" height="50" rx="5" fill="#E2ECFF"/>
<rect x="232" y="695" width="10" height="62" rx="5" fill="#E2ECFF"/>
<rect x="248" y="705.5" width="10" height="41" rx="5" fill="#E2ECFF"/>
<rect x="264" y="709.5" width="10" height="33" rx="5" fill="#E2ECFF"/>
<rect x="280" y="694" width="10" height="64" rx="5" fill="#E2ECFF"/>
<rect x="296" y="718.5" width="10" height="15" rx="5" fill="#E2ECFF"/>
<rect x="312" y="705.5" width="10" height="41" rx="5" fill="#E2ECFF"/>
<rect x="328" y="692.5" width="10" height="67" rx="5" fill="#E2ECFF"/>
<rect x="344" y="701" width="10" height="50" rx="5" fill="#E2ECFF"/>
<rect x="360" y="710.5" width="10" height="31" rx="5" fill="#E2ECFF"/>
<rect x="376" y="699.5" width="10" height="53" rx="5" fill="#E2ECFF"/>
<rect x="392" y="714.5" width="10" height="23" rx="5" fill="#E2ECFF"/>
<rect x="408" y="689" width="10" height="74" rx="5" fill="#E2ECFF"/>
<rect x="424" y="701" width="10" height="50" rx="5" fill="#E2ECFF"/>
<rect x="440" y="701" width="10" height="50" rx="5" fill="#E2ECFF"/>
</g>
<defs>
<filter id="filter0_d_4625_52030" x="0" y="0" width="338" height="453" filterUnits="userSpaceOnUse" color-interpolation-filters="sRGB">
<feFlood flood-opacity="0" result="BackgroundImageFix"/>
<feColorMatrix in="SourceAlpha" type="matrix" values="0 0 0 0 0 0 0 0 0 0 0 0 0 0 0 0 0 0 127 0" result="hardAlpha"/>
<feMorphology radius="4" operator="dilate" in="SourceAlpha" result="effect1_dropShadow_4625_52030"/>
<feOffset dx="1" dy="1"/>
<feGaussianBlur stdDeviation="2"/>
<feComposite in2="hardAlpha" operator="out"/>
<feColorMatrix type="matrix" values="0 0 0 0 0 0 0 0 0 0 0 0 0 0 0 0 0 0 0.05 0"/>
<feBlend mode="normal" in2="BackgroundImageFix" result="effect1_dropShadow_4625_52030"/>
<feBlend mode="normal" in="SourceGraphic" in2="effect1_dropShadow_4625_52030" result="shape"/>
</filter>
<filter id="filter1_d_4625_52030" x="141" y="513" width="338" height="141" filterUnits="userSpaceOnUse" color-interpolation-filters="sRGB">
<feFlood flood-opacity="0" result="BackgroundImageFix"/>
<feColorMatrix in="SourceAlpha" type="matrix" values="0 0 0 0 0 0 0 0 0 0 0 0 0 0 0 0 0 0 127 0" result="hardAlpha"/>
<feMorphology radius="4" operator="dilate" in="SourceAlpha" result="effect1_dropShadow_4625_52030"/>
<feOffset dx="1" dy="1"/>
<feGaussianBlur stdDeviation="2"/>
<feComposite in2="hardAlpha" operator="out"/>
<feColorMatrix type="matrix" values="0 0 0 0 0 0 0 0 0 0 0 0 0 0 0 0 0 0 0.05 0"/>
<feBlend mode="normal" in2="BackgroundImageFix" result="effect1_dropShadow_4625_52030"/>
<feBlend mode="normal" in="SourceGraphic" in2="effect1_dropShadow_4625_52030" result="shape"/>
</filter>
<filter id="filter2_d_4625_52030" x="141" y="662" width="338" height="130" filterUnits="userSpaceOnUse" color-interpolation-filters="sRGB">
<feFlood flood-opacity="0" result="BackgroundImageFix"/>
<feColorMatrix in="SourceAlpha" type="matrix" values="0 0 0 0 0 0 0 0 0 0 0 0 0 0 0 0 0 0 127 0" result="hardAlpha"/>
<feMorphology radius="4" operator="dilate" in="SourceAlpha" result="effect1_dropShadow_4625_52030"/>
<feOffset dx="1" dy="1"/>
<feGaussianBlur stdDeviation="2"/>
<feComposite in2="hardAlpha" operator="out"/>
<feColorMatrix type="matrix" values="0 0 0 0 0 0 0 0 0 0 0 0 0 0 0 0 0 0 0.05 0"/>
<feBlend mode="normal" in2="BackgroundImageFix" result="effect1_dropShadow_4625_52030"/>
<feBlend mode="normal" in="SourceGraphic" in2="effect1_dropShadow_4625_52030" result="shape"/>
</filter>
<linearGradient id="paint0_linear_4625_52030" x1="328.648" y1="171.095" x2="-3.36839" y2="114.886" gradientUnits="userSpaceOnUse">
<stop stop-color="#0059E9" stop-opacity="0.25"/>
<stop offset="1" stop-color="#0059E9" stop-opacity="0.1"/>
</linearGradient>
<linearGradient id="paint1_linear_4625_52030" x1="473.902" y1="489.08" x2="406.854" y2="481.875" gradientUnits="userSpaceOnUse">
<stop stop-color="#0059E9" stop-opacity="0.25"/>
<stop offset="1" stop-color="#0059E9" stop-opacity="0.1"/>
</linearGradient>
<clipPath id="clip0_4625_52030">
<rect width="282" height="39" fill="white" transform="translate(168 540)"/>
</clipPath>
<clipPath id="clip1_4625_52030">
<rect width="282" height="22" fill="white" transform="translate(168 603)"/>
</clipPath>
</defs>
</svg>
