<svg width="24" height="24" viewBox="0 0 24 24" fill="none" xmlns="http://www.w3.org/2000/svg">
<path d="M5.125 2C4.2962 2 3.50134 2.32924 2.91529 2.91529C2.32924 3.50134 2 4.2962 2 5.125V16.375C2 17.2038 2.32924 17.9987 2.91529 18.5847C3.50134 19.1708 4.2962 19.5 5.125 19.5H7.04375C7.01438 19.293 6.99976 19.0841 7 18.875V13.875C7 12.7147 7.46094 11.6019 8.28141 10.7814C9.10188 9.96094 10.2147 9.5 11.375 9.5H18.875C19.0875 9.5 19.2962 9.515 19.5 9.54375V5.125C19.5 4.2962 19.1708 3.50134 18.5847 2.91529C17.9987 2.32924 17.2038 2 16.375 2H5.125ZM5.75 5.125C5.75 4.95924 5.81585 4.80027 5.93306 4.68306C6.05027 4.56585 6.20924 4.5 6.375 4.5H15.125C15.2908 4.5 15.4497 4.56585 15.5669 4.68306C15.6842 4.80027 15.75 4.95924 15.75 5.125C15.75 5.29076 15.6842 5.44973 15.5669 5.56694C15.4497 5.68415 15.2908 5.75 15.125 5.75H6.375C6.20924 5.75 6.05027 5.68415 5.93306 5.56694C5.81585 5.44973 5.75 5.29076 5.75 5.125ZM8.25 7.625C8.25 7.45924 8.31585 7.30027 8.43306 7.18306C8.55027 7.06585 8.70924 7 8.875 7H15.125C15.2908 7 15.4497 7.06585 15.5669 7.18306C15.6842 7.30027 15.75 7.45924 15.75 7.625C15.75 7.79076 15.6842 7.94973 15.5669 8.06694C15.4497 8.18415 15.2908 8.25 15.125 8.25H8.875C8.70924 8.25 8.55027 8.18415 8.43306 8.06694C8.31585 7.94973 8.25 7.79076 8.25 7.625ZM15.125 16.6225L8.4925 12.6663C8.7307 12.0984 9.13137 11.6135 9.64421 11.2726C10.157 10.9317 10.7592 10.7499 11.375 10.75H18.875C19.4908 10.7499 20.093 10.9317 20.6058 11.2726C21.1186 11.6135 21.5193 12.0984 21.7575 12.6663L15.125 16.6225ZM15.445 17.8862L22 13.9775V18.875C22 19.7038 21.6708 20.4987 21.0847 21.0847C20.4987 21.6708 19.7038 22 18.875 22H11.375C10.5462 22 9.75134 21.6708 9.16529 21.0847C8.57924 20.4987 8.25 19.7038 8.25 18.875V13.9775L14.805 17.8862C14.9018 17.9439 15.0123 17.9744 15.125 17.9744C15.2377 17.9744 15.3482 17.9439 15.445 17.8862Z" fill="#4466F5"/>
</svg>
