<svg width="24" height="24" viewBox="0 0 24 24" fill="none" xmlns="http://www.w3.org/2000/svg">
<path fill-rule="evenodd" clip-rule="evenodd" d="M9.96505 2.30722C9.76586 2.15361 9.53402 2.05378 9.2898 2.01647C9.04558 1.97915 8.79641 2.00548 8.56406 2.09315C7.47769 2.51283 6.4687 3.12833 5.5821 3.9122C5.39425 4.08039 5.24829 4.29449 5.15696 4.53584C5.06562 4.77718 5.03168 5.03843 5.05811 5.29679C5.13311 6.09085 5.00011 6.85748 4.63811 7.51762C4.27712 8.1788 3.71312 8.68392 3.02313 9.01187C2.79748 9.11728 2.59975 9.27936 2.44722 9.48396C2.29469 9.68856 2.192 9.92944 2.14814 10.1856C1.95062 11.3858 1.95062 12.6129 2.14814 13.8131C2.24114 14.3794 2.60814 14.7896 3.02313 14.9879C3.71312 15.3148 4.27712 15.8209 4.63911 16.4811C5.00011 17.1422 5.13311 17.9078 5.05811 18.7019C5.01311 19.1785 5.1651 19.7184 5.5821 20.0865C6.46869 20.8704 7.47768 21.4859 8.56406 21.9055C8.79626 21.9931 9.04525 22.0194 9.2893 21.9821C9.53334 21.9447 9.76501 21.845 9.96405 21.6914C10.579 21.2253 11.276 20.9628 12 20.9628C12.724 20.9628 13.42 21.2253 14.035 21.6914C14.405 21.972 14.925 22.1027 15.436 21.9055C16.5224 21.4858 17.5313 20.8703 18.4179 20.0865C18.8349 19.7184 18.9879 19.1796 18.9419 18.7019C18.8669 17.9078 18.9989 17.1412 19.3619 16.4811C19.7229 15.8199 20.2869 15.3158 20.9769 14.9879C21.3909 14.7896 21.7589 14.3794 21.8519 13.8131C22.0494 12.6129 22.0494 11.3858 21.8519 10.1856C21.808 9.92944 21.7054 9.68856 21.5528 9.48396C21.4003 9.27936 21.2026 9.11728 20.9769 9.01187C20.2869 8.68392 19.7229 8.1788 19.3609 7.51762C18.9989 6.85748 18.8669 6.09085 18.9419 5.29679C18.9683 5.03844 18.9343 4.77722 18.843 4.53589C18.7516 4.29456 18.6057 4.08044 18.4179 3.9122C17.5313 3.12833 16.5224 2.51283 15.436 2.09315C15.2038 2.00566 14.9548 1.97943 14.7108 2.01674C14.4667 2.05406 14.2351 2.15379 14.036 2.30722C13.42 2.77227 12.723 3.0359 12 3.0359C11.277 3.0359 10.58 2.77332 9.96505 2.30722ZM9.00006 11.9993C9.00006 11.1603 9.31612 10.3556 9.87873 9.76235C10.4413 9.16907 11.2044 8.83577 12 8.83577C12.7957 8.83577 13.5587 9.16907 14.1213 9.76235C14.6839 10.3556 15 11.1603 15 11.9993C15 12.8384 14.6839 13.643 14.1213 14.2363C13.5587 14.8296 12.7957 15.1629 12 15.1629C11.2044 15.1629 10.4413 14.8296 9.87873 14.2363C9.31612 13.643 9.00006 12.8384 9.00006 11.9993Z" fill="#4466F5"/>
</svg>
