<svg width="64" height="64" viewBox="0 0 64 64" fill="none" xmlns="http://www.w3.org/2000/svg">
<path fill-rule="evenodd" clip-rule="evenodd" d="M54.4037 36.213C55.3575 36.7197 56.0933 37.5197 56.6111 38.3197C57.6194 39.973 57.5377 41.9997 56.5566 43.7863L54.6489 46.9863C53.6406 48.693 51.7602 49.7597 49.8253 49.7597C48.8715 49.7597 47.8086 49.493 46.9366 48.9597C46.228 48.5063 45.4104 48.3463 44.5384 48.3463C41.8404 48.3463 39.5785 50.5597 39.4967 53.1997C39.4967 56.2663 36.9895 58.6663 33.8555 58.6663H30.1492C26.9879 58.6663 24.4807 56.2663 24.4807 53.1997C24.4262 50.5597 22.1643 48.3463 19.4663 48.3463C18.567 48.3463 17.7494 48.5063 17.0681 48.9597C16.1961 49.493 15.106 49.7597 14.1794 49.7597C12.2172 49.7597 10.3368 48.693 9.32852 46.9863L7.44812 43.7863C6.43978 42.053 6.38528 39.973 7.39361 38.3197C7.82965 37.5197 8.64721 36.7197 9.57379 36.213C10.3368 35.8397 10.8274 35.2263 11.2907 34.5063C12.6533 32.213 11.8357 29.1997 9.51928 27.8397C6.82131 26.3197 5.94924 22.933 7.50262 20.293L9.32852 17.1463C10.9091 14.5063 14.2884 13.573 17.0136 15.1197C19.3846 16.3997 22.4641 15.5463 23.8539 13.2797C24.29 12.533 24.5352 11.733 24.4807 10.933C24.4262 9.89301 24.726 8.90634 25.2438 8.10634C26.2521 6.45301 28.078 5.38634 30.0674 5.33301H33.91C35.9267 5.33301 37.7526 6.45301 38.7609 8.10634C39.2514 8.90634 39.5785 9.89301 39.4967 10.933C39.4422 11.733 39.6875 12.533 40.1235 13.2797C41.5134 15.5463 44.5929 16.3997 46.9911 15.1197C49.689 13.573 53.0955 14.5063 54.6489 17.1463L56.4748 20.293C58.0554 22.933 57.1834 26.3197 54.4582 27.8397C52.1417 29.1997 51.3242 32.213 52.714 34.5063C53.1501 35.2263 53.6406 35.8397 54.4037 36.213ZM24.2891 32.0266C24.2891 36.2133 27.7501 39.5466 32.0287 39.5466C36.3073 39.5466 39.6866 36.2133 39.6866 32.0266C39.6866 27.84 36.3073 24.48 32.0287 24.48C27.7501 24.48 24.2891 27.84 24.2891 32.0266Z" fill="#4466F5"/>
</svg>
