<svg width="24" height="24" viewBox="0 0 24 24" fill="none" xmlns="http://www.w3.org/2000/svg">
<path d="M8.07143 12C9.11335 12 10.1126 11.5786 10.8493 10.8284C11.5861 10.0783 12 9.06087 12 8C12 6.93913 11.5861 5.92172 10.8493 5.17157C10.1126 4.42143 9.11335 4 8.07143 4C7.02951 4 6.03026 4.42143 5.29351 5.17157C4.55676 5.92172 4.14286 6.93913 4.14286 8C4.14286 9.06087 4.55676 10.0783 5.29351 10.8284C6.03026 11.5786 7.02951 12 8.07143 12ZM17 12C17.7578 12 18.4845 11.6935 19.0203 11.1479C19.5561 10.6024 19.8571 9.86245 19.8571 9.09091C19.8571 8.31937 19.5561 7.57943 19.0203 7.03387C18.4845 6.48831 17.7578 6.18182 17 6.18182C16.2422 6.18182 15.5155 6.48831 14.9797 7.03387C14.4439 7.57943 14.1429 8.31937 14.1429 9.09091C14.1429 9.86245 14.4439 10.6024 14.9797 11.1479C15.5155 11.6935 16.2422 12 17 12ZM4.14286 13.4545C3.57454 13.4545 3.02949 13.6844 2.62763 14.0936C2.22576 14.5028 2 15.0577 2 15.6364V15.7455C2 15.7455 2 20 8.07143 20C14.1429 20 14.1429 15.7455 14.1429 15.7455V15.6364C14.1429 15.0577 13.9171 14.5028 13.5152 14.0936C13.1134 13.6844 12.5683 13.4545 12 13.4545H4.14286ZM17 18.5455C15.96 18.5455 15.1371 18.4015 14.485 18.1724C14.7936 17.6633 14.9707 17.1724 15.0707 16.776C15.1436 16.4912 15.1898 16.1999 15.2086 15.9062C15.21 15.8771 15.2114 15.8509 15.2114 15.8284L15.2121 15.7978V15.6364C15.2134 14.8312 14.9221 14.0541 14.3943 13.4545H20.2807C20.5065 13.4545 20.73 13.4996 20.9386 13.5875C21.1472 13.6754 21.3367 13.8043 21.4964 13.9668C21.656 14.1293 21.7827 14.3222 21.8691 14.5346C21.9555 14.7469 22 14.9745 22 15.2044C22 15.2044 22 18.5455 17 18.5455Z" fill="#4466F5"/>
</svg>
