<svg width="94" height="94" viewBox="0 0 94 94" fill="none" xmlns="http://www.w3.org/2000/svg">
<path d="M47.25 45.4877C53.0374 45.4877 58.5878 43.3022 62.6801 39.4119C66.7724 35.5217 69.0714 30.2454 69.0714 24.7438C69.0714 19.2422 66.7724 13.9659 62.6801 10.0757C58.5878 6.1855 53.0374 4 47.25 4C41.4626 4 35.9122 6.1855 31.8199 10.0757C27.7276 13.9659 25.4286 19.2422 25.4286 24.7438C25.4286 30.2454 27.7276 35.5217 31.8199 39.4119C35.9122 43.3022 41.4626 45.4877 47.25 45.4877ZM12 64.6358C12 61.2502 13.4148 58.0033 15.9331 55.6093C18.4515 53.2153 21.8671 51.8704 25.4286 51.8704H69.0714C72.6329 51.8704 76.0485 53.2153 78.5669 55.6093C81.0852 58.0033 82.5 61.2502 82.5 64.6358C82.5 64.6358 82.5 90.1667 47.25 90.1667C12 90.1667 12 64.6358 12 64.6358Z" fill="#4466F5"/>
</svg>
