<svg width="316" height="316" viewBox="0 0 316 316" fill="none" xmlns="http://www.w3.org/2000/svg">
<path d="M93.1045 144.833C106.823 144.833 119.98 139.285 129.68 129.408C139.381 119.531 144.831 106.135 144.831 92.1667C144.831 78.1986 139.381 64.8026 129.68 54.9257C119.98 45.0488 106.823 39.5 93.1045 39.5C79.3859 39.5 66.2291 45.0488 56.5286 54.9257C46.8281 64.8026 41.3783 78.1986 41.3783 92.1667C41.3783 106.135 46.8281 119.531 56.5286 129.408C66.2291 139.285 79.3859 144.833 93.1045 144.833ZM210.664 144.833C220.641 144.833 230.21 140.798 237.265 133.615C244.32 126.431 248.283 116.689 248.283 106.53C248.283 96.3717 244.32 86.6292 237.265 79.446C230.21 72.2628 220.641 68.2273 210.664 68.2273C200.687 68.2273 191.118 72.2628 184.063 79.446C177.008 86.6292 173.045 96.3717 173.045 106.53C173.045 116.689 177.008 126.431 184.063 133.615C191.118 140.798 200.687 144.833 210.664 144.833ZM41.3783 163.985C33.8955 163.985 26.719 167.011 21.4278 172.399C16.1366 177.786 13.1641 185.093 13.1641 192.712V194.148C13.1641 194.148 13.1641 250.167 93.1045 250.167C173.045 250.167 173.045 194.148 173.045 194.148V192.712C173.045 185.093 170.072 177.786 164.781 172.399C159.49 167.011 152.314 163.985 144.831 163.985H41.3783ZM210.664 231.015C196.971 231.015 186.136 229.119 177.55 226.103C181.613 219.4 183.945 212.936 185.262 207.717C186.222 203.967 186.829 200.132 187.077 196.265C187.096 195.882 187.115 195.537 187.115 195.24L187.124 194.838V192.712C187.14 182.111 183.305 171.879 176.355 163.985H253.86C256.832 163.984 259.776 164.579 262.522 165.736C265.269 166.893 267.764 168.59 269.867 170.73C271.969 172.869 273.636 175.409 274.774 178.205C275.912 181.001 276.497 183.998 276.497 187.024C276.497 187.024 276.497 231.015 210.664 231.015Z" fill="url(#paint0_linear_5737_49976)"/>
<path d="M286.228 191.154L234.812 257.645C232.452 260.665 228.975 262.363 225.249 262.426L204.757 262.678C203.639 262.678 202.707 261.923 202.459 260.853L197.802 240.661C196.994 236.949 197.802 233.112 200.161 230.155L239.096 179.378L251.578 163.601C256.918 156.744 266.233 156.115 273.747 162.091L282.378 168.948C285.918 171.716 288.278 175.364 289.085 179.202C290.016 183.423 289.023 187.568 286.228 191.154Z" fill="white"/>
<path d="M299.392 204.32L247.976 270.811C245.616 273.831 242.139 275.529 238.413 275.592L217.921 275.844C216.803 275.844 215.871 275.089 215.623 274.019L210.966 253.827C210.159 250.115 210.966 246.278 213.325 243.321L252.261 192.544L264.742 176.767C270.082 169.91 279.397 169.281 286.911 175.257L295.542 182.114C299.082 184.882 301.442 188.53 302.249 192.368C303.18 196.589 302.187 200.734 299.392 204.32Z" fill="url(#paint1_linear_5737_49976)"/>
<defs>
<linearGradient id="paint0_linear_5737_49976" x1="294.844" y1="209.087" x2="-18.4277" y2="167.006" gradientUnits="userSpaceOnUse">
<stop stop-color="#0059E9" stop-opacity="0.25"/>
<stop offset="1" stop-color="#0059E9" stop-opacity="0.1"/>
</linearGradient>
<linearGradient id="paint1_linear_5737_49976" x1="308.995" y1="255.431" x2="198.645" y2="245.017" gradientUnits="userSpaceOnUse">
<stop stop-color="#0059E9" stop-opacity="0.25"/>
<stop offset="1" stop-color="#0059E9" stop-opacity="0.1"/>
</linearGradient>
</defs>
</svg>
