<svg width="120" height="120" viewBox="0 0 120 120" fill="none" xmlns="http://www.w3.org/2000/svg">
<path d="M35.3571 52.5C40.5668 52.5 45.563 50.3929 49.2467 46.6421C52.9305 42.8914 55 37.8043 55 32.5C55 27.1957 52.9305 22.1086 49.2467 18.3579C45.563 14.6071 40.5668 12.5 35.3571 12.5C30.1475 12.5 25.1513 14.6071 21.4675 18.3579C17.7838 22.1086 15.7143 27.1957 15.7143 32.5C15.7143 37.8043 17.7838 42.8914 21.4675 46.6421C25.1513 50.3929 30.1475 52.5 35.3571 52.5ZM80 52.5C83.7888 52.5 87.4224 50.9675 90.1015 48.2397C92.7806 45.5119 94.2857 41.8122 94.2857 37.9545C94.2857 34.0969 92.7806 30.3972 90.1015 27.6694C87.4224 24.9416 83.7888 23.4091 80 23.4091C76.2112 23.4091 72.5776 24.9416 69.8985 27.6694C67.2194 30.3972 65.7143 34.0969 65.7143 37.9545C65.7143 41.8122 67.2194 45.5119 69.8985 48.2397C72.5776 50.9675 76.2112 52.5 80 52.5ZM15.7143 59.7727C12.8727 59.7727 10.1475 60.9221 8.13814 62.9679C6.12882 65.0138 5 67.7885 5 70.6818V71.2273C5 71.2273 5 92.5 35.3571 92.5C65.7143 92.5 65.7143 71.2273 65.7143 71.2273V70.6818C65.7143 67.7885 64.5855 65.0138 62.5761 62.9679C60.5668 60.9221 57.8416 59.7727 55 59.7727H15.7143ZM80 85.2273C74.8 85.2273 70.6857 84.5073 67.425 83.3618C68.9679 80.8164 69.8536 78.3618 70.3536 76.38C70.7181 74.9558 70.9489 73.4996 71.0429 72.0309C71.05 71.8855 71.0571 71.7545 71.0571 71.6418L71.0607 71.4891V70.6818C71.067 66.6562 69.6104 62.7704 66.9714 59.7727H96.4036C97.5323 59.7723 98.6501 59.9982 99.693 60.4377C100.736 60.8771 101.684 61.5215 102.482 62.334C103.28 63.1465 103.914 64.1111 104.346 65.1728C104.778 66.2346 105 67.3726 105 68.5218C105 68.5218 105 85.2273 80 85.2273Z" fill="url(#paint0_linear_5737_50197)"/>
<circle cx="95" cy="87.5" r="20" fill="white"/>
<path fill-rule="evenodd" clip-rule="evenodd" d="M97.5915 76.25C97.5915 74.1789 95.9125 72.5 93.8414 72.5C91.7703 72.5 90.0914 74.1789 90.0914 76.25V82.9998H83.7501C81.679 82.9998 80 84.6787 80 86.7498C80 88.8209 81.679 90.4998 83.7501 90.4998H90.0914V97.5C90.0914 99.5711 91.7703 101.25 93.8414 101.25C95.9125 101.25 97.5915 99.5711 97.5915 97.5V90.4998H104.342C106.414 90.4998 108.093 88.8209 108.093 86.7498C108.093 84.6787 106.414 82.9998 104.342 82.9998H97.5915V76.25Z" fill="url(#paint1_linear_5737_50197)"/>
<defs>
<linearGradient id="paint0_linear_5737_50197" x1="111.967" y1="76.9" x2="-6.99687" y2="60.9199" gradientUnits="userSpaceOnUse">
<stop stop-color="#0059E9" stop-opacity="0.25"/>
<stop offset="1" stop-color="#0059E9" stop-opacity="0.1"/>
</linearGradient>
<linearGradient id="paint1_linear_5737_50197" x1="110.05" y1="95.6438" x2="76.3978" y2="92.1101" gradientUnits="userSpaceOnUse">
<stop stop-color="#0059E9" stop-opacity="0.25"/>
<stop offset="1" stop-color="#0059E9" stop-opacity="0.1"/>
</linearGradient>
</defs>
</svg>
