<svg width="120" height="120" viewBox="0 0 120 120" fill="none" xmlns="http://www.w3.org/2000/svg">
<path fill-rule="evenodd" clip-rule="evenodd" d="M25 1.25C11.8832 1.25 1.25 11.8832 1.25 25V75C1.25 87.0713 10.2558 97.0393 21.9152 98.5515C25.121 105.319 32.0139 110 40 110H90C101.046 110 110 101.046 110 90V40C110 32.0139 105.319 25.121 98.5515 21.9152C97.0393 10.2558 87.0713 1.25 75 1.25H25ZM90.468 20.0054C88.3607 13.4744 82.2321 8.75 75 8.75H25C16.0254 8.75 8.75 16.0254 8.75 25V75C8.75 82.2321 13.4744 88.3607 20.0054 90.468C20.0018 90.3124 20 90.1564 20 90V40C20 28.9543 28.9543 20 40 20H90C90.1564 20 90.3124 20.0018 90.468 20.0054Z" fill="url(#paint0_linear_7008_140606)"/>
<circle cx="100" cy="100" r="20" fill="white"/>
<path fill-rule="evenodd" clip-rule="evenodd" d="M102.592 88.75C102.592 86.6789 100.913 85 98.8414 85C96.7703 85 95.0914 86.6789 95.0914 88.75V95.4998H88.7501C86.679 95.4998 85 97.1787 85 99.2498C85 101.321 86.679 103 88.7501 103H95.0914V110C95.0914 112.071 96.7703 113.75 98.8414 113.75C100.913 113.75 102.592 112.071 102.592 110V103H109.342C111.414 103 113.093 101.321 113.093 99.2498C113.093 97.1787 111.414 95.4998 109.342 95.4998H102.592V88.75Z" fill="url(#paint1_linear_7008_140606)"/>
<defs>
<linearGradient id="paint0_linear_7008_140606" x1="117.577" y1="88.7938" x2="-12.6274" y2="74.8018" gradientUnits="userSpaceOnUse">
<stop stop-color="#0059E9" stop-opacity="0.25"/>
<stop offset="1" stop-color="#0059E9" stop-opacity="0.1"/>
</linearGradient>
<linearGradient id="paint1_linear_7008_140606" x1="115.05" y1="108.144" x2="81.3978" y2="104.61" gradientUnits="userSpaceOnUse">
<stop stop-color="#0059E9" stop-opacity="0.25"/>
<stop offset="1" stop-color="#0059E9" stop-opacity="0.1"/>
</linearGradient>
</defs>
</svg>
