<svg width="120" height="120" viewBox="0 0 120 120" fill="none" xmlns="http://www.w3.org/2000/svg">
<rect x="19.0117" y="18.1816" width="83.7624" height="85.4545" rx="10" fill="url(#paint0_linear_5791_50550)"/>
<path d="M88.4147 18.1808V14.748C88.4147 9.2252 83.9376 4.74805 78.4147 4.74805H14.6523C9.1295 4.74805 4.65234 9.22519 4.65234 14.748V80.2716C4.65234 85.7674 9.08739 90.2333 14.5831 90.2714L19.0072 90.302" stroke="url(#paint1_linear_5791_50550)" stroke-width="6"/>
<ellipse cx="90.2975" cy="89.6975" rx="23.7624" ry="24.2424" fill="white"/>
<path d="M91.4449 71.5156C88.4761 71.5172 85.5491 72.2292 82.8991 73.5944C80.2491 74.9595 77.9501 76.9397 76.1868 79.3758C74.4235 81.812 73.2451 84.6361 72.7463 87.6211C72.2476 90.6062 72.4423 93.669 73.315 96.5633C74.1876 99.4577 75.7138 102.103 77.7708 104.286C79.8279 106.47 82.3584 108.13 85.1591 109.135C87.9598 110.139 90.9524 110.46 93.8965 110.07C96.8406 109.681 99.6541 108.592 102.111 106.892L113.839 118.845C114.165 119.202 114.558 119.488 114.995 119.686C115.431 119.885 115.902 119.991 116.38 120C116.858 120.009 117.332 119.919 117.776 119.736C118.219 119.554 118.621 119.282 118.959 118.937C119.297 118.593 119.563 118.182 119.742 117.73C119.921 117.278 120.009 116.794 120.001 116.307C119.992 115.82 119.888 115.339 119.693 114.894C119.499 114.448 119.218 114.048 118.869 113.715L107.15 101.752C109.088 98.8419 110.213 95.4474 110.402 91.9338C110.591 88.4203 109.837 84.9207 108.222 81.8113C106.607 78.7019 104.192 76.1003 101.236 74.2863C98.2797 72.4722 94.8947 71.5143 91.4449 71.5156ZM79.5833 90.8734C79.5833 87.6646 80.833 84.5873 83.0575 82.3184C85.282 80.0494 88.299 78.7748 91.4449 78.7748C94.5907 78.7748 97.6078 80.0494 99.8322 82.3184C102.057 84.5873 103.306 87.6646 103.306 90.8734C103.306 94.0821 102.057 97.1594 99.8322 99.4283C97.6078 101.697 94.5907 102.972 91.4449 102.972C88.299 102.972 85.282 101.697 83.0575 99.4283C80.833 97.1594 79.5833 94.0821 79.5833 90.8734Z" fill="url(#paint2_linear_5791_50550)"/>
<defs>
<linearGradient id="paint0_linear_5791_50550" x1="108.61" y1="86.9726" x2="8.27805" y2="76.4042" gradientUnits="userSpaceOnUse">
<stop stop-color="#0059E9" stop-opacity="0.25"/>
<stop offset="1" stop-color="#0059E9" stop-opacity="0.1"/>
</linearGradient>
<linearGradient id="paint1_linear_5791_50550" x1="94.2506" y1="73.619" x2="-6.08388" y2="63.0627" gradientUnits="userSpaceOnUse">
<stop stop-color="#0059E9" stop-opacity="0.25"/>
<stop offset="1" stop-color="#0059E9" stop-opacity="0.1"/>
</linearGradient>
<linearGradient id="paint2_linear_5791_50550" x1="123.312" y1="110.546" x2="66.3865" y2="104.55" gradientUnits="userSpaceOnUse">
<stop stop-color="#0059E9" stop-opacity="0.25"/>
<stop offset="1" stop-color="#0059E9" stop-opacity="0.1"/>
</linearGradient>
</defs>
</svg>
