<svg width="110" height="100" viewBox="0 0 110 100" fill="none" xmlns="http://www.w3.org/2000/svg">
<path d="M30.3571 40C35.5668 40 40.563 37.8929 44.2467 34.1421C47.9305 30.3914 50 25.3043 50 20C50 14.6957 47.9305 9.60859 44.2467 5.85786C40.563 2.10714 35.5668 0 30.3571 0C25.1475 0 20.1513 2.10714 16.4675 5.85786C12.7838 9.60859 10.7143 14.6957 10.7143 20C10.7143 25.3043 12.7838 30.3914 16.4675 34.1421C20.1513 37.8929 25.1475 40 30.3571 40ZM75 40C78.7888 40 82.4224 38.4675 85.1015 35.7397C87.7806 33.0119 89.2857 29.3122 89.2857 25.4545C89.2857 21.5969 87.7806 17.8972 85.1015 15.1694C82.4224 12.4416 78.7888 10.9091 75 10.9091C71.2112 10.9091 67.5776 12.4416 64.8985 15.1694C62.2194 17.8972 60.7143 21.5969 60.7143 25.4545C60.7143 29.3122 62.2194 33.0119 64.8985 35.7397C67.5776 38.4675 71.2112 40 75 40ZM10.7143 47.2727C7.87268 47.2727 5.14746 48.4221 3.13814 50.4679C1.12882 52.5138 0 55.2885 0 58.1818V58.7273C0 58.7273 0 80 30.3571 80C60.7143 80 60.7143 58.7273 60.7143 58.7273V58.1818C60.7143 55.2885 59.5855 52.5138 57.5761 50.4679C55.5668 48.4221 52.8416 47.2727 50 47.2727H10.7143ZM75 72.7273C69.8 72.7273 65.6857 72.0073 62.425 70.8618C63.9679 68.3164 64.8536 65.8618 65.3536 63.88C65.7181 62.4558 65.9489 60.9996 66.0429 59.5309C66.05 59.3855 66.0571 59.2545 66.0571 59.1418L66.0607 58.9891V58.1818C66.067 54.1562 64.6104 50.2704 61.9714 47.2727H91.4036C92.5323 47.2723 93.6501 47.4982 94.693 47.9377C95.736 48.3771 96.6836 49.0215 97.4819 49.834C98.2802 50.6465 98.9135 51.6111 99.3456 52.6728C99.7776 53.7346 100 54.8726 100 56.0218C100 56.0218 100 72.7273 75 72.7273Z" fill="url(#paint0_linear_9291_42799)"/>
<circle cx="85" cy="75" r="20" fill="white"/>
<path d="M85.965 60C83.4663 60.0013 81.0027 60.5887 78.7723 61.715C76.5419 62.8412 74.6069 64.4749 73.1228 66.4847C71.6387 68.4945 70.6469 70.8244 70.227 73.287C69.8072 75.7497 69.9712 78.2765 70.7056 80.6644C71.4401 83.0522 72.7247 85.2345 74.456 87.0357C76.1874 88.837 78.3172 90.2071 80.6745 91.0359C83.0317 91.8646 85.5505 92.1289 88.0285 91.8075C90.5064 91.4862 92.8744 90.588 94.9421 89.1854L104.814 99.0469C105.088 99.3411 105.419 99.5771 105.786 99.7408C106.153 99.9044 106.55 99.9924 106.952 99.9995C107.354 100.007 107.754 99.9327 108.127 99.7821C108.5 99.6315 108.838 99.4073 109.123 99.123C109.407 98.8386 109.631 98.4999 109.782 98.1271C109.933 97.7542 110.007 97.3548 110 96.9528C109.992 96.5507 109.904 96.1542 109.741 95.7869C109.577 95.4196 109.341 95.089 109.047 94.8149L99.1831 84.9453C100.815 82.5441 101.761 79.7437 101.92 76.845C102.079 73.9464 101.445 71.0592 100.086 68.494C98.7266 65.9287 96.6937 63.7824 94.2056 62.2858C91.7176 60.7892 88.8686 59.9989 85.965 60ZM75.9815 75.9701C75.9815 73.3229 77.0334 70.7841 78.9056 68.9123C80.7779 67.0404 83.3172 65.9888 85.965 65.9888C88.6128 65.9888 91.1521 67.0404 93.0244 68.9123C94.8966 70.7841 95.9484 73.3229 95.9484 75.9701C95.9484 78.6173 94.8966 81.1561 93.0244 83.028C91.1521 84.8998 88.6128 85.9514 85.965 85.9514C83.3172 85.9514 80.7779 84.8998 78.9056 83.028C77.0334 81.1561 75.9815 78.6173 75.9815 75.9701Z" fill="url(#paint1_linear_9291_42799)"/>
<defs>
<linearGradient id="paint0_linear_9291_42799" x1="106.967" y1="64.4" x2="-11.9969" y2="48.4199" gradientUnits="userSpaceOnUse">
<stop stop-color="#0059E9" stop-opacity="0.25"/>
<stop offset="1" stop-color="#0059E9" stop-opacity="0.1"/>
</linearGradient>
<linearGradient id="paint1_linear_9291_42799" x1="112.787" y1="92.2" x2="64.8957" y2="87.0535" gradientUnits="userSpaceOnUse">
<stop stop-color="#0059E9" stop-opacity="0.25"/>
<stop offset="1" stop-color="#0059E9" stop-opacity="0.1"/>
</linearGradient>
</defs>
</svg>
