<svg width="24" height="24" viewBox="0 0 24 24" fill="none" xmlns="http://www.w3.org/2000/svg">
<path fill-rule="evenodd" clip-rule="evenodd" d="M13.4505 3H16.5205C20.2105 3 22.0105 4.95619 22.0005 8.96787V13.8037C22.0005 17.6367 19.6205 20 15.7505 20H8.24047C4.39047 20 2.00047 17.6367 2.00047 13.7938L2.00004 8.96787C1.99004 4.95619 3.79004 3 7.48004 3H13.4505ZM16.6301 7.78674H7.37012C6.95012 7.78674 6.62012 7.44912 6.62012 7.042C6.62012 6.62494 6.95012 6.29725 7.37012 6.29725H16.6301C17.0401 6.29725 17.3701 6.62494 17.3701 7.042C17.3701 7.44912 17.0401 7.78674 16.6301 7.78674ZM7.22606 12.6018C7.22613 12.277 7.31913 12.0468 7.43991 11.9087C7.54853 11.7845 7.7331 11.6716 8.07276 11.6716C8.41242 11.6716 8.5969 11.7845 8.70541 11.9086C8.82607 12.0466 8.91899 12.2767 8.91892 12.6014L8.91886 13.5316H7.226L7.22606 12.6018ZM10.3689 14.2564V14.2564V14.2566V15.9116C10.3689 16.312 10.0443 16.6366 9.64392 16.6366C9.24351 16.6366 8.91892 16.312 8.91892 15.9116V14.9816H7.22606V15.9116C7.22606 16.312 6.90147 16.6366 6.50106 16.6366C6.10065 16.6366 5.77606 16.312 5.77606 15.9116V14.2567V14.2567V14.2566V14.2566L5.77606 14.2561L5.77606 14.2543L5.77606 14.2472L5.77605 14.2196L5.77603 14.1145L5.77599 13.7395L5.77606 12.6014C5.77619 12.0122 5.94536 11.4149 6.34854 10.954C6.76388 10.4792 7.36506 10.2216 8.07276 10.2216C8.78044 10.2216 9.38164 10.4792 9.79693 10.9541C10.2001 11.4151 10.369 12.0125 10.3689 12.6018L10.3688 13.7393L10.3689 14.1142L10.3689 14.2193L10.3689 14.2469L10.3689 14.254V14.2558V14.2563L10.3689 14.2564ZM12.2633 10.2216H12.2632C12.0709 10.2216 11.8865 10.298 11.7506 10.434C11.6146 10.5699 11.5382 10.7543 11.5382 10.9466L11.5382 13.7779L11.5382 15.9116C11.5382 16.312 11.8628 16.6366 12.2632 16.6366C12.6636 16.6366 12.9882 16.312 12.9882 15.9116V14.5029L13.8347 14.5029C15.3009 14.5029 16.144 13.4133 16.144 12.3458C16.144 11.2572 15.28 10.2216 13.8347 10.2216H12.7421H12.3937H12.2972H12.2719H12.2654H12.2638H12.2634H12.2633ZM13.8347 13.0529L12.9882 13.0529V11.6716H13.8347C14.1854 11.6716 14.3915 11.7867 14.508 11.9028C14.6322 12.0264 14.694 12.1895 14.694 12.3458C14.694 12.5047 14.63 12.6798 14.5002 12.8132C14.38 12.9366 14.1753 13.0529 13.8347 13.0529ZM18.226 10.9466C18.226 10.5462 17.9014 10.2216 17.501 10.2216C17.1006 10.2216 16.776 10.5462 16.776 10.9466V15.9116C16.776 16.312 17.1006 16.6366 17.501 16.6366C17.9014 16.6366 18.226 16.312 18.226 15.9116V10.9466Z" fill="#909090"/>
</svg>
