<svg width="24" height="24" viewBox="0 0 24 24" fill="none" xmlns="http://www.w3.org/2000/svg">
<path fill-rule="evenodd" clip-rule="evenodd" d="M22 7.92V16.09C22 19.62 19.729 22 16.34 22H7.67C4.28 22 2 19.62 2 16.09V7.92C2 4.38 4.28 2 7.67 2H16.34C19.729 2 22 4.38 22 7.92ZM11.2495 11.9891V7.56098L9.78945 9.04098C9.48945 9.33098 9.01945 9.33098 8.71945 9.04098C8.42945 8.75098 8.42945 8.27098 8.71945 7.98098L11.4695 5.21098C11.7495 4.93098 12.2495 4.93098 12.5295 5.21098L15.2795 7.98098C15.5695 8.27098 15.5695 8.75098 15.2795 9.04098C15.1295 9.18098 14.9385 9.26098 14.7495 9.26098C14.5595 9.26098 14.3595 9.18098 14.2195 9.04098L12.7495 7.56098V11.9891H11.2495ZM11.2495 11.9893H12.7495V16.439L14.2195 14.959C14.3595 14.819 14.5595 14.739 14.7495 14.739C14.9385 14.739 15.1295 14.819 15.2795 14.959C15.5695 15.249 15.5695 15.729 15.2795 16.019L12.5295 18.789C12.2495 19.069 11.7495 19.069 11.4695 18.789L8.71945 16.019C8.42945 15.729 8.42945 15.249 8.71945 14.959C9.01945 14.669 9.48945 14.669 9.78945 14.959L11.2495 16.439V11.9893Z" fill="#909090"/>
</svg>
