<svg width="24" height="24" viewBox="0 0 24 24" fill="none" xmlns="http://www.w3.org/2000/svg">
<path d="M14.7828 2.00172C14.6278 2.00787 14.4782 2.03556 14.3224 2.07402L3.78641 4.62149C2.54014 4.92454 1.76044 6.17213 2.06658 7.40971L3.54382 13.3954C3.63334 13.7519 3.80763 14.082 4.05211 14.3579C4.29659 14.6338 4.60413 14.8476 4.94898 14.9814V13.5392C4.94898 11.4186 6.68741 9.69336 8.82421 9.69336H18.5851L17.1319 3.75618C17.0034 3.24009 16.6995 2.78377 16.2714 2.46416C15.8433 2.14456 15.3181 1.98123 14.7828 2.00172ZM15.7268 5.31912L16.3569 7.9389L13.7411 8.56346L13.087 5.96753L15.7268 5.31912ZM8.82421 11.2317C7.54074 11.2317 6.49907 12.2655 6.49907 13.5392V19.6925C6.49907 20.9662 7.54074 22 8.82421 22H19.6749C20.9583 22 22 20.9662 22 19.6925V13.5392C22 12.2655 20.9583 11.2317 19.6749 11.2317H8.82421ZM8.82421 12.4577H19.6749C20.2724 12.4577 20.7646 12.9462 20.7646 13.5392V14.3084H7.7345V13.5392C7.7345 12.9462 8.22665 12.4577 8.82421 12.4577ZM7.7345 16.6158H20.7646V19.6925C20.7646 20.2855 20.2724 20.774 19.6749 20.774H8.82421C8.53571 20.7723 8.25948 20.6579 8.05547 20.4554C7.85146 20.253 7.73613 19.9788 7.7345 19.6925V16.6158Z" fill="#909090"/>
</svg>
