<svg width="24" height="24" viewBox="0 0 24 24" fill="none" xmlns="http://www.w3.org/2000/svg">
<path d="M4.02226 10.7774H10.1558C10.427 10.7774 10.687 10.6697 10.8787 10.4779C11.0704 10.2862 11.1781 10.0262 11.1781 9.7551V3.62152C11.1781 3.35039 11.0704 3.09038 10.8787 2.89867C10.687 2.70695 10.427 2.59925 10.1558 2.59925H4.02226C3.75114 2.59925 3.49113 2.70695 3.29941 2.89867C3.1077 3.09038 3 3.35039 3 3.62152V9.7551C3 10.0262 3.1077 10.2862 3.29941 10.4779C3.49113 10.6697 3.75114 10.7774 4.02226 10.7774ZM4.02226 21H10.1558C10.427 21 10.687 20.8923 10.8787 20.7006C11.0704 20.5089 11.1781 20.2489 11.1781 19.9777V13.8442C11.1781 13.573 11.0704 13.313 10.8787 13.1213C10.687 12.9296 10.427 12.8219 10.1558 12.8219H4.02226C3.75114 12.8219 3.49113 12.9296 3.29941 13.1213C3.1077 13.313 3 13.573 3 13.8442V19.9777C3 20.2489 3.1077 20.5089 3.29941 20.7006C3.49113 20.8923 3.75114 21 4.02226 21ZM14.2449 21H20.3785C20.6496 21 20.9096 20.8923 21.1013 20.7006C21.293 20.5089 21.4007 20.2489 21.4007 19.9777V13.8442C21.4007 13.573 21.293 13.313 21.1013 13.1213C20.9096 12.9296 20.6496 12.8219 20.3785 12.8219H14.2449C13.9738 12.8219 13.7138 12.9296 13.5221 13.1213C13.3303 13.313 13.2226 13.573 13.2226 13.8442V19.9777C13.2226 20.2489 13.3303 20.5089 13.5221 20.7006C13.7138 20.8923 13.9738 21 14.2449 21ZM21.7003 5.96557L18.0344 2.29973C17.9396 2.20471 17.8269 2.12933 17.7029 2.0779C17.5789 2.02647 17.446 2 17.3117 2C17.1774 2 17.0445 2.02647 16.9205 2.0779C16.7965 2.12933 16.6838 2.20471 16.589 2.29973L12.9231 5.96557C12.8281 6.06042 12.7527 6.17308 12.7013 6.29709C12.6499 6.42111 12.6234 6.55405 12.6234 6.68831C12.6234 6.82256 12.6499 6.9555 12.7013 7.07952C12.7527 7.20354 12.8281 7.31619 12.9231 7.41105L16.589 11.0769C16.6838 11.1719 16.7965 11.2473 16.9205 11.2987C17.0445 11.3501 17.1774 11.3766 17.3117 11.3766C17.446 11.3766 17.5789 11.3501 17.7029 11.2987C17.8269 11.2473 17.9396 11.1719 18.0344 11.0769L21.7003 7.41105C21.7953 7.31619 21.8707 7.20354 21.9221 7.07952C21.9735 6.9555 22 6.82256 22 6.68831C22 6.55405 21.9735 6.42111 21.9221 6.29709C21.8707 6.17308 21.7953 6.06042 21.7003 5.96557Z" fill="#909090"/>
</svg>
