<svg width="24" height="24" viewBox="0 0 24 24" fill="none" xmlns="http://www.w3.org/2000/svg">
<path fill-rule="evenodd" clip-rule="evenodd" d="M2.00036 12C2.00036 6.477 6.47736 2 12.0004 2C17.5234 2 22.0004 6.477 22.0004 12C22.0004 17.523 17.5234 22 12.0004 22C10.2704 22.0026 8.56954 21.5546 7.06536 20.7L3.31636 21.949C3.14016 22.0078 2.95109 22.0163 2.77032 21.9736C2.58955 21.931 2.42423 21.8388 2.29289 21.7075C2.16156 21.5761 2.0694 21.4108 2.02673 21.23C1.98407 21.0493 1.9926 20.8602 2.05136 20.684L3.30136 16.935C2.4464 15.4309 1.99801 13.7301 2.00036 12ZM8.00036 7C7.73515 7 7.48079 7.10536 7.29325 7.29289C7.10572 7.48043 7.00036 7.73478 7.00036 8C7.00036 8.26522 7.10572 8.51957 7.29325 8.70711C7.48079 8.89464 7.73515 9 8.00036 9H16.0004C16.2656 9 16.5199 8.89464 16.7075 8.70711C16.895 8.51957 17.0004 8.26522 17.0004 8C17.0004 7.73478 16.895 7.48043 16.7075 7.29289C16.5199 7.10536 16.2656 7 16.0004 7H8.00036ZM8.00036 11C7.73515 11 7.48079 11.1054 7.29325 11.2929C7.10572 11.4804 7.00036 11.7348 7.00036 12C7.00036 12.2652 7.10572 12.5196 7.29325 12.7071C7.48079 12.8946 7.73515 13 8.00036 13H16.0004C16.2656 13 16.5199 12.8946 16.7075 12.7071C16.895 12.5196 17.0004 12.2652 17.0004 12C17.0004 11.7348 16.895 11.4804 16.7075 11.2929C16.5199 11.1054 16.2656 11 16.0004 11H8.00036ZM8.00036 15C7.73515 15 7.48079 15.1054 7.29325 15.2929C7.10572 15.4804 7.00036 15.7348 7.00036 16C7.00036 16.2652 7.10572 16.5196 7.29325 16.7071C7.48079 16.8946 7.73515 17 8.00036 17H11.0004C11.2656 17 11.5199 16.8946 11.7075 16.7071C11.895 16.5196 12.0004 16.2652 12.0004 16C12.0004 15.7348 11.895 15.4804 11.7075 15.2929C11.5199 15.1054 11.2656 15 11.0004 15H8.00036Z" fill="#909090"/>
</svg>
