<svg width="24" height="24" viewBox="0 0 24 24" fill="none" xmlns="http://www.w3.org/2000/svg">
<g clip-path="url(#clip0_2449_2562)">
<path d="M12.0007 1.3335C9.89099 1.3335 7.8287 1.95909 6.07457 3.13115C4.32045 4.30322 2.95328 5.96913 2.14594 7.91821C1.33861 9.86728 1.12737 12.012 1.53895 14.0811C1.95052 16.1503 2.96642 18.0509 4.45818 19.5426C5.94994 21.0344 7.85056 22.0503 9.91969 22.4619C11.9888 22.8734 14.1335 22.6622 16.0826 21.8549C18.0317 21.0475 19.6976 19.6804 20.8697 17.9262C22.0417 16.1721 22.6673 14.1098 22.6673 12.0002C22.6673 9.17119 21.5435 6.45808 19.5431 4.45769C17.5427 2.4573 14.8296 1.3335 12.0007 1.3335ZM12.0007 21.3335C10.1547 21.3335 8.35019 20.7861 6.81533 19.7605C5.28047 18.735 4.0842 17.2773 3.37778 15.5719C2.67136 13.8664 2.48653 11.9898 2.84666 10.1793C3.20679 8.36883 4.0957 6.70579 5.40099 5.4005C6.70628 4.09521 8.36932 3.2063 10.1798 2.84617C11.9903 2.48604 13.8669 2.67087 15.5724 3.37729C17.2778 4.0837 18.7355 5.27998 19.761 6.81484C20.7866 8.3497 21.334 10.1542 21.334 12.0002C21.334 14.4755 20.3507 16.8495 18.6003 18.5998C16.85 20.3502 14.476 21.3335 12.0007 21.3335Z" fill="#909090"/>
<path d="M12.1927 5.94647C11.4702 5.93453 10.7541 6.08186 10.095 6.37797C9.43592 6.67409 8.85017 7.11174 8.37935 7.65981C8.31394 7.72042 8.26135 7.79355 8.22471 7.87485C8.18807 7.95616 8.16811 8.04398 8.16602 8.13314C8.16597 8.21539 8.18247 8.29682 8.21454 8.37257C8.24661 8.44831 8.29358 8.51684 8.35267 8.57406C8.41176 8.63128 8.48175 8.67603 8.55849 8.70565C8.63523 8.73527 8.71714 8.74916 8.79935 8.74647C8.97547 8.74211 9.14387 8.67332 9.27268 8.55314C9.62899 8.13559 10.0715 7.8002 10.5699 7.57003C11.0682 7.33985 11.6104 7.22037 12.1593 7.21981C13.7327 7.21981 14.7127 8.23314 14.7127 9.49314V9.52647C14.7127 10.9998 13.5393 11.8198 11.686 11.9598C11.611 11.9627 11.5374 11.9814 11.4701 12.0147C11.4028 12.048 11.3432 12.0952 11.2954 12.1531C11.2476 12.211 11.2125 12.2783 11.1925 12.3507C11.1725 12.4231 11.168 12.4989 11.1793 12.5731C11.1793 12.5731 11.1793 14.1198 11.1793 14.4065C11.1959 14.5715 11.2734 14.7244 11.3967 14.8353C11.52 14.9463 11.6802 15.0073 11.846 15.0065H11.9193C12.0844 14.9899 12.2373 14.9124 12.3482 14.7891C12.4592 14.6659 12.5202 14.5057 12.5193 14.3398V12.9665C14.5193 12.6865 16.1393 11.6331 16.1393 9.44647V9.41314C16.1193 7.41314 14.5593 5.94647 12.1927 5.94647Z" fill="#909090"/>
<path d="M11.8529 18.3C12.3131 18.3 12.6862 17.9269 12.6862 17.4666C12.6862 17.0064 12.3131 16.6333 11.8529 16.6333C11.3926 16.6333 11.0195 17.0064 11.0195 17.4666C11.0195 17.9269 11.3926 18.3 11.8529 18.3Z" fill="#909090"/>
</g>
<defs>
<clipPath id="clip0_2449_2562">
<rect width="24" height="24" fill="white"/>
</clipPath>
</defs>
</svg>
