<svg width="30" height="31" viewBox="0 0 30 31" fill="none" xmlns="http://www.w3.org/2000/svg">
<circle cx="15" cy="15.5" r="15" fill="#E2ECFF"/>
<g clip-path="url(#clip0_6910_88689)">
<path d="M14.9997 4.83398C12.89 4.83398 10.8277 5.45957 9.0736 6.63164C7.31947 7.80371 5.9523 9.46962 5.14496 11.4187C4.33763 13.3678 4.12639 15.5125 4.53797 17.5816C4.94955 19.6507 5.96545 21.5514 7.45721 23.0431C8.94897 24.5349 10.8496 25.5508 12.9187 25.9624C14.9878 26.3739 17.1326 26.1627 19.0816 25.3554C21.0307 24.548 22.6966 23.1809 23.8687 21.4267C25.0408 19.6726 25.6663 17.6103 25.6663 15.5007C25.6663 12.6717 24.5425 9.95857 22.5422 7.95818C20.5418 5.95779 17.8287 4.83398 14.9997 4.83398ZM14.9997 24.834C13.1537 24.834 11.3492 24.2866 9.81436 23.261C8.2795 22.2355 7.08322 20.7778 6.3768 19.0724C5.67039 17.3669 5.48555 15.4903 5.84568 13.6798C6.20581 11.8693 7.09473 10.2063 8.40002 8.90099C9.70531 7.5957 11.3683 6.70678 13.1788 6.34666C14.9893 5.98653 16.8659 6.17136 18.5714 6.87778C20.2768 7.58419 21.7345 8.78047 22.7601 10.3153C23.7856 11.8502 24.333 13.6547 24.333 15.5007C24.333 17.976 23.3497 20.35 21.5993 22.1003C19.849 23.8507 17.475 24.834 14.9997 24.834Z" fill="#4466F5"/>
<path d="M15.1937 9.44598C14.4712 9.43404 13.755 9.58137 13.096 9.87749C12.4369 10.1736 11.8511 10.6112 11.3803 11.1593C11.3149 11.2199 11.2623 11.2931 11.2257 11.3744C11.189 11.4557 11.1691 11.5435 11.167 11.6327C11.1669 11.7149 11.1835 11.7963 11.2155 11.8721C11.2476 11.9478 11.2946 12.0163 11.3536 12.0736C11.4127 12.1308 11.4827 12.1755 11.5595 12.2052C11.6362 12.2348 11.7181 12.2487 11.8003 12.246C11.9764 12.2416 12.1448 12.1728 12.2737 12.0527C12.63 11.6351 13.0725 11.2997 13.5708 11.0695C14.0691 10.8394 14.6114 10.7199 15.1603 10.7193C16.7337 10.7193 17.7137 11.7327 17.7137 12.9927V13.026C17.7137 14.4993 16.5403 15.3193 14.687 15.4593C14.6119 15.4622 14.5384 15.4809 14.471 15.5142C14.4037 15.5475 14.3442 15.5947 14.2964 15.6526C14.2486 15.7105 14.2135 15.7778 14.1935 15.8502C14.1735 15.9226 14.169 15.9984 14.1803 16.0727C14.1803 16.0727 14.1803 17.6193 14.1803 17.906C14.1969 18.071 14.2744 18.2239 14.3977 18.3349C14.5209 18.4458 14.6811 18.5068 14.847 18.506H14.9203C15.0853 18.4894 15.2383 18.4119 15.3492 18.2886C15.4601 18.1654 15.5212 18.0052 15.5203 17.8393V16.466C17.5203 16.186 19.1403 15.1327 19.1403 12.946V12.9127C19.1203 10.9127 17.5603 9.44598 15.1937 9.44598Z" fill="#4466F5"/>
<path d="M14.8529 21.7995C15.3131 21.7995 15.6862 21.4264 15.6862 20.9661C15.6862 20.5059 15.3131 20.1328 14.8529 20.1328C14.3926 20.1328 14.0195 20.5059 14.0195 20.9661C14.0195 21.4264 14.3926 21.7995 14.8529 21.7995Z" fill="#4466F5"/>
</g>
<defs>
<clipPath id="clip0_6910_88689">
<rect width="24" height="24" fill="white" transform="translate(3 3.5)"/>
</clipPath>
</defs>
</svg>
