<svg width="24" height="24" viewBox="0 0 24 24" fill="none" xmlns="http://www.w3.org/2000/svg">
<path fill-rule="evenodd" clip-rule="evenodd" d="M8.46034 7.28335C9.06534 6.34692 9.95043 5.62531 10.9895 5.2213C12.0286 4.81729 13.1687 4.7515 14.2473 5.0333C15.326 5.3151 16.2882 5.93012 16.9969 6.79073C17.7056 7.65135 18.1247 8.71366 18.1943 9.82635C18.7734 9.80993 19.35 9.90838 19.8908 10.116C20.4315 10.3237 20.9259 10.6364 21.3451 11.0361C21.7644 11.4358 22.1003 11.9146 22.3335 12.4449C22.5667 12.9752 22.6926 13.5464 22.7038 14.1256C22.7151 14.7048 22.6114 15.2804 22.399 15.8193C22.1865 16.3582 21.8694 16.8497 21.4659 17.2654C21.0624 17.6811 20.5806 18.0127 20.0483 18.2412C19.5159 18.4696 18.9436 18.5903 18.3643 18.5963H7.00034C6.18356 18.5956 5.37631 18.4208 4.63237 18.0836C3.88842 17.7465 3.22483 17.2547 2.6858 16.641C2.14677 16.0274 1.74467 15.3059 1.50626 14.5247C1.26785 13.7435 1.19861 12.9204 1.30315 12.1104C1.4077 11.3003 1.68362 10.5218 2.11255 9.82674C2.54149 9.13165 3.11358 8.53592 3.79075 8.07922C4.46791 7.62251 5.23461 7.31532 6.03978 7.17809C6.84495 7.04086 7.67012 7.07674 8.46034 7.28335ZM15.0863 12.4683C15.0248 12.5454 14.9487 12.6095 14.8623 12.6571C14.776 12.7046 14.6811 12.7347 14.5831 12.7456C14.4851 12.7564 14.3859 12.7479 14.2913 12.7204C14.1966 12.6929 14.1083 12.647 14.0313 12.5853L12.7503 11.5593V14.9993C12.7503 15.1983 12.6713 15.389 12.5307 15.5297C12.39 15.6703 12.1992 15.7493 12.0003 15.7493C11.8014 15.7493 11.6107 15.6703 11.47 15.5297C11.3294 15.389 11.2503 15.1983 11.2503 14.9993V11.5593L9.96834 12.5843C9.89138 12.6459 9.80306 12.6916 9.70842 12.719C9.61378 12.7464 9.51467 12.7549 9.41675 12.744C9.31883 12.7331 9.22402 12.703 9.13773 12.6554C9.05144 12.6079 8.97536 12.5438 8.91384 12.4668C8.85231 12.3899 8.80655 12.3016 8.77916 12.2069C8.75176 12.1123 8.74328 12.0132 8.75419 11.9153C8.7651 11.8173 8.79519 11.7225 8.84275 11.6362C8.8903 11.55 8.95438 11.4739 9.03134 11.4123L11.5293 9.41535C11.6609 9.30855 11.8249 9.24966 11.9943 9.24835H12.0023C12.1823 9.24835 12.3463 9.31235 12.4753 9.41835L14.9693 11.4123C15.0464 11.4739 15.1105 11.55 15.1581 11.6364C15.2056 11.7227 15.2357 11.8176 15.2466 11.9156C15.2574 12.0136 15.2489 12.1127 15.2214 12.2074C15.1939 12.3021 15.148 12.3914 15.0863 12.4683Z" fill="#909090"/>
</svg>
