<svg width="24" height="24" viewBox="0 0 24 24" fill="none" xmlns="http://www.w3.org/2000/svg">
<path d="M5.61505 13L5.615 16.6047L4.815 15.6745C4.665 15.5001 4.42 15.5001 4.27 15.6745C4.195 15.7617 4.16 15.878 4.16 15.9943C4.16 16.0827 4.1824 16.1748 4.22976 16.2527L4.27 16.3082L5.725 18.0059C5.795 18.0931 5.895 18.1396 6 18.1396C6.08333 18.1396 6.16667 18.1073 6.23264 18.0461L6.27 18.0059L7.725 16.3082C7.875 16.1338 7.875 15.8489 7.725 15.6745C7.58864 15.516 7.37376 15.5016 7.22312 15.6313L7.18 15.6745L6.385 16.6047L6.38505 13H5.61505Z" fill="#909090"/>
<path d="M8.775 13.0002L6.38505 13L6.385 16.6047L7.18 15.6745L7.22312 15.6313C7.37376 15.5016 7.58864 15.516 7.725 15.6745C7.875 15.8489 7.875 16.1338 7.725 16.3082L6.27 18.0059L6.23264 18.0461C6.16667 18.1073 6.08333 18.1396 6 18.1396C5.895 18.1396 5.795 18.0931 5.725 18.0059L4.27 16.3082L4.22976 16.2527C4.1824 16.1748 4.16 16.0827 4.16 15.9943C4.16 15.878 4.195 15.7617 4.27 15.6745C4.42 15.5001 4.665 15.5001 4.815 15.6745L5.615 16.6047L5.61505 13L3.215 13.0002L3.111 13.003C1.93895 13.0668 1 14.2035 1 15.5815L1 18.4128L1.00242 18.5347C1.05704 19.9082 2.03 21 3.22 21H8.78L8.88401 20.9972C10.0563 20.9337 11 19.8025 11 18.4245V15.5873L10.9976 15.4659C10.9427 14.0974 9.965 13.0002 8.775 13.0002Z" fill="#909090"/>
<path d="M17.615 13L17.615 16.6047L16.815 15.6745C16.665 15.5001 16.42 15.5001 16.27 15.6745C16.195 15.7617 16.16 15.878 16.16 15.9943C16.16 16.0827 16.1824 16.1748 16.2298 16.2527L16.27 16.3082L17.725 18.0059C17.795 18.0931 17.895 18.1396 18 18.1396C18.0833 18.1396 18.1667 18.1073 18.2326 18.0461L18.27 18.0059L19.725 16.3082C19.875 16.1338 19.875 15.8489 19.725 15.6745C19.5886 15.516 19.3738 15.5016 19.2231 15.6313L19.18 15.6745L18.385 16.6047L18.385 13H17.615Z" fill="#909090"/>
<path d="M20.775 13.0002L18.385 13L18.385 16.6047L19.18 15.6745L19.2231 15.6313C19.3738 15.5016 19.5886 15.516 19.725 15.6745C19.875 15.8489 19.875 16.1338 19.725 16.3082L18.27 18.0059L18.2326 18.0461C18.1667 18.1073 18.0833 18.1396 18 18.1396C17.895 18.1396 17.795 18.0931 17.725 18.0059L16.27 16.3082L16.2298 16.2527C16.1824 16.1748 16.16 16.0827 16.16 15.9943C16.16 15.878 16.195 15.7617 16.27 15.6745C16.42 15.5001 16.665 15.5001 16.815 15.6745L17.615 16.6047L17.615 13L15.215 13.0002L15.111 13.003C13.939 13.0668 13 14.2035 13 15.5815L13 18.4128L13.0024 18.5347C13.057 19.9082 14.03 21 15.22 21H20.78L20.884 20.9972C22.0563 20.9337 23 19.8025 23 18.4245V15.5873L22.9976 15.4659C22.9427 14.0974 21.965 13.0002 20.775 13.0002Z" fill="#909090"/>
<path d="M11.615 4L11.615 7.60475L10.815 6.67453C10.665 6.50012 10.42 6.50012 10.27 6.67453C10.195 6.76174 10.16 6.87802 10.16 6.99429C10.16 7.08266 10.1824 7.17475 10.2298 7.25271L10.27 7.30824L11.725 9.00588C11.795 9.09309 11.895 9.1396 12 9.1396C12.0833 9.1396 12.1667 9.1073 12.2326 9.04606L12.27 9.00588L13.725 7.30824C13.875 7.13383 13.875 6.84895 13.725 6.67453C13.5886 6.51597 13.3738 6.50156 13.2231 6.63129L13.18 6.67453L12.385 7.60475L12.385 4H11.615Z" fill="#909090"/>
<path d="M14.775 4.00017L12.385 4L12.385 7.60475L13.18 6.67453L13.2231 6.63129C13.3738 6.50156 13.5886 6.51597 13.725 6.67453C13.875 6.84895 13.875 7.13383 13.725 7.30824L12.27 9.00588L12.2326 9.04606C12.1667 9.1073 12.0833 9.1396 12 9.1396C11.895 9.1396 11.795 9.09309 11.725 9.00588L10.27 7.30824L10.2298 7.25271C10.1824 7.17475 10.16 7.08266 10.16 6.99429C10.16 6.87802 10.195 6.76174 10.27 6.67453C10.42 6.50012 10.665 6.50012 10.815 6.67453L11.615 7.60475L11.615 4L9.215 4.00017L9.111 4.003C7.93895 4.06682 7 5.20347 7 6.58151L7 9.41285L7.00242 9.53475C7.05704 10.9082 8.03 12 9.22 12H14.78L14.884 11.9972C16.0563 11.9337 17 10.8025 17 9.42447V6.58733L16.9976 6.4659C16.9427 5.09744 15.965 4.00017 14.775 4.00017Z" fill="#909090"/>
</svg>
