<svg width="24" height="24" viewBox="0 0 24 24" fill="none" xmlns="http://www.w3.org/2000/svg">
<path d="M19.9277 10.7294C20.0241 10.6235 20.1205 10.5176 20.3133 10.5176C20.4096 10.5176 20.6024 10.6235 20.6988 10.7294L21.8554 12C22.0482 12.2118 22.0482 12.6353 21.8554 12.8471L20.8916 13.9059L18.9639 11.7882L19.9277 10.7294ZM12.6024 18.7765L18.3855 12.3176L20.4096 14.5412L14.6265 21H12.6024V18.7765ZM10.6747 18.9882V17.9294L11.253 17.2941L17.5181 10.4118H3.92771V7.23529H19.3494V8.4L21.2771 6.28235V5.11765C21.2771 3.95294 20.4096 3 19.3494 3H3.92771C3.44578 3 2.96386 3.21176 2.57831 3.63529C2.19277 4.05882 2 4.58824 2 5.11765V17.8235C2 18.3529 2.19277 18.8824 2.57831 19.3059C2.96386 19.7294 3.44578 19.9412 3.92771 19.9412H10.6747V18.9882Z" fill="#909090"/>
</svg>
