<svg width="16" height="18" viewBox="0 0 16 18" fill="none" xmlns="http://www.w3.org/2000/svg">
<path fill-rule="evenodd" clip-rule="evenodd" d="M8.20546 17.3326C7.07629 17.3326 5.97546 17.3201 4.88629 17.2976C3.49296 17.2701 2.52879 16.3668 2.37129 14.9401C2.10879 12.5735 1.65962 6.99514 1.65546 6.93931C1.62712 6.59514 1.88379 6.29348 2.22796 6.26598C2.56712 6.25681 2.87379 6.49514 2.90129 6.83848C2.90546 6.89514 3.35379 12.4543 3.61379 14.8026C3.70296 15.6135 4.14046 16.0318 4.91212 16.0476C6.99546 16.0918 9.12129 16.0943 11.413 16.0526C12.233 16.0368 12.6763 15.6268 12.768 14.7968C13.0263 12.4685 13.4763 6.89514 13.4813 6.83848C13.5088 6.49514 13.813 6.25514 14.1538 6.26598C14.498 6.29431 14.7546 6.59514 14.7271 6.93931C14.7221 6.99598 14.2705 12.5885 14.0105 14.9343C13.8488 16.3901 12.8871 17.276 11.4355 17.3026C10.3246 17.3218 9.25296 17.3326 8.20546 17.3326Z" fill="#F53527"/>
<path fill-rule="evenodd" clip-rule="evenodd" d="M15.2567 4.82422H1.125C0.78 4.82422 0.5 4.54422 0.5 4.19922C0.5 3.85422 0.78 3.57422 1.125 3.57422H15.2567C15.6017 3.57422 15.8817 3.85422 15.8817 4.19922C15.8817 4.54422 15.6017 4.82422 15.2567 4.82422Z" fill="#F53527"/>
<path fill-rule="evenodd" clip-rule="evenodd" d="M12.5335 4.82352C11.5852 4.82352 10.7618 4.14768 10.5752 3.21768L10.3727 2.20435C10.3302 2.05018 10.1543 1.91602 9.95432 1.91602H6.42682C6.22682 1.91602 6.05099 2.05018 6.00016 2.24268L5.80599 3.21768C5.62016 4.14768 4.79599 4.82352 3.84766 4.82352C3.50266 4.82352 3.22266 4.54352 3.22266 4.19852C3.22266 3.85352 3.50266 3.57352 3.84766 3.57352C4.20266 3.57352 4.51099 3.32018 4.58099 2.97185L4.78349 1.95852C4.98932 1.18185 5.66182 0.666016 6.42682 0.666016H9.95432C10.7193 0.666016 11.3918 1.18185 11.5893 1.92102L11.801 2.97185C11.8702 3.32018 12.1785 3.57352 12.5335 3.57352C12.8785 3.57352 13.1585 3.85352 13.1585 4.19852C13.1585 4.54352 12.8785 4.82352 12.5335 4.82352Z" fill="#F53527"/>
</svg>
