<svg width="56" height="56" viewBox="0 0 56 56" fill="none" xmlns="http://www.w3.org/2000/svg">
<path fill-rule="evenodd" clip-rule="evenodd" d="M28.5745 51.3334C25.4128 51.3334 22.3305 51.2984 19.2808 51.2354C15.3795 51.1584 12.6798 48.629 12.2388 44.6344C11.5038 38.0077 10.2462 22.3884 10.2345 22.232C10.1552 21.2684 10.8738 20.4237 11.8375 20.3467C12.7872 20.321 13.6458 20.9884 13.7228 21.9497C13.7345 22.1084 14.9898 37.674 15.7178 44.2494C15.9675 46.5197 17.1925 47.691 19.3532 47.7354C25.1865 47.859 31.1388 47.866 37.5555 47.7494C39.8515 47.705 41.0928 46.557 41.3495 44.233C42.0728 37.7137 43.3328 22.1084 43.3468 21.9497C43.4238 20.9884 44.2755 20.3164 45.2298 20.3467C46.1935 20.426 46.9122 21.2684 46.8352 22.232C46.8212 22.3907 45.5565 38.0497 44.8285 44.618C44.3758 48.6944 41.6832 51.1747 37.6185 51.2494C34.5082 51.303 31.5075 51.3334 28.5745 51.3334Z" fill="#F53527"/>
<path fill-rule="evenodd" clip-rule="evenodd" d="M48.3187 16.3076H8.75C7.784 16.3076 7 15.5236 7 14.5576C7 13.5916 7.784 12.8076 8.75 12.8076H48.3187C49.2847 12.8076 50.0687 13.5916 50.0687 14.5576C50.0687 15.5236 49.2847 16.3076 48.3187 16.3076Z" fill="#F53527"/>
<path fill-rule="evenodd" clip-rule="evenodd" d="M40.6934 16.308C38.038 16.308 35.7327 14.4157 35.21 11.8117L34.643 8.97433C34.524 8.54266 34.0317 8.16699 33.4717 8.16699H23.5947C23.0347 8.16699 22.5424 8.54266 22.4 9.08166L21.8564 11.8117C21.336 14.4157 19.0284 16.308 16.373 16.308C15.407 16.308 14.623 15.524 14.623 14.558C14.623 13.592 15.407 12.808 16.373 12.808C17.367 12.808 18.2304 12.0987 18.4264 11.1233L18.9934 8.28599C19.5697 6.11133 21.4527 4.66699 23.5947 4.66699H33.4717C35.6137 4.66699 37.4967 6.11133 38.0497 8.18099L38.6424 11.1233C38.836 12.0987 39.6994 12.808 40.6934 12.808C41.6594 12.808 42.4434 13.592 42.4434 14.558C42.4434 15.524 41.6594 16.308 40.6934 16.308Z" fill="#F53527"/>
</svg>
