<svg width="19" height="21" viewBox="0 0 19 21" fill="none" xmlns="http://www.w3.org/2000/svg">
<g id="Group 1707478193">
<path id="Vector" d="M11.435 10.15C11.471 10.1501 11.5062 10.1399 11.5362 10.1208C11.5661 10.1018 11.5896 10.0746 11.6035 10.0429C11.6175 10.0111 11.6213 9.97607 11.6146 9.9422C11.6078 9.90834 11.5908 9.87714 11.5656 9.85252L7.98474 6.36471C7.9593 6.33996 7.92674 6.32302 7.89121 6.31605C7.85568 6.30909 7.81879 6.31241 7.78523 6.32559C7.75168 6.33878 7.72298 6.36123 7.7028 6.39009C7.68261 6.41895 7.67185 6.45291 7.67188 6.48765V9.62501C7.67188 9.76425 7.72962 9.89779 7.83241 9.99625C7.93519 10.0947 8.0746 10.15 8.21997 10.15H11.435Z" fill="#909090"/>
<path id="Vector_2" fill-rule="evenodd" clip-rule="evenodd" d="M6.36689 10.3606C6.4688 10.5933 6.61787 10.8045 6.80547 10.9818C6.99046 11.1616 7.21086 11.3045 7.45391 11.4021C7.69696 11.4997 7.95782 11.5502 8.22137 11.5505H12.4234V18.2006C12.4234 18.9433 12.1154 19.6555 11.5672 20.1806C11.019 20.7057 10.2755 21.0007 9.50025 21.0007H2.92315C2.14789 21.0007 1.40437 20.7057 0.856172 20.1806C0.307974 19.6555 0 18.9433 0 18.2006V8.40048C0.00228931 7.65853 0.310999 6.9476 0.858701 6.42297C1.4064 5.89833 2.14859 5.60262 2.92315 5.60043H6.2117V9.6255C6.21223 9.87793 6.26497 10.1278 6.36689 10.3606ZM18.0135 4.55041H14.7985C14.6531 4.55041 14.5137 4.4951 14.4109 4.39664C14.3081 4.29818 14.2504 4.16464 14.2504 4.0254V0.888039C14.2503 0.8533 14.2611 0.819338 14.2813 0.790479C14.3015 0.76162 14.3302 0.739169 14.3637 0.725984C14.3973 0.7128 14.4342 0.709479 14.4697 0.716445C14.5052 0.723411 14.5378 0.740348 14.5632 0.765099L18.1441 4.25291C18.1693 4.27753 18.1863 4.30873 18.1931 4.34259C18.1998 4.37646 18.196 4.41148 18.182 4.44326C18.1681 4.47504 18.1446 4.50216 18.1147 4.52122C18.0847 4.54029 18.0495 4.55044 18.0135 4.55041ZM8.22137 17.226C8.50114 16.9554 8.50114 16.5167 8.22137 16.246L7.04439 15.1073L8.22137 13.9686C8.50114 13.698 8.50114 13.2593 8.22137 12.9886C7.9416 12.7086 7.47852 12.7086 7.19875 12.9886L6.02177 14.1273L4.84479 12.9886C4.56502 12.7086 4.11159 12.7086 3.83182 12.9886C3.55204 13.2593 3.55204 13.698 3.83182 13.9686L5.0088 15.1073L3.83182 16.246C3.55204 16.5167 3.55204 16.9554 3.83182 17.226C3.96688 17.366 4.15018 17.4314 4.33348 17.4314C4.51678 17.4314 4.70973 17.366 4.84479 17.226L6.02177 16.0873L7.19875 17.226C7.34346 17.366 7.52676 17.4314 7.71006 17.4314C7.89336 17.4314 8.07666 17.366 8.22137 17.226Z" fill="#909090"/>
<path id="Vector_3" d="M14.8001 5.9501C14.2684 5.94621 13.7596 5.74214 13.3836 5.38197C13.0076 5.0218 12.7945 4.53442 12.7905 4.02507V0H7.85764C7.13109 0.000810531 6.43454 0.277637 5.92078 0.769753C5.40703 1.26187 5.11803 1.92909 5.11719 2.62504V4.20007H7.04099C7.28654 4.20101 7.52948 4.24842 7.75585 4.33957C7.98222 4.43072 8.18755 4.56381 8.36006 4.7312L13.3459 9.58754C13.6937 9.9256 13.8879 10.3817 13.8862 10.8563V16.8003H16.3092C17.7941 16.8003 19.0017 15.6225 19.0017 14.1752V5.9501H14.8001Z" fill="#909090"/>
</g>
</svg>
