<svg width="22" height="17" viewBox="0 0 22 17" fill="none" xmlns="http://www.w3.org/2000/svg">
<g id="Download">
<g id="Download_2">
<path d="M4.61505 9L4.615 12.6047L3.815 11.6745C3.665 11.5001 3.42 11.5001 3.27 11.6745C3.195 11.7617 3.16 11.878 3.16 11.9943C3.16 12.0827 3.1824 12.1748 3.22976 12.2527L3.27 12.3082L4.725 14.0059C4.795 14.0931 4.895 14.1396 5 14.1396C5.08333 14.1396 5.16667 14.1073 5.23264 14.0461L5.27 14.0059L6.725 12.3082C6.875 12.1338 6.875 11.8489 6.725 11.6745C6.58864 11.516 6.37376 11.5016 6.22312 11.6313L6.18 11.6745L5.385 12.6047L5.38505 9H4.61505Z" fill="#909090"/>
<path d="M7.775 9.00017L5.38505 9L5.385 12.6047L6.18 11.6745L6.22312 11.6313C6.37376 11.5016 6.58864 11.516 6.725 11.6745C6.875 11.8489 6.875 12.1338 6.725 12.3082L5.27 14.0059L5.23264 14.0461C5.16667 14.1073 5.08333 14.1396 5 14.1396C4.895 14.1396 4.795 14.0931 4.725 14.0059L3.27 12.3082L3.22976 12.2527C3.1824 12.1748 3.16 12.0827 3.16 11.9943C3.16 11.878 3.195 11.7617 3.27 11.6745C3.42 11.5001 3.665 11.5001 3.815 11.6745L4.615 12.6047L4.61505 9L2.215 9.00017L2.111 9.003C0.938955 9.06682 0 10.2035 0 11.5815L0 14.4128L0.00241889 14.5347C0.0570449 15.9082 1.03 17 2.22 17H7.78L7.88401 16.9972C9.05633 16.9337 10 15.8025 10 14.4245V11.5873L9.99757 11.4659C9.94267 10.0974 8.965 9.00017 7.775 9.00017Z" fill="#909090"/>
</g>
<g id="Download_3">
<path d="M16.615 9L16.615 12.6047L15.815 11.6745C15.665 11.5001 15.42 11.5001 15.27 11.6745C15.195 11.7617 15.16 11.878 15.16 11.9943C15.16 12.0827 15.1824 12.1748 15.2298 12.2527L15.27 12.3082L16.725 14.0059C16.795 14.0931 16.895 14.1396 17 14.1396C17.0833 14.1396 17.1667 14.1073 17.2326 14.0461L17.27 14.0059L18.725 12.3082C18.875 12.1338 18.875 11.8489 18.725 11.6745C18.5886 11.516 18.3738 11.5016 18.2231 11.6313L18.18 11.6745L17.385 12.6047L17.385 9H16.615Z" fill="#909090"/>
<path d="M19.775 9.00017L17.385 9L17.385 12.6047L18.18 11.6745L18.2231 11.6313C18.3738 11.5016 18.5886 11.516 18.725 11.6745C18.875 11.8489 18.875 12.1338 18.725 12.3082L17.27 14.0059L17.2326 14.0461C17.1667 14.1073 17.0833 14.1396 17 14.1396C16.895 14.1396 16.795 14.0931 16.725 14.0059L15.27 12.3082L15.2298 12.2527C15.1824 12.1748 15.16 12.0827 15.16 11.9943C15.16 11.878 15.195 11.7617 15.27 11.6745C15.42 11.5001 15.665 11.5001 15.815 11.6745L16.615 12.6047L16.615 9L14.215 9.00017L14.111 9.003C12.939 9.06682 12 10.2035 12 11.5815L12 14.4128L12.0024 14.5347C12.057 15.9082 13.03 17 14.22 17H19.78L19.884 16.9972C21.0563 16.9337 22 15.8025 22 14.4245V11.5873L21.9976 11.4659C21.9427 10.0974 20.965 9.00017 19.775 9.00017Z" fill="#909090"/>
</g>
<g id="Download_4">
<path d="M10.615 0L10.615 3.60475L9.815 2.67453C9.665 2.50012 9.42 2.50012 9.27 2.67453C9.195 2.76174 9.16 2.87802 9.16 2.99429C9.16 3.08266 9.1824 3.17475 9.22976 3.25271L9.27 3.30824L10.725 5.00588C10.795 5.09309 10.895 5.1396 11 5.1396C11.0833 5.1396 11.1667 5.1073 11.2326 5.04606L11.27 5.00588L12.725 3.30824C12.875 3.13383 12.875 2.84895 12.725 2.67453C12.5886 2.51597 12.3738 2.50156 12.2231 2.63129L12.18 2.67453L11.385 3.60475L11.385 0H10.615Z" fill="#909090"/>
<path d="M13.775 0.000171278L11.385 0L11.385 3.60475L12.18 2.67453L12.2231 2.63129C12.3738 2.50156 12.5886 2.51597 12.725 2.67453C12.875 2.84895 12.875 3.13383 12.725 3.30824L11.27 5.00588L11.2326 5.04606C11.1667 5.1073 11.0833 5.1396 11 5.1396C10.895 5.1396 10.795 5.09309 10.725 5.00588L9.27 3.30824L9.22976 3.25271C9.1824 3.17475 9.16 3.08266 9.16 2.99429C9.16 2.87802 9.195 2.76174 9.27 2.67453C9.42 2.50012 9.665 2.50012 9.815 2.67453L10.615 3.60475L10.615 0L8.215 0.000171278L8.111 0.00299791C6.93895 0.0668241 6 1.20347 6 2.58151L6 5.41285L6.00242 5.53475C6.05704 6.90822 7.03 8 8.22 8H13.78L13.884 7.99719C15.0563 7.93368 16 6.80252 16 5.42447V2.58733L15.9976 2.4659C15.9427 1.09744 14.965 0.000171278 13.775 0.000171278Z" fill="#909090"/>
</g>
</g>
</svg>
