<svg width="40" height="41" viewBox="0 0 40 41" fill="none" xmlns="http://www.w3.org/2000/svg">
<circle cx="20" cy="21.5" r="19" fill="white"/>
<path d="M40 20.6222C40 9.5091 31.0456 0.5 20 0.5C8.95437 0.5 0 9.50894 0 20.6222C0 30.6657 7.31375 38.9905 16.875 40.5V26.4388H11.7969V20.6222H16.875V16.189C16.875 11.1459 19.8609 8.36025 24.4292 8.36025C26.6175 8.36025 28.9062 8.75326 28.9062 8.75326V13.7052H26.3844C23.8997 13.7052 23.125 15.2564 23.125 16.8477V20.6222H28.6719L27.7852 26.4388H23.125V40.5C32.6862 38.9905 40 30.6659 40 20.6222Z" fill="#4466F5"/>
</svg>
