<svg width="20" height="17" viewBox="0 0 20 17" fill="none" xmlns="http://www.w3.org/2000/svg">
<g id="Folder">
<path id="Folder_2" fill-rule="evenodd" clip-rule="evenodd" d="M11.4505 0H14.5205C18.2105 0 20.0105 1.95619 20.0005 5.96787V10.8037C20.0005 14.6367 17.6205 17 13.7505 17H6.24047C2.39047 17 0.000469217 14.6367 0.000469217 10.7938L4.14348e-05 5.96787C-0.00995857 1.95619 1.79004 0 5.48004 0H11.4505ZM14.6301 4.78674H5.37012C4.95012 4.78674 4.62012 4.44912 4.62012 4.042C4.62012 3.62494 4.95012 3.29725 5.37012 3.29725H14.6301C15.0401 3.29725 15.3701 3.62494 15.3701 4.042C15.3701 4.44912 15.0401 4.78674 14.6301 4.78674ZM5.22606 9.60176C5.22613 9.27697 5.31913 9.04676 5.43991 8.90868C5.54853 8.78451 5.7331 8.67161 6.07276 8.67161C6.41242 8.67161 6.5969 8.78452 6.70541 8.9086C6.82607 9.04659 6.91899 9.2767 6.91892 9.60144L6.91886 10.5316H5.226L5.22606 9.60176ZM8.36892 11.2564V11.2564V11.2566V12.9116C8.36892 13.312 8.04432 13.6366 7.64392 13.6366C7.24351 13.6366 6.91892 13.312 6.91892 12.9116V11.9816H5.22606V12.9116C5.22606 13.312 4.90147 13.6366 4.50106 13.6366C4.10065 13.6366 3.77606 13.312 3.77606 12.9116V11.2567V11.2567V11.2566V11.2566L3.77606 11.2561L3.77606 11.2543L3.77606 11.2472L3.77605 11.2196L3.77603 11.1145L3.77599 10.7395L3.77606 9.60144C3.77619 9.01221 3.94536 8.41492 4.34854 7.95401C4.76388 7.4792 5.36506 7.22161 6.07276 7.22161C6.78044 7.22161 7.38164 7.47919 7.79693 7.9541C8.20006 8.4151 8.36905 9.01248 8.36892 9.60176L8.36885 10.7393L8.36889 11.1142L8.36891 11.2193L8.36891 11.2469L8.36892 11.254V11.2558V11.2563L8.36892 11.2564ZM10.2633 7.22161H10.2632C10.0709 7.22161 9.88654 7.298 9.75058 7.43396C9.61461 7.56993 9.53823 7.75433 9.53823 7.94661L9.53823 10.7779L9.53823 12.9116C9.53823 13.312 9.86283 13.6366 10.2632 13.6366C10.6636 13.6366 10.9882 13.312 10.9882 12.9116V11.5029L11.8347 11.5029C13.3009 11.5029 14.144 10.4133 14.144 9.34579C14.144 8.25723 13.28 7.22161 11.8347 7.22161H10.7421H10.3937H10.2972H10.2719H10.2654H10.2638H10.2634H10.2633ZM11.8347 10.0529L10.9882 10.0529V8.67161H11.8347C12.1854 8.67161 12.3915 8.78668 12.508 8.90277C12.6322 9.02644 12.694 9.18948 12.694 9.34579C12.694 9.5047 12.63 9.67979 12.5002 9.81317C12.38 9.93662 12.1753 10.0529 11.8347 10.0529ZM16.226 7.94661C16.226 7.54621 15.9014 7.22161 15.501 7.22161C15.1006 7.22161 14.776 7.54621 14.776 7.94661V12.9116C14.776 13.312 15.1006 13.6366 15.501 13.6366C15.9014 13.6366 16.226 13.312 16.226 12.9116V7.94661Z" fill="#909090"/>
</g>
</svg>
