<svg width="21" height="18" viewBox="0 0 21 18" fill="none" xmlns="http://www.w3.org/2000/svg">
<g id="Group 1707478192">
<g id="Vector">
<path d="M19.2 0H4.8C3.81 0 3 0.7875 3 1.75V12.25C3 13.2125 3.81 14 4.8 14H19.2C20.19 14 21 13.2125 21 12.25V1.75C21 0.7875 20.19 0 19.2 0ZM18.84 3.71875L12.954 7.2975C12.369 7.65625 11.631 7.65625 11.046 7.2975L5.16 3.71875C5.06975 3.6695 4.99073 3.60295 4.9277 3.52315C4.86467 3.44334 4.81896 3.35193 4.79332 3.25445C4.76768 3.15697 4.76265 3.05544 4.77854 2.95602C4.79443 2.85659 4.8309 2.76134 4.88575 2.67601C4.9406 2.59069 5.01269 2.51707 5.09765 2.45962C5.18262 2.40217 5.27868 2.36207 5.38005 2.34176C5.48141 2.32145 5.58595 2.32135 5.68736 2.34145C5.78876 2.36156 5.88492 2.40147 5.97 2.45875L12 6.125L18.03 2.45875C18.1151 2.40147 18.2112 2.36156 18.3126 2.34145C18.414 2.32135 18.5186 2.32145 18.62 2.34176C18.7213 2.36207 18.8174 2.40217 18.9023 2.45962C18.9873 2.51707 19.0594 2.59069 19.1142 2.67601C19.1691 2.76134 19.2056 2.85659 19.2215 2.95602C19.2373 3.05544 19.2323 3.15697 19.2067 3.25445C19.181 3.35193 19.1353 3.44334 19.0723 3.52315C19.0093 3.60295 18.9302 3.6695 18.84 3.71875Z" fill="#909090"/>
<path d="M18.84 3.71875L12.954 7.2975C12.369 7.65625 11.631 7.65625 11.046 7.2975L5.16 3.71875C5.06975 3.6695 4.99073 3.60295 4.9277 3.52315C4.86467 3.44334 4.81896 3.35193 4.79332 3.25445C4.76768 3.15697 4.76265 3.05544 4.77854 2.95602C4.79443 2.85659 4.8309 2.76134 4.88575 2.67601C4.9406 2.59069 5.01269 2.51707 5.09765 2.45962C5.18262 2.40217 5.27868 2.36207 5.38005 2.34176C5.48141 2.32145 5.58595 2.32135 5.68736 2.34145C5.78876 2.36156 5.88492 2.40147 5.97 2.45875L12 6.125L18.03 2.45875C18.1151 2.40147 18.2112 2.36156 18.3126 2.34145C18.414 2.32135 18.5186 2.32145 18.62 2.34176C18.7213 2.36207 18.8174 2.40217 18.9023 2.45962C18.9873 2.51707 19.0594 2.59069 19.1142 2.67601C19.1691 2.76134 19.2056 2.85659 19.2215 2.95602C19.2373 3.05544 19.2323 3.15697 19.2067 3.25445C19.181 3.35193 19.1353 3.44334 19.0723 3.52315C19.0093 3.60295 18.9302 3.6695 18.84 3.71875Z" fill="white"/>
</g>
<g id="Vector_2">
<path d="M16.2 4H1.8C0.81 4 0 4.7875 0 5.75V16.25C0 17.2125 0.81 18 1.8 18H16.2C17.19 18 18 17.2125 18 16.25V5.75C18 4.7875 17.19 4 16.2 4ZM15.84 7.71875L9.954 11.2975C9.369 11.6562 8.631 11.6562 8.046 11.2975L2.16 7.71875C2.06975 7.6695 1.99073 7.60295 1.9277 7.52315C1.86467 7.44334 1.81896 7.35193 1.79332 7.25445C1.76768 7.15697 1.76265 7.05544 1.77854 6.95602C1.79443 6.85659 1.8309 6.76134 1.88575 6.67601C1.9406 6.59069 2.01269 6.51707 2.09765 6.45962C2.18262 6.40217 2.27868 6.36207 2.38005 6.34176C2.48141 6.32145 2.58595 6.32135 2.68736 6.34145C2.78876 6.36156 2.88492 6.40147 2.97 6.45875L9 10.125L15.03 6.45875C15.1151 6.40147 15.2112 6.36156 15.3126 6.34145C15.414 6.32135 15.5186 6.32145 15.62 6.34176C15.7213 6.36207 15.8174 6.40217 15.9023 6.45962C15.9873 6.51707 16.0594 6.59069 16.1142 6.67601C16.1691 6.76134 16.2056 6.85659 16.2215 6.95602C16.2373 7.05544 16.2323 7.15697 16.2067 7.25445C16.181 7.35193 16.1353 7.44334 16.0723 7.52315C16.0093 7.60295 15.9302 7.6695 15.84 7.71875Z" fill="#909090"/>
<path d="M15.84 7.71875L9.954 11.2975C9.369 11.6562 8.631 11.6562 8.046 11.2975L2.16 7.71875C2.06975 7.6695 1.99073 7.60295 1.9277 7.52315C1.86467 7.44334 1.81896 7.35193 1.79332 7.25445C1.76768 7.15697 1.76265 7.05544 1.77854 6.95602C1.79443 6.85659 1.8309 6.76134 1.88575 6.67601C1.9406 6.59069 2.01269 6.51707 2.09765 6.45962C2.18262 6.40217 2.27868 6.36207 2.38005 6.34176C2.48141 6.32145 2.58595 6.32135 2.68736 6.34145C2.78876 6.36156 2.88492 6.40147 2.97 6.45875L9 10.125L15.03 6.45875C15.1151 6.40147 15.2112 6.36156 15.3126 6.34145C15.414 6.32135 15.5186 6.32145 15.62 6.34176C15.7213 6.36207 15.8174 6.40217 15.9023 6.45962C15.9873 6.51707 16.0594 6.59069 16.1142 6.67601C16.1691 6.76134 16.2056 6.85659 16.2215 6.95602C16.2373 7.05544 16.2323 7.15697 16.2067 7.25445C16.181 7.35193 16.1353 7.44334 16.0723 7.52315C16.0093 7.60295 15.9302 7.6695 15.84 7.71875Z" fill="white"/>
</g>
</g>
</svg>
