<svg width="24" height="24" viewBox="0 0 24 24" fill="none" xmlns="http://www.w3.org/2000/svg">
<path d="M13.435 12.15C13.471 12.1501 13.5062 12.1399 13.5362 12.1208C13.5661 12.1018 13.5896 12.0746 13.6035 12.0429C13.6175 12.0111 13.6213 11.9761 13.6146 11.9422C13.6078 11.9083 13.5908 11.8771 13.5656 11.8525L9.98474 8.36471C9.9593 8.33996 9.92674 8.32302 9.89121 8.31605C9.85568 8.30909 9.81879 8.31241 9.78523 8.32559C9.75168 8.33878 9.72298 8.36123 9.7028 8.39009C9.68261 8.41895 9.67185 8.45291 9.67188 8.48765V11.625C9.67188 11.7643 9.72962 11.8978 9.83241 11.9963C9.93519 12.0947 10.0746 12.15 10.22 12.15H13.435Z" fill="#909090"/>
<path fill-rule="evenodd" clip-rule="evenodd" d="M8.36689 12.3606C8.4688 12.5933 8.61787 12.8045 8.80547 12.9818C8.99046 13.1616 9.21086 13.3045 9.45391 13.4021C9.69696 13.4997 9.95782 13.5502 10.2214 13.5505H14.4234V20.2006C14.4234 20.9433 14.1154 21.6555 13.5672 22.1806C13.019 22.7057 12.2755 23.0007 11.5002 23.0007H4.92315C4.14789 23.0007 3.40437 22.7057 2.85617 22.1806C2.30797 21.6555 2 20.9433 2 20.2006V10.4005C2.00229 9.65853 2.311 8.9476 2.8587 8.42297C3.4064 7.89833 4.14859 7.60262 4.92315 7.60043H8.2117V11.6255C8.21223 11.8779 8.26497 12.1278 8.36689 12.3606ZM20.0135 6.55041H16.7985C16.6531 6.55041 16.5137 6.4951 16.4109 6.39664C16.3081 6.29818 16.2504 6.16464 16.2504 6.0254V2.88804C16.2503 2.8533 16.2611 2.81934 16.2813 2.79048C16.3015 2.76162 16.3302 2.73917 16.3637 2.72598C16.3973 2.7128 16.4342 2.70948 16.4697 2.71644C16.5052 2.72341 16.5378 2.74035 16.5632 2.7651L20.1441 6.25291C20.1693 6.27753 20.1863 6.30873 20.1931 6.34259C20.1998 6.37646 20.196 6.41148 20.182 6.44326C20.1681 6.47504 20.1446 6.50216 20.1147 6.52122C20.0847 6.54029 20.0495 6.55044 20.0135 6.55041ZM10.2214 19.226C10.5011 18.9554 10.5011 18.5167 10.2214 18.246L9.04439 17.1073L10.2214 15.9686C10.5011 15.698 10.5011 15.2593 10.2214 14.9886C9.9416 14.7086 9.47852 14.7086 9.19875 14.9886L8.02177 16.1273L6.84479 14.9886C6.56502 14.7086 6.11159 14.7086 5.83182 14.9886C5.55204 15.2593 5.55204 15.698 5.83182 15.9686L7.0088 17.1073L5.83182 18.246C5.55204 18.5167 5.55204 18.9554 5.83182 19.226C5.96688 19.366 6.15018 19.4314 6.33348 19.4314C6.51678 19.4314 6.70973 19.366 6.84479 19.226L8.02177 18.0873L9.19875 19.226C9.34346 19.366 9.52676 19.4314 9.71006 19.4314C9.89336 19.4314 10.0767 19.366 10.2214 19.226Z" fill="#909090"/>
<path d="M16.7982 7.9501C16.2664 7.94621 15.7576 7.74214 15.3816 7.38197C15.0056 7.0218 14.7926 6.53442 14.7885 6.02507V2H9.85569C9.12914 2.00081 8.43258 2.27764 7.91883 2.76975C7.40508 3.26187 7.11608 3.92909 7.11523 4.62504V6.20007H9.03903C9.28459 6.20101 9.52753 6.24842 9.7539 6.33957C9.98027 6.43072 10.1856 6.56381 10.3581 6.7312L15.3439 11.5875C15.6917 11.9256 15.886 12.3817 15.8842 12.8563V18.8003H18.3073C19.7921 18.8003 20.9998 17.6225 20.9998 16.1752V7.9501H16.7982Z" fill="#909090"/>
</svg>
