<svg width="26" height="24" viewBox="0 0 26 24" fill="none" xmlns="http://www.w3.org/2000/svg">
<path d="M18.9398 3.29016C18.2992 3.08916 17.6254 3.00016 16.9506 3.00016C15.4641 2.99016 14.0214 3.45016 12.8332 4.29915C12.737 4.23015 12.6193 4.16915 12.5124 4.11015C12.4054 4.04915 12.2129 3.90015 12.0525 3.82015L11.6461 3.65015C11.4322 3.54016 11.2087 3.46016 10.9724 3.38916C10.951 3.37016 10.9189 3.34916 10.8761 3.33016H10.813C10.181 3.12916 9.52861 3.01916 8.85486 3.00016H8.73722C8.43777 3.00016 8.13939 3.01916 7.83888 3.06016H7.71054C7.38971 3.09916 7.06994 3.16916 6.7598 3.26916C2.76967 4.49015 1.34729 8.54011 2.55578 12.0801C3.24023 13.8891 4.34283 15.5301 5.7759 16.879C7.86026 18.759 10.1393 20.419 12.5872 21.839L12.8653 22L13.1327 21.849C15.5721 20.419 17.8383 18.759 19.9034 16.889C21.3461 15.5401 22.4476 13.8891 23.1214 12.0801C24.3095 8.54011 22.8872 4.49015 18.9398 3.29016Z" fill="#4682B4"/>
</svg>
