<svg width="24" height="24" viewBox="0 0 24 24" fill="none" xmlns="http://www.w3.org/2000/svg">
<path d="M21.2 3H6.8C5.81 3 5 3.7875 5 4.75V15.25C5 16.2125 5.81 17 6.8 17H21.2C22.19 17 23 16.2125 23 15.25V4.75C23 3.7875 22.19 3 21.2 3ZM20.84 6.71875L14.954 10.2975C14.369 10.6562 13.631 10.6562 13.046 10.2975L7.16 6.71875C7.06975 6.6695 6.99073 6.60295 6.9277 6.52315C6.86467 6.44334 6.81896 6.35193 6.79332 6.25445C6.76768 6.15697 6.76265 6.05544 6.77854 5.95602C6.79443 5.85659 6.8309 5.76134 6.88575 5.67601C6.9406 5.59069 7.01269 5.51707 7.09765 5.45962C7.18262 5.40217 7.27868 5.36207 7.38005 5.34176C7.48141 5.32145 7.58595 5.32135 7.68736 5.34145C7.78876 5.36156 7.88492 5.40147 7.97 5.45875L14 9.125L20.03 5.45875C20.1151 5.40147 20.2112 5.36156 20.3126 5.34145C20.414 5.32135 20.5186 5.32145 20.62 5.34176C20.7213 5.36207 20.8174 5.40217 20.9023 5.45962C20.9873 5.51707 21.0594 5.59069 21.1142 5.67601C21.1691 5.76134 21.2056 5.85659 21.2215 5.95602C21.2373 6.05544 21.2323 6.15697 21.2067 6.25445C21.181 6.35193 21.1353 6.44334 21.0723 6.52315C21.0093 6.60295 20.9302 6.6695 20.84 6.71875Z" fill="#909090"/>
<path d="M20.84 6.71875L14.954 10.2975C14.369 10.6562 13.631 10.6562 13.046 10.2975L7.16 6.71875C7.06975 6.6695 6.99073 6.60295 6.9277 6.52315C6.86467 6.44334 6.81896 6.35193 6.79332 6.25445C6.76768 6.15697 6.76265 6.05544 6.77854 5.95602C6.79443 5.85659 6.8309 5.76134 6.88575 5.67601C6.9406 5.59069 7.01269 5.51707 7.09765 5.45962C7.18262 5.40217 7.27868 5.36207 7.38005 5.34176C7.48141 5.32145 7.58595 5.32135 7.68736 5.34145C7.78876 5.36156 7.88492 5.40147 7.97 5.45875L14 9.125L20.03 5.45875C20.1151 5.40147 20.2112 5.36156 20.3126 5.34145C20.414 5.32135 20.5186 5.32145 20.62 5.34176C20.7213 5.36207 20.8174 5.40217 20.9023 5.45962C20.9873 5.51707 21.0594 5.59069 21.1142 5.67601C21.1691 5.76134 21.2056 5.85659 21.2215 5.95602C21.2373 6.05544 21.2323 6.15697 21.2067 6.25445C21.181 6.35193 21.1353 6.44334 21.0723 6.52315C21.0093 6.60295 20.9302 6.6695 20.84 6.71875Z" fill="white"/>
<path d="M18.2 7H3.8C2.81 7 2 7.7875 2 8.75V19.25C2 20.2125 2.81 21 3.8 21H18.2C19.19 21 20 20.2125 20 19.25V8.75C20 7.7875 19.19 7 18.2 7ZM17.84 10.7188L11.954 14.2975C11.369 14.6562 10.631 14.6562 10.046 14.2975L4.16 10.7188C4.06975 10.6695 3.99073 10.603 3.9277 10.5231C3.86467 10.4433 3.81896 10.3519 3.79332 10.2544C3.76768 10.157 3.76265 10.0554 3.77854 9.95602C3.79443 9.85659 3.8309 9.76134 3.88575 9.67601C3.9406 9.59069 4.01269 9.51707 4.09765 9.45962C4.18262 9.40217 4.27868 9.36207 4.38005 9.34176C4.48141 9.32145 4.58595 9.32135 4.68736 9.34145C4.78876 9.36156 4.88492 9.40147 4.97 9.45875L11 13.125L17.03 9.45875C17.1151 9.40147 17.2112 9.36156 17.3126 9.34145C17.414 9.32135 17.5186 9.32145 17.62 9.34176C17.7213 9.36207 17.8174 9.40217 17.9023 9.45962C17.9873 9.51707 18.0594 9.59069 18.1142 9.67601C18.1691 9.76134 18.2056 9.85659 18.2215 9.95602C18.2373 10.0554 18.2323 10.157 18.2067 10.2544C18.181 10.3519 18.1353 10.4433 18.0723 10.5231C18.0093 10.603 17.9302 10.6695 17.84 10.7188Z" fill="#909090"/>
<path d="M17.84 10.7188L11.954 14.2975C11.369 14.6562 10.631 14.6562 10.046 14.2975L4.16 10.7188C4.06975 10.6695 3.99073 10.603 3.9277 10.5231C3.86467 10.4433 3.81896 10.3519 3.79332 10.2544C3.76768 10.157 3.76265 10.0554 3.77854 9.95602C3.79443 9.85659 3.8309 9.76134 3.88575 9.67601C3.9406 9.59069 4.01269 9.51707 4.09765 9.45962C4.18262 9.40217 4.27868 9.36207 4.38005 9.34176C4.48141 9.32145 4.58595 9.32135 4.68736 9.34145C4.78876 9.36156 4.88492 9.40147 4.97 9.45875L11 13.125L17.03 9.45875C17.1151 9.40147 17.2112 9.36156 17.3126 9.34145C17.414 9.32135 17.5186 9.32145 17.62 9.34176C17.7213 9.36207 17.8174 9.40217 17.9023 9.45962C17.9873 9.51707 18.0594 9.59069 18.1142 9.67601C18.1691 9.76134 18.2056 9.85659 18.2215 9.95602C18.2373 10.0554 18.2323 10.157 18.2067 10.2544C18.181 10.3519 18.1353 10.4433 18.0723 10.5231C18.0093 10.603 17.9302 10.6695 17.84 10.7188Z" fill="white"/>
</svg>
