<svg width="24" height="25" viewBox="0 0 24 25" fill="none" xmlns="http://www.w3.org/2000/svg">
<path d="M17.2176 18.3188C16.9475 18.5888 16.5813 18.7405 16.1994 18.7405C15.8175 18.7405 15.4512 18.5888 15.1812 18.3188L12 14.6828L8.81877 18.3176C8.68545 18.4531 8.52663 18.5609 8.35145 18.6347C8.17628 18.7085 7.98823 18.7469 7.79814 18.7477C7.60805 18.7485 7.41969 18.7116 7.24392 18.6392C7.06815 18.5668 6.90845 18.4604 6.77404 18.3259C6.63963 18.1915 6.53316 18.0318 6.46077 17.8561C6.38838 17.6803 6.35151 17.4919 6.35229 17.3018C6.35306 17.1118 6.39146 16.9237 6.46528 16.7485C6.53909 16.5734 6.64686 16.4145 6.78237 16.2812L10.092 12.5012L6.78117 8.71881C6.64566 8.5855 6.53789 8.42667 6.46408 8.2515C6.39026 8.07633 6.35186 7.88827 6.35109 7.69818C6.35031 7.50809 6.38718 7.31973 6.45957 7.14397C6.53196 6.9682 6.63843 6.8085 6.77284 6.67409C6.90725 6.53967 7.06695 6.4332 7.24272 6.36081C7.41849 6.28843 7.60685 6.25156 7.79694 6.25233C7.98703 6.25311 8.17508 6.29151 8.35025 6.36532C8.52543 6.43914 8.68425 6.54691 8.81757 6.68241L12 10.3196L15.1812 6.68241C15.3145 6.54691 15.4733 6.43914 15.6485 6.36532C15.8237 6.29151 16.0117 6.25311 16.2018 6.25233C16.3919 6.25156 16.5802 6.28843 16.756 6.36081C16.9318 6.4332 17.0915 6.53967 17.2259 6.67409C17.3603 6.8085 17.4668 6.9682 17.5392 7.14397C17.6116 7.31973 17.6484 7.50809 17.6476 7.69818C17.6469 7.88827 17.6085 8.07633 17.5347 8.2515C17.4608 8.42667 17.3531 8.5855 17.2176 8.71881L13.908 12.5012L17.2176 16.2812C17.3515 16.4149 17.4577 16.5738 17.5301 16.7486C17.6026 16.9234 17.6399 17.1108 17.6399 17.3C17.6399 17.4893 17.6026 17.6766 17.5301 17.8514C17.4577 18.0263 17.3515 18.1851 17.2176 18.3188Z" fill="#F53527"/>
</svg>
