<svg width="24" height="24" viewBox="0 0 24 24" fill="none" xmlns="http://www.w3.org/2000/svg">
<path fill-rule="evenodd" clip-rule="evenodd" d="M15.1043 2.70716C15.0365 2.92956 15 3.16556 15 3.41C15 4.74 16.08 5.82 17.41 5.82C17.6802 5.82 17.9401 5.77543 18.1827 5.69324C18.539 6.44099 18.7071 7.27499 18.7071 8.3703V8.79633C18.7071 10.0523 19.039 10.7925 19.7695 11.6456C20.3231 12.2741 20.5 13.0808 20.5 13.956C20.5 14.8302 20.2128 15.6601 19.6373 16.3339C18.884 17.1417 17.8215 17.6573 16.7372 17.747C15.1659 17.8809 13.5937 17.9937 12.0005 17.9937C10.4063 17.9937 8.83505 17.9263 7.26375 17.747C6.17846 17.6573 5.11602 17.1417 4.36367 16.3339C3.78822 15.6601 3.5 14.8302 3.5 13.956C3.5 13.0808 3.6779 12.2741 4.23049 11.6456C4.98384 10.7925 5.29392 10.0523 5.29392 8.79633V8.3703C5.29392 6.68834 5.71333 5.58852 6.577 4.51186C7.86106 2.9417 9.91935 2 11.9558 2H12.0452C13.0921 2 14.1504 2.25002 15.1043 2.70716ZM9.96318 19.2279C9.53582 19.3266 9.07367 19.5573 9.07367 20.0608C9.09852 20.5402 9.37978 20.9653 9.76938 21.2342C10.2723 21.628 10.8636 21.8767 11.4828 21.9664C11.8128 22.0117 12.1487 22.0107 12.4906 21.9664C13.1088 21.8767 13.7001 21.628 14.204 21.2352C14.5926 20.9653 14.8738 20.5402 14.8987 20.0608C14.8987 19.5573 14.4366 19.3266 14.0092 19.2279C13.5093 19.1222 10.4631 19.1222 9.96318 19.2279Z" fill="#909090"/>
<path d="M17.5 2C16.6722 2 16 2.6722 16 3.5C16 4.3278 16.6722 5 17.5 5C18.3278 5 19 4.3278 19 3.5C19 2.6722 18.3278 2 17.5 2Z" fill="#909090"/>
</svg>
