<svg width="24" height="24" viewBox="0 0 24 24" fill="none" xmlns="http://www.w3.org/2000/svg">
<path fill-rule="evenodd" clip-rule="evenodd" d="M13.9451 12.89C14.2322 13.18 14.6976 13.18 14.9847 12.89C15.2818 12.6 15.2818 12.13 14.9946 11.84L12.153 8.95999C12.0837 8.88999 12.0045 8.83999 11.9154 8.79999C11.8263 8.75999 11.7372 8.73999 11.6382 8.73999C11.5392 8.73999 11.4402 8.75999 11.3511 8.79999C11.262 8.83999 11.1827 8.88999 11.1134 8.95999L8.28175 11.84C7.99462 12.13 7.99462 12.6 8.28175 12.89C8.56888 13.18 9.03423 13.18 9.32136 12.89L10.8956 11.29V16.12C10.8956 16.53 11.2223 16.86 11.6382 16.86C12.0441 16.86 12.3709 16.53 12.3709 16.12V11.29L13.9451 12.89ZM19.3282 9.02561C19.5609 9.02292 19.8143 9.02 20.0446 9.02C20.2921 9.02 20.5 9.22 20.5 9.47V17.51C20.5 19.99 18.5 22 16.0446 22H8.17327C5.58911 22 3.5 19.89 3.5 17.29V6.51C3.5 4.03 5.4901 2 7.96535 2H13.2525C13.5 2 13.7079 2.21 13.7079 2.46V5.68C13.7079 7.51 15.1931 9.01 17.0149 9.02C17.4313 9.02 17.801 9.02315 18.1258 9.02591C18.3801 9.02807 18.6069 9.03 18.8069 9.03C18.9479 9.03 19.1306 9.02789 19.3282 9.02561ZM19.6049 7.56601C18.7911 7.56901 17.8326 7.56601 17.1425 7.55901C16.0475 7.55901 15.1455 6.64801 15.1455 5.54201V2.90601C15.1455 2.47501 15.6623 2.26101 15.9584 2.57201C16.7209 3.37202 17.8881 4.59809 18.8747 5.63434C19.2742 6.05399 19.6441 6.44252 19.9455 6.75901C20.2336 7.06201 20.0217 7.56501 19.6049 7.56601Z" fill="#909090"/>
</svg>
