<svg width="24" height="24" viewBox="0 0 24 24" fill="none" xmlns="http://www.w3.org/2000/svg">
<path d="M8.05341 10.1533C9.12372 10.1533 10.1502 9.72378 10.907 8.95926C11.6638 8.19474 12.089 7.15783 12.089 6.07664C12.089 4.99545 11.6638 3.95854 10.907 3.19402C10.1502 2.4295 9.12372 2 8.05341 2C6.9831 2 5.95663 2.4295 5.1998 3.19402C4.44298 3.95854 4.0178 4.99545 4.0178 6.07664C4.0178 7.15783 4.44298 8.19474 5.1998 8.95926C5.95663 9.72378 6.9831 10.1533 8.05341 10.1533ZM17.1335 10.1533C17.9363 10.1533 18.7061 9.83116 19.2737 9.25777C19.8413 8.68438 20.1602 7.90669 20.1602 7.0958C20.1602 6.28491 19.8413 5.50722 19.2737 4.93384C18.7061 4.36045 17.9363 4.03832 17.1335 4.03832C16.3308 4.03832 15.5609 4.36045 14.9933 4.93384C14.4257 5.50722 14.1068 6.28491 14.1068 7.0958C14.1068 7.90669 14.4257 8.68438 14.9933 9.25777C15.5609 9.83116 16.3308 10.1533 17.1335 10.1533ZM4.27003 12.1916C3.66798 12.1916 3.09059 12.4332 2.66488 12.8632C2.23916 13.2933 2 13.8765 2 14.4847V14.7395C2 14.7395 2 19.3257 8.05341 19.3257C9.45578 19.3257 10.5333 19.0801 11.3606 18.701C11.174 18.0773 11.0795 17.4293 11.0801 16.7778C11.0801 15.0891 11.7056 13.5481 12.7347 12.3781C12.4511 12.2547 12.1456 12.1912 11.8368 12.1916H4.27003ZM14.3863 13.1863C14.4616 13.4498 14.4834 13.7259 14.4506 13.9982C14.4177 14.2704 14.3308 14.5331 14.1951 14.7706C14.0594 15.0082 13.8776 15.2156 13.6606 15.3804C13.4437 15.5453 13.196 15.6642 12.9325 15.7301L12.3433 15.8779C12.2488 16.4882 12.2509 17.1098 12.3493 17.7195L12.8941 17.852C13.16 17.9167 13.4102 18.0354 13.6293 18.2008C13.8484 18.3661 14.032 18.5748 14.1688 18.8141C14.3056 19.0533 14.3929 19.3182 14.4252 19.5925C14.4576 19.8669 14.4344 20.1451 14.357 20.4101L14.1684 21.0532C14.6123 21.4466 15.1167 21.7666 15.6666 21.9929L16.164 21.4639C16.3525 21.2636 16.5793 21.1042 16.8307 20.9952C17.0821 20.8862 17.3528 20.83 17.6264 20.83C17.8999 20.83 18.1706 20.8862 18.422 20.9952C18.6734 21.1042 18.9003 21.2636 19.0888 21.4639L19.5922 22C20.1381 21.7755 20.6434 21.4611 21.0874 21.0695L20.8876 20.3704C20.8124 20.1068 20.7905 19.8306 20.8235 19.5583C20.8564 19.286 20.9434 19.0232 21.0792 18.7857C21.215 18.5482 21.3969 18.3408 21.614 18.176C21.8311 18.0112 22.0788 17.8923 22.3425 17.8265L22.9307 17.6788C23.0251 17.0684 23.0231 16.4468 22.9246 15.8371L22.3798 15.7046C22.114 15.6398 21.864 15.5211 21.6449 15.3557C21.4259 15.1902 21.2425 14.9816 21.1058 14.7423C20.969 14.5031 20.8819 14.2382 20.8496 13.9639C20.8173 13.6896 20.8405 13.4115 20.9179 13.1466L21.1056 12.5035C20.6616 12.1084 20.1556 11.7908 19.6084 11.5638L19.111 12.0917C18.9225 12.2922 18.6956 12.4518 18.4441 12.5608C18.1926 12.6699 17.9217 12.7262 17.6481 12.7262C17.3744 12.7262 17.1035 12.6699 16.852 12.5608C16.6006 12.4518 16.3737 12.2922 16.1852 12.0917L15.6827 11.5567C15.1339 11.7809 14.6294 12.0968 14.1865 12.4872L14.3863 13.1863ZM17.638 18.3066C16.8308 18.3066 16.1751 17.6227 16.1751 16.7778C16.1751 15.934 16.8308 15.2491 17.638 15.2491C18.4451 15.2491 19.1009 15.934 19.1009 16.7778C19.1009 17.6227 18.4451 18.3066 17.638 18.3066Z" fill="#909090"/>
</svg>
