<svg width="24" height="24" viewBox="0 0 24 24" fill="none" xmlns="http://www.w3.org/2000/svg">
<path d="M8 10.4848C8.98509 10.4848 9.92983 10.0906 10.6264 9.38872C11.323 8.68688 11.7143 7.73498 11.7143 6.74242C11.7143 5.74987 11.323 4.79797 10.6264 4.09613C9.92983 3.39429 8.98509 3 8 3C7.01491 3 6.07017 3.39429 5.3736 4.09613C4.67704 4.79797 4.28571 5.74987 4.28571 6.74242C4.28571 7.73498 4.67704 8.68688 5.3736 9.38872C6.07017 10.0906 7.01491 10.4848 8 10.4848ZM19.7143 7.60606C19.7143 8.36956 19.4133 9.10179 18.8774 9.64167C18.3416 10.1815 17.6149 10.4848 16.8571 10.4848C16.0994 10.4848 15.3727 10.1815 14.8368 9.64167C14.301 9.10179 14 8.36956 14 7.60606C14 6.84256 14.301 6.11033 14.8368 5.57045C15.3727 5.03057 16.0994 4.72727 16.8571 4.72727C17.6149 4.72727 18.3416 5.03057 18.8774 5.57045C19.4133 6.11033 19.7143 6.84256 19.7143 7.60606ZM10.5714 16.8182C10.5714 14.856 11.4571 13.1011 12.8491 11.9392C12.5037 11.74 12.1124 11.6356 11.7143 11.6364H4.28571C3.67951 11.6364 3.09812 11.879 2.66947 12.3109C2.24082 12.7428 2 13.3286 2 13.9394C2 13.9394 2 18.5455 8 18.5455C9.08914 18.5455 9.98057 18.3935 10.7097 18.1459C10.6175 17.7094 10.5712 17.2644 10.5714 16.8182ZM22 16.8182C22 18.1925 21.4582 19.5105 20.4937 20.4823C19.5292 21.4541 18.2211 22 16.8571 22C15.4932 22 14.1851 21.4541 13.2206 20.4823C12.2561 19.5105 11.7143 18.1925 11.7143 16.8182C11.7143 15.4439 12.2561 14.1259 13.2206 13.1541C14.1851 12.1823 15.4932 11.6364 16.8571 11.6364C18.2211 11.6364 19.5292 12.1823 20.4937 13.1541C21.4582 14.1259 22 15.4439 22 16.8182ZM19.5474 14.6833C19.4943 14.6297 19.4313 14.5871 19.3619 14.5581C19.2924 14.5291 19.218 14.5141 19.1429 14.5141C19.0677 14.5141 18.9933 14.5291 18.9238 14.5581C18.8544 14.5871 18.7914 14.6297 18.7383 14.6833L15.7143 17.7313L14.976 16.9863C14.8687 16.8782 14.7232 16.8175 14.5714 16.8175C14.4197 16.8175 14.2742 16.8782 14.1669 16.9863C14.0596 17.0944 13.9993 17.241 13.9993 17.3939C13.9993 17.5468 14.0596 17.6935 14.1669 17.8016L15.3097 18.9531C15.3628 19.0067 15.4259 19.0492 15.4953 19.0783C15.5647 19.1073 15.6391 19.1222 15.7143 19.1222C15.7894 19.1222 15.8639 19.1073 15.9333 19.0783C16.0027 19.0492 16.0658 19.0067 16.1189 18.9531L19.5474 15.4985C19.6006 15.4451 19.6429 15.3815 19.6717 15.3116C19.7005 15.2416 19.7153 15.1666 19.7153 15.0909C19.7153 15.0152 19.7005 14.9402 19.6717 14.8702C19.6429 14.8003 19.6006 14.7368 19.5474 14.6833Z" fill="#909090"/>
</svg>
