<svg width="24" height="24" viewBox="0 0 24 24" fill="none" xmlns="http://www.w3.org/2000/svg">
<path d="M12.0003 8C12.0003 9.06087 11.5789 10.0783 10.8287 10.8284C10.0785 11.5786 9.06109 12 8.00019 12C6.93929 12 5.92184 11.5786 5.17167 10.8284C4.4215 10.0783 4.00006 9.06087 4.00006 8C4.00006 6.93913 4.4215 5.92172 5.17167 5.17157C5.92184 4.42143 6.93929 4 8.00019 4C9.06109 4 10.0785 4.42143 10.8287 5.17157C11.5789 5.92172 12.0003 6.93913 12.0003 8ZM20.0006 9C20.0006 9.79565 19.6845 10.5587 19.1219 11.1213C18.5592 11.6839 17.7961 12 17.0005 12C16.2048 12 15.4417 11.6839 14.8791 11.1213C14.3165 10.5587 14.0004 9.79565 14.0004 9C14.0004 8.20435 14.3165 7.44129 14.8791 6.87868C15.4417 6.31607 16.2048 6 17.0005 6C17.7961 6 18.5592 6.31607 19.1219 6.87868C19.6845 7.44129 20.0006 8.20435 20.0006 9ZM2 16.25C2 15.6533 2.23706 15.081 2.65903 14.659C3.081 14.2371 3.65331 14 4.25007 14H11.7503C12.1203 14 12.4703 14.09 12.7773 14.248L10.5133 16.512C10.3507 16.6745 10.2218 16.8674 10.1339 17.0798C10.0459 17.2921 10.0006 17.5197 10.0006 17.7495C10.0006 17.9793 10.0459 18.2069 10.1339 18.4192C10.2218 18.6316 10.3507 18.8245 10.5133 18.987L11.6993 20.174C10.8333 20.664 9.64124 21 8.00019 21C2 21 2 16.5 2 16.5V16.25ZM20.2806 14.72C20.1384 14.5875 19.9503 14.5154 19.756 14.5188C19.5617 14.5223 19.3763 14.601 19.2389 14.7384C19.1015 14.8758 19.0228 15.0612 19.0194 15.2555C19.0159 15.4498 19.0881 15.6378 19.2205 15.78L20.4406 17H13.5604L14.7804 15.78C14.9129 15.6378 14.985 15.4498 14.9816 15.2555C14.9782 15.0612 14.8994 14.8758 14.762 14.7384C14.6246 14.601 14.4392 14.5223 14.2449 14.5188C14.0506 14.5154 13.8625 14.5875 13.7204 14.72L11.2203 17.22C11.0798 17.3606 11.0009 17.5512 11.0009 17.75C11.0009 17.9488 11.0798 18.1394 11.2203 18.28L13.7204 20.78C13.8625 20.9125 14.0506 20.9846 14.2449 20.9812C14.4392 20.9777 14.6246 20.899 14.762 20.7616C14.8994 20.6242 14.9782 20.4388 14.9816 20.2445C14.985 20.0502 14.9129 19.8622 14.7804 19.72L13.5604 18.5H20.4406L19.2205 19.72C19.0881 19.8622 19.0159 20.0502 19.0194 20.2445C19.0228 20.4388 19.1015 20.6242 19.2389 20.7616C19.3763 20.899 19.5617 20.9777 19.756 20.9812C19.9503 20.9846 20.1384 20.9125 20.2806 20.78L22.7807 18.28C22.9211 18.1394 23 17.9488 23 17.75C23 17.5512 22.9211 17.3606 22.7807 17.22L20.2806 14.72Z" fill="#909090"/>
</svg>
