<svg width="24" height="24" viewBox="0 0 24 24" fill="none" xmlns="http://www.w3.org/2000/svg">
<path d="M10.8817 2C9.62209 2 8.41407 2.49578 7.52339 3.37829C6.63271 4.26079 6.13233 5.45772 6.13233 6.70577C6.13233 7.95381 6.63271 9.15075 7.52339 10.0332C8.41407 10.9158 9.62209 11.4115 10.8817 11.4115C12.1413 11.4115 13.3493 10.9158 14.24 10.0332C15.1307 9.15075 15.6311 7.95381 15.6311 6.70577C15.6311 5.45772 15.1307 4.26079 14.24 3.37829C13.3493 2.49578 12.1413 2 10.8817 2ZM4.95568 12.588C4.64298 12.5867 4.3331 12.6467 4.04383 12.7643C3.75456 12.882 3.49157 13.0551 3.26996 13.2737C3.04835 13.4923 2.87247 13.7521 2.75241 14.0382C2.63235 14.3243 2.57047 14.631 2.57031 14.9409C2.57031 16.9302 3.55937 18.4302 5.10528 19.4078C6.35199 20.1949 7.95253 20.6419 9.70029 20.7784C9.71216 20.6584 9.73116 20.5372 9.76203 20.4148L10.2073 18.6525C10.3735 17.9913 10.7183 17.3873 11.2047 16.9055L15.5622 12.588H4.95687H4.95568ZM12.0441 17.7373L17.779 12.055C18.1956 11.6424 18.7606 11.4107 19.3496 11.4108C19.9387 11.4109 20.5036 11.6428 20.9201 12.0556C21.3365 12.4684 21.5704 13.0282 21.5703 13.6119C21.5702 14.1956 21.3361 14.7553 20.9195 15.1679L15.1846 20.849C14.8505 21.1801 14.4319 21.4152 13.9735 21.5289L12.1949 21.9689C12.018 22.0126 11.8328 22.0102 11.6571 21.962C11.4815 21.9137 11.3214 21.8213 11.1925 21.6937C11.0635 21.566 10.9701 21.4075 10.9213 21.2335C10.8724 21.0595 10.8698 20.876 10.9138 20.7007L11.359 18.9384C11.4729 18.4838 11.7102 18.0688 12.0453 17.7384L12.0441 17.7373Z" fill="#909090"/>
</svg>
