<svg width="56" height="57" viewBox="0 0 56 57" fill="none" xmlns="http://www.w3.org/2000/svg">
<path d="M36.7878 8.24316H42.2782C43.249 8.24316 44.1799 8.6288 44.8664 9.31523C45.5528 10.0017 45.9384 10.9327 45.9384 11.9034V48.5059C45.9384 49.4767 45.5528 50.4077 44.8664 51.0941C44.1799 51.7805 43.249 52.1662 42.2782 52.1662H12.9962C12.0254 52.1662 11.0944 51.7805 10.408 51.0941C9.72157 50.4077 9.33594 49.4767 9.33594 48.5059V11.9034C9.33594 10.9327 9.72157 10.0017 10.408 9.31523C11.0944 8.6288 12.0254 8.24316 12.9962 8.24316H18.4866" stroke="#F53527" stroke-width="3.5" stroke-linecap="round" stroke-linejoin="round"/>
<path d="M33.1254 4.58301H22.1446C20.1231 4.58301 18.4844 6.22176 18.4844 8.24326V10.0734C18.4844 12.0949 20.1231 13.7336 22.1446 13.7336H33.1254C35.1469 13.7336 36.7856 12.0949 36.7856 10.0734V8.24326C36.7856 6.22176 35.1469 4.58301 33.1254 4.58301Z" stroke="#F53527" stroke-width="3.5" stroke-linecap="round" stroke-linejoin="round"/>
<path d="M18.4844 33.8645L25.8049 39.3549L34.9555 24.7139" stroke="#F53527" stroke-width="3.5" stroke-linecap="round" stroke-linejoin="round"/>
</svg>
