<svg width="24" height="24" viewBox="0 0 24 24" fill="none" xmlns="http://www.w3.org/2000/svg">
<path d="M6.61505 3L6.615 6.60475L5.815 5.67453C5.665 5.50012 5.42 5.50012 5.27 5.67453C5.195 5.76174 5.16 5.87802 5.16 5.99429C5.16 6.08266 5.1824 6.17475 5.22976 6.25271L5.27 6.30824L6.725 8.00588C6.795 8.09309 16.895 8.1396 17 8.1396C17.0833 8.1396 17.1667 8.1073 17.2326 8.04606L17.27 8.00588L18.725 6.30824C18.875 6.13383 18.875 5.84895 18.725 5.67453C18.5886 5.51597 18.3738 5.50156 18.2231 5.63129L18.18 5.67453L17.385 6.60475L17.385 3H6.61505Z" fill="#909090"/>
<path d="M19.775 3.00017L17.385 3L17.385 6.60475L18.18 5.67453L18.2231 5.63129C18.3738 5.50156 18.5886 5.51597 18.725 5.67453C18.875 5.84895 18.875 6.13383 18.725 6.30824L17.27 8.00588L17.2326 8.04606C17.1667 8.1073 17.0833 8.1396 17 8.1396C16.895 8.1396 6.795 8.09309 6.725 8.00588L5.27 6.30824L5.22976 6.25271C5.1824 6.17475 5.16 6.08266 5.16 5.99429C5.16 5.87802 5.195 5.76174 5.27 5.67453C5.42 5.50012 5.665 5.50012 5.815 5.67453L6.615 6.60475L6.61505 3L4.215 3.00017L4.111 3.003C2.93895 3.06682 2 4.20347 2 5.58151L2 8.41285L2.00242 8.53475C2.05704 9.90822 3.03 11 4.22 11H11H13H19.78L19.884 10.9972C21.0563 10.9337 22 9.80252 22 8.42447V5.58733L21.9976 5.4659C21.9427 4.09744 20.965 3.00017 19.775 3.00017Z" fill="#909090"/>
<path d="M11 11V13H13V11H11Z" fill="#909090"/>
<path d="M6.61505 13L6.615 16.6047L5.815 15.6745C5.665 15.5001 5.42 15.5001 5.27 15.6745C5.195 15.7617 5.16 15.878 5.16 15.9943C5.16 16.0827 5.1824 16.1748 5.22976 16.2527L5.27 16.3082L6.725 18.0059C6.795 18.0931 16.895 18.1396 17 18.1396C17.0833 18.1396 17.1667 18.1073 17.2326 18.0461L17.27 18.0059L18.725 16.3082C18.875 16.1338 18.875 15.8489 18.725 15.6745C18.5886 15.516 18.3738 15.5016 18.2231 15.6313L18.18 15.6745L17.385 16.6047L17.385 13H6.61505Z" fill="#909090"/>
<path d="M19.775 13.0002L17.385 13L17.385 16.6047L18.18 15.6745L18.2231 15.6313C18.3738 15.5016 18.5886 15.516 18.725 15.6745C18.875 15.8489 18.875 16.1338 18.725 16.3082L17.27 18.0059L17.2326 18.0461C17.1667 18.1073 17.0833 18.1396 17 18.1396C16.895 18.1396 6.795 18.0931 6.725 18.0059L5.27 16.3082L5.22976 16.2527C5.1824 16.1748 5.16 16.0827 5.16 15.9943C5.16 15.878 5.195 15.7617 5.27 15.6745C5.42 15.5001 5.665 15.5001 5.815 15.6745L6.615 16.6047L6.61505 13L4.215 13.0002L4.111 13.003C2.93895 13.0668 2 14.2035 2 15.5815L2 18.4128L2.00242 18.5347C2.05704 19.9082 3.03 21 4.22 21H19.78L19.884 20.9972C21.0563 20.9337 22 19.8025 22 18.4245V15.5873L21.9976 15.4659C21.9427 14.0974 20.965 13.0002 19.775 13.0002Z" fill="#909090"/>
</svg>
