<svg width="56" height="57" viewBox="0 0 56 57" fill="none" xmlns="http://www.w3.org/2000/svg">
<path d="M16.3337 13.9746C14.1948 15.6857 12.493 17.7958 11.2283 20.3049C9.96366 22.8141 9.3321 25.5456 9.33366 28.4996C9.33366 32.9718 10.6948 36.8708 13.417 40.1966C16.1392 43.5224 19.5809 45.6706 23.742 46.6413C24.3253 46.7968 24.792 47.1375 25.142 47.6633C25.492 48.1891 25.667 48.7623 25.667 49.3829C25.667 50.0052 25.4531 50.5302 25.0253 50.9579C24.5975 51.3857 24.1114 51.5413 23.567 51.4246C18.1225 50.4135 13.6114 47.7792 10.0337 43.5216C6.45588 39.2641 4.66699 34.2567 4.66699 28.4996C4.66699 24.9607 5.3771 21.6941 6.79733 18.6996C8.21755 15.7052 10.1519 13.1385 12.6003 10.9996H9.33366C8.67255 10.9996 8.11799 10.7756 7.66999 10.3276C7.22199 9.87961 6.99877 9.32583 7.00033 8.66628C7.00033 8.00517 7.22433 7.45061 7.67233 7.00261C8.12033 6.55461 8.6741 6.33139 9.33366 6.33294H18.667C19.3281 6.33294 19.8827 6.55694 20.3307 7.00494C20.7787 7.45294 21.0019 8.00672 21.0003 8.66628V17.9996C21.0003 18.6607 20.7763 19.2153 20.3283 19.6633C19.8803 20.1113 19.3265 20.3345 18.667 20.3329C18.0059 20.3329 17.4513 20.1089 17.0033 19.6609C16.5553 19.2129 16.3321 18.6592 16.3337 17.9996V13.9746ZM24.6753 32.6413L36.2837 21.0329C36.7503 20.5663 37.2948 20.3423 37.917 20.3609C38.5392 20.3796 39.0837 20.6231 39.5503 21.0913C39.9781 21.5579 40.2021 22.1024 40.2223 22.7246C40.2425 23.3468 40.0185 23.8913 39.5503 24.3579L26.3087 37.5996C25.842 38.0663 25.2975 38.2996 24.6753 38.2996C24.0531 38.2996 23.5087 38.0663 23.042 37.5996L16.4503 30.9496C16.0225 30.5218 15.7993 29.9867 15.7807 29.3443C15.762 28.7018 15.9852 28.1481 16.4503 27.6829C16.8781 27.2552 17.4225 27.0413 18.0837 27.0413C18.7448 27.0413 19.2892 27.2552 19.717 27.6829L24.6753 32.6413ZM43.4003 45.9996H46.667C47.3281 45.9996 47.8827 46.2236 48.3307 46.6716C48.7787 47.1196 49.0019 47.6734 49.0003 48.3329C49.0003 48.9941 48.7763 49.5486 48.3283 49.9966C47.8803 50.4446 47.3265 50.6678 46.667 50.6663H37.3337C36.6725 50.6663 36.118 50.4423 35.67 49.9943C35.222 49.5463 34.9988 48.9925 35.0003 48.3329V38.9996C35.0003 38.3385 35.2243 37.7839 35.6723 37.3359C36.1203 36.8879 36.6741 36.6647 37.3337 36.6663C37.9948 36.6663 38.5493 36.8903 38.9973 37.3383C39.4453 37.7863 39.6685 38.3401 39.667 38.9996V43.0246C41.8059 41.2746 43.5077 39.1552 44.7723 36.6663C46.037 34.1774 46.6685 31.4552 46.667 28.4996C46.667 24.0274 45.3059 20.1284 42.5837 16.8026C39.8614 13.4768 36.4198 11.3286 32.2587 10.3579C31.6753 10.2024 31.2087 9.8625 30.8587 9.33828C30.5087 8.81405 30.3337 8.24005 30.3337 7.61628C30.3337 6.99405 30.5475 6.46905 30.9753 6.04128C31.4031 5.6135 31.8892 5.45794 32.4337 5.57461C37.8781 6.58572 42.3892 9.22083 45.967 13.4799C49.5448 17.7391 51.3337 22.7456 51.3337 28.4996C51.3337 32.0385 50.6235 35.3052 49.2033 38.2996C47.7831 41.2941 45.8488 43.8607 43.4003 45.9996Z" fill="#4466F5"/>
</svg>
