<svg width="24" height="24" viewBox="0 0 24 24" fill="none" xmlns="http://www.w3.org/2000/svg">
<path d="M15.7796 2.69767C15.7796 2.51264 15.6999 2.33518 15.5582 2.20434C15.4164 2.0735 15.2241 2 15.0236 2C14.8231 2 14.6308 2.0735 14.489 2.20434C14.3472 2.33518 14.2676 2.51264 14.2676 2.69767V21.3023C14.2676 21.4874 14.3472 21.6648 14.489 21.7957C14.6308 21.9265 14.8231 22 15.0236 22C15.2241 22 15.4164 21.9265 15.5582 21.7957C15.6999 21.6648 15.7796 21.4874 15.7796 21.3023V19.4363C18.4367 19.4112 19.9165 19.2586 20.8983 18.3516C22.0797 17.2623 22.0797 15.5079 22.0797 12C22.0797 8.49209 22.0797 6.73767 20.8983 5.64837C19.9165 4.7414 18.4367 4.58884 15.7796 4.56372V2.69767Z" fill="#909090"/>
<path fill-rule="evenodd" clip-rule="evenodd" d="M3.10132 18.3521C4.2817 19.4423 6.18282 19.4423 9.98404 19.4423H13.0081V4.55859H9.98404C6.18282 4.55859 4.2817 4.55859 3.10132 5.64883C1.91992 6.73813 1.91992 8.49255 1.91992 12.0005C1.91992 15.5084 1.91992 17.2628 3.10132 18.3521ZM13.0081 12.0005C13.0081 11.7537 12.9019 11.5171 12.7128 11.3427C12.5238 11.1682 12.2674 11.0702 12.0001 11.0702C11.7327 11.0702 11.4763 11.1682 11.2873 11.3427C11.0983 11.5171 10.9921 11.7537 10.9921 12.0005C10.9921 12.2472 11.0983 12.4838 11.2873 12.6582C11.4763 12.8327 11.7327 12.9307 12.0001 12.9307C12.2674 12.9307 12.5238 12.8327 12.7128 12.6582C12.9019 12.4838 13.0081 12.2472 13.0081 12.0005ZM8.97603 12.0005C8.97603 12.2472 8.86982 12.4838 8.68079 12.6582C8.49175 12.8327 8.23535 12.9307 7.96801 12.9307C7.70067 12.9307 7.44428 12.8327 7.25524 12.6582C7.0662 12.4838 6.96 12.2472 6.96 12.0005C6.96 11.7537 7.0662 11.5171 7.25524 11.3427C7.44428 11.1682 7.70067 11.0702 7.96801 11.0702C8.23535 11.0702 8.49175 11.1682 8.68079 11.3427C8.86982 11.5171 8.97603 11.7537 8.97603 12.0005Z" fill="#909090"/>
</svg>
