<svg width="24" height="24" viewBox="0 0 24 24" fill="none" xmlns="http://www.w3.org/2000/svg">
<path d="M8 11.1905C8.28333 11.1905 8.521 11.0925 8.713 10.8964C8.905 10.7004 9.00067 10.458 9 10.1693C9 9.88002 8.904 9.63732 8.712 9.44125C8.52 9.24519 8.28267 9.1475 8 9.14818C7.71667 9.14818 7.479 9.24621 7.287 9.44228C7.095 9.63834 6.99933 9.8807 7 10.1693C7 10.4587 7.096 10.7014 7.288 10.8974C7.48 11.0935 7.71733 11.1912 8 11.1905ZM12 11.1905C12.2833 11.1905 12.521 11.0925 12.713 10.8964C12.905 10.7004 13.0007 10.458 13 10.1693C13 9.88002 12.904 9.63732 12.712 9.44125C12.52 9.24519 12.2827 9.1475 12 9.14818C11.7167 9.14818 11.479 9.24621 11.287 9.44228C11.095 9.63834 10.9993 9.8807 11 10.1693C11 10.4587 11.096 10.7014 11.288 10.8974C11.48 11.0935 11.7173 11.1912 12 11.1905ZM16 11.1905C16.2833 11.1905 16.521 11.0925 16.713 10.8964C16.905 10.7004 17.0007 10.458 17 10.1693C17 9.88002 16.904 9.63732 16.712 9.44125C16.52 9.24519 16.2827 9.1475 16 9.14818C15.7167 9.14818 15.479 9.24621 15.287 9.44228C15.095 9.63834 14.9993 9.8807 15 10.1693C15 10.4587 15.096 10.7014 15.288 10.8974C15.48 11.0935 15.7173 11.1912 16 11.1905ZM6 18.3387L3.7 20.6874C3.38333 21.0107 3.02067 21.0833 2.612 20.9049C2.20333 20.7265 1.99933 20.4072 2 19.947V4.04234C2 3.4807 2.196 2.99973 2.588 2.59943C2.98 2.19913 3.45067 1.99932 4 2H20C20.55 2 21.021 2.20015 21.413 2.60045C21.805 3.00075 22.0007 3.48138 22 4.04234V16.2964C22 16.858 21.804 17.339 21.412 17.7393C21.02 18.1396 20.5493 18.3394 20 18.3387H6Z" fill="#909090"/>
</svg>
