<svg width="40" height="41" viewBox="0 0 40 41" fill="none" xmlns="http://www.w3.org/2000/svg">
<g clip-path="url(#clip0_5339_10036)">
<path d="M20 0.5C14.6969 0.5 9.60625 2.60844 5.85938 6.35781C2.10863 10.1087 0.00103897 15.1956 0 20.5C0 25.8022 2.10938 30.8928 5.85938 34.6422C9.60625 38.3916 14.6969 40.5 20 40.5C25.3031 40.5 30.3937 38.3916 34.1406 34.6422C37.8906 30.8928 40 25.8022 40 20.5C40 15.1978 37.8906 10.1072 34.1406 6.35781C30.3937 2.60844 25.3031 0.5 20 0.5Z" fill="url(#paint0_linear_5339_10036)"/>
<path d="M10.9372 19.15C16.3069 16.3278 19.8867 14.4671 21.6766 13.5681C26.7931 11.0011 27.855 10.5553 28.5485 10.5402C28.701 10.5372 29.0406 10.5827 29.2622 10.7988C29.4463 10.9811 29.4981 11.2277 29.524 11.4008C29.547 11.5737 29.5787 11.9678 29.5528 12.2754C29.2765 15.7893 28.0766 24.3163 27.4665 28.252C27.2104 29.9173 26.701 30.4756 26.209 30.5301C25.1385 30.6489 24.327 29.6774 23.291 28.8583C21.6709 27.576 20.7558 26.7781 19.1817 25.527C17.363 24.0812 18.5429 23.2864 19.5788 21.9878C19.8493 21.6479 24.5629 16.4761 24.6521 16.007C24.6637 15.9483 24.6752 15.7295 24.5658 15.6143C24.4593 15.4986 24.3011 15.5382 24.186 15.5695C24.0219 15.6139 21.4349 17.6792 16.4163 21.7649C15.6825 22.3739 15.0177 22.6708 14.4192 22.6552C13.7631 22.6382 12.4969 22.2066 11.5559 21.8378C10.4048 21.3854 9.48685 21.1462 9.56743 20.3778C9.60772 19.9778 10.0653 19.5684 10.9372 19.15Z" fill="white"/>
</g>
<defs>
<linearGradient id="paint0_linear_5339_10036" x1="20" y1="0.5" x2="20" y2="40.5" gradientUnits="userSpaceOnUse">
<stop stop-color="#2AABEE"/>
<stop offset="1" stop-color="#229ED9"/>
</linearGradient>
<clipPath id="clip0_5339_10036">
<rect width="40" height="40" fill="white" transform="translate(0 0.5)"/>
</clipPath>
</defs>
</svg>
