<svg width="24" height="24" viewBox="0 0 24 24" fill="none" xmlns="http://www.w3.org/2000/svg">
<path fill-rule="evenodd" clip-rule="evenodd" d="M19.761 12.001C19.761 12.8145 20.429 13.4764 21.25 13.4764C21.664 13.4764 22 13.8093 22 14.2195V16.8958C22 19.159 20.142 21 17.858 21H6.143C3.859 21 2 19.159 2 16.8958V14.2195C2 13.8093 2.336 13.4764 2.75 13.4764C3.572 13.4764 4.24 12.8145 4.24 12.001C4.24 11.2083 3.599 10.6118 2.75 10.6118C2.551 10.6118 2.361 10.5335 2.22 10.3938C2.079 10.2541 2 10.0648 2 9.86866L2.002 7.10514C2.002 4.84201 3.86 3 6.144 3H17.856C20.14 3 21.999 4.84201 21.999 7.10514L22 9.78245C22 9.97864 21.921 10.1689 21.781 10.3076C21.64 10.4473 21.45 10.5256 21.25 10.5256C20.429 10.5256 19.761 11.1875 19.761 12.001ZM14.2528 12.648L15.4318 11.5105C15.6368 11.3143 15.7078 11.025 15.6188 10.7574C15.5308 10.4899 15.3008 10.2996 15.0228 10.261L13.3938 10.0252L12.6648 8.56267C12.5398 8.31099 12.2858 8.15443 12.0028 8.15344H12.0008C11.7188 8.15344 11.4648 8.31 11.3378 8.56168L10.6088 10.0252L8.9828 10.26C8.7018 10.2996 8.4718 10.4899 8.3828 10.7574C8.2948 11.025 8.3658 11.3143 8.5698 11.5105L9.7488 12.648L9.4708 14.2562C9.4228 14.5336 9.5358 14.8091 9.7658 14.9745C9.8958 15.0667 10.0468 15.1142 10.1998 15.1142C10.3168 15.1142 10.4348 15.0855 10.5428 15.029L12.0008 14.27L13.4558 15.0271C13.7078 15.1608 14.0068 15.14 14.2358 14.9735C14.4668 14.8091 14.5798 14.5336 14.5318 14.2562L14.2528 12.648Z" fill="#909090"/>
</svg>
