<svg width="250" height="250" viewBox="0 0 250 250" fill="none" xmlns="http://www.w3.org/2000/svg">
<rect x="0.5" y="0.5" width="249" height="249" rx="19.5" fill="#F4F5F6"/>
<path fill-rule="evenodd" clip-rule="evenodd" d="M117.921 101.569C119.131 99.6958 120.901 98.2526 122.979 97.4446C125.057 96.6365 127.337 96.505 129.495 97.0686C131.652 97.6322 133.576 98.8622 134.994 100.583C136.411 102.305 137.249 104.429 137.389 106.655C138.547 106.622 139.7 106.819 140.782 107.234C141.863 107.649 142.852 108.275 143.69 109.074C144.529 109.874 145.201 110.831 145.667 111.892C146.133 112.952 146.385 114.095 146.408 115.253C146.43 116.411 146.223 117.563 145.798 118.641C145.373 119.718 144.739 120.701 143.932 121.533C143.125 122.364 142.161 123.027 141.097 123.484C140.032 123.941 138.887 124.183 137.729 124.195H115.001C113.367 124.193 111.753 123.844 110.265 123.169C108.777 122.495 107.45 121.511 106.372 120.284C105.294 119.057 104.489 117.614 104.013 116.051C103.536 114.489 103.397 112.843 103.606 111.223C103.815 109.603 104.367 108.046 105.225 106.655C106.083 105.265 107.227 104.074 108.581 103.16C109.936 102.247 111.469 101.633 113.08 101.358C114.69 101.084 116.34 101.155 117.921 101.569ZM131.173 111.939C131.05 112.093 130.897 112.221 130.725 112.316C130.552 112.411 130.362 112.471 130.166 112.493C129.97 112.515 129.772 112.498 129.583 112.443C129.393 112.388 129.217 112.296 129.063 112.173L126.501 110.121V117.001C126.501 117.398 126.343 117.78 126.061 118.061C125.78 118.343 125.398 118.501 125.001 118.501C124.603 118.501 124.221 118.343 123.94 118.061C123.659 117.78 123.501 117.398 123.501 117.001V110.121L120.937 112.171C120.783 112.294 120.606 112.385 120.417 112.44C120.228 112.495 120.029 112.512 119.834 112.49C119.638 112.468 119.448 112.408 119.275 112.313C119.103 112.218 118.951 112.09 118.828 111.936C118.705 111.782 118.613 111.605 118.558 111.416C118.504 111.227 118.487 111.028 118.508 110.832C118.53 110.637 118.59 110.447 118.685 110.274C118.781 110.102 118.909 109.95 119.063 109.827L124.059 105.833C124.322 105.619 124.65 105.501 124.989 105.499H125.005C125.365 105.499 125.693 105.627 125.951 105.839L130.939 109.827C131.093 109.95 131.221 110.102 131.316 110.275C131.411 110.447 131.471 110.637 131.493 110.833C131.515 111.029 131.498 111.227 131.443 111.417C131.388 111.606 131.296 111.785 131.173 111.939Z" fill="#909090"/>
<path d="M66.4091 159.818V155.75H67.1591C67.4167 155.515 67.6591 155.184 67.8864 154.756C68.1174 154.324 68.3125 153.748 68.4716 153.028C68.6345 152.305 68.7424 151.386 68.7955 150.273L69.0455 145.364H75.9545V155.75H77.2955V159.795H75.9545V157H67.75V159.818H66.4091ZM68.8409 155.75H74.6136V146.614H70.3182L70.1364 150.273C70.0909 151.121 70.0114 151.89 69.8977 152.58C69.7841 153.265 69.6383 153.873 69.4602 154.403C69.2822 154.93 69.0758 155.379 68.8409 155.75ZM82.7884 157.182C82.0005 157.182 81.3092 156.994 80.7145 156.619C80.1236 156.244 79.6615 155.72 79.3281 155.045C78.9986 154.371 78.8338 153.583 78.8338 152.682C78.8338 151.773 78.9986 150.979 79.3281 150.301C79.6615 149.623 80.1236 149.097 80.7145 148.722C81.3092 148.347 82.0005 148.159 82.7884 148.159C83.5762 148.159 84.2656 148.347 84.8565 148.722C85.4512 149.097 85.9134 149.623 86.2429 150.301C86.5762 150.979 86.7429 151.773 86.7429 152.682C86.7429 153.583 86.5762 154.371 86.2429 155.045C85.9134 155.72 85.4512 156.244 84.8565 156.619C84.2656 156.994 83.5762 157.182 82.7884 157.182ZM82.7884 155.977C83.3868 155.977 83.8793 155.824 84.2656 155.517C84.652 155.21 84.938 154.807 85.1236 154.307C85.3092 153.807 85.402 153.265 85.402 152.682C85.402 152.098 85.3092 151.555 85.1236 151.051C84.938 150.547 84.652 150.14 84.2656 149.83C83.8793 149.519 83.3868 149.364 82.7884 149.364C82.1899 149.364 81.6974 149.519 81.3111 149.83C80.9247 150.14 80.6387 150.547 80.4531 151.051C80.2675 151.555 80.1747 152.098 80.1747 152.682C80.1747 153.265 80.2675 153.807 80.4531 154.307C80.6387 154.807 80.9247 155.21 81.3111 155.517C81.6974 155.824 82.1899 155.977 82.7884 155.977ZM95.267 145L95.9489 145.818C95.6837 146.076 95.3769 146.256 95.0284 146.358C94.6799 146.46 94.286 146.523 93.8466 146.545C93.4072 146.568 92.9186 146.591 92.3807 146.614C91.7746 146.636 91.2727 146.784 90.875 147.057C90.4773 147.33 90.1705 147.723 89.9545 148.239C89.7386 148.754 89.6004 149.386 89.5398 150.136H89.6534C89.9489 149.591 90.358 149.189 90.8807 148.932C91.4034 148.674 91.964 148.545 92.5625 148.545C93.2443 148.545 93.858 148.705 94.4034 149.023C94.9489 149.341 95.3807 149.812 95.6989 150.438C96.017 151.062 96.1761 151.833 96.1761 152.75C96.1761 153.663 96.0133 154.451 95.6875 155.114C95.3655 155.777 94.9129 156.288 94.3295 156.648C93.75 157.004 93.0701 157.182 92.2898 157.182C91.5095 157.182 90.8258 156.998 90.2386 156.631C89.6515 156.259 89.1951 155.71 88.8693 154.983C88.5436 154.252 88.3807 153.348 88.3807 152.273V151.341C88.3807 149.398 88.7102 147.924 89.3693 146.92C90.0322 145.917 91.0284 145.398 92.358 145.364C92.8277 145.348 93.2462 145.345 93.6136 145.352C93.9811 145.36 94.3011 145.343 94.5739 145.301C94.8466 145.259 95.0777 145.159 95.267 145ZM92.2898 155.977C92.8163 155.977 93.2689 155.845 93.6477 155.58C94.0303 155.314 94.3239 154.941 94.5284 154.46C94.733 153.975 94.8352 153.405 94.8352 152.75C94.8352 152.114 94.7311 151.572 94.5227 151.125C94.3182 150.678 94.0246 150.337 93.642 150.102C93.2595 149.867 92.8011 149.75 92.267 149.75C91.8769 149.75 91.5265 149.816 91.2159 149.949C90.9053 150.081 90.6402 150.277 90.4205 150.534C90.2008 150.792 90.0303 151.106 89.9091 151.477C89.7917 151.848 89.7292 152.273 89.7216 152.75C89.7216 153.727 89.9508 154.509 90.4091 155.097C90.8674 155.684 91.4943 155.977 92.2898 155.977ZM100.795 157.205C100.242 157.205 99.7405 157.1 99.2898 156.892C98.839 156.68 98.4811 156.375 98.2159 155.977C97.9508 155.576 97.8182 155.091 97.8182 154.523C97.8182 154.023 97.9167 153.617 98.1136 153.307C98.3106 152.992 98.5739 152.746 98.9034 152.568C99.233 152.39 99.5966 152.258 99.9943 152.17C100.396 152.08 100.799 152.008 101.205 151.955C101.735 151.886 102.165 151.835 102.494 151.801C102.828 151.763 103.07 151.701 103.222 151.614C103.377 151.527 103.455 151.375 103.455 151.159V151.114C103.455 150.553 103.301 150.117 102.994 149.807C102.691 149.496 102.231 149.341 101.614 149.341C100.973 149.341 100.472 149.481 100.108 149.761C99.7443 150.042 99.4886 150.341 99.3409 150.659L98.0682 150.205C98.2955 149.674 98.5985 149.261 98.9773 148.966C99.3598 148.667 99.7765 148.458 100.227 148.341C100.682 148.22 101.129 148.159 101.568 148.159C101.848 148.159 102.17 148.193 102.534 148.261C102.902 148.326 103.256 148.46 103.597 148.665C103.941 148.869 104.227 149.178 104.455 149.591C104.682 150.004 104.795 150.557 104.795 151.25V157H103.455V155.818H103.386C103.295 156.008 103.144 156.21 102.932 156.426C102.72 156.642 102.438 156.826 102.085 156.977C101.733 157.129 101.303 157.205 100.795 157.205ZM101 156C101.53 156 101.977 155.896 102.341 155.688C102.708 155.479 102.985 155.21 103.17 154.881C103.36 154.551 103.455 154.205 103.455 153.841V152.614C103.398 152.682 103.273 152.744 103.08 152.801C102.89 152.854 102.67 152.902 102.42 152.943C102.174 152.981 101.934 153.015 101.699 153.045C101.468 153.072 101.28 153.095 101.136 153.114C100.788 153.159 100.462 153.233 100.159 153.335C99.8598 153.434 99.6174 153.583 99.4318 153.784C99.25 153.981 99.1591 154.25 99.1591 154.591C99.1591 155.057 99.3314 155.409 99.6761 155.648C100.025 155.883 100.466 156 101 156ZM107.243 157V148.273H110.811C111.75 148.273 112.497 148.485 113.05 148.909C113.603 149.333 113.879 149.894 113.879 150.591C113.879 151.121 113.722 151.532 113.408 151.824C113.093 152.112 112.69 152.307 112.197 152.409C112.519 152.455 112.832 152.568 113.135 152.75C113.442 152.932 113.696 153.182 113.896 153.5C114.097 153.814 114.197 154.201 114.197 154.659C114.197 155.106 114.084 155.506 113.857 155.858C113.629 156.21 113.304 156.489 112.879 156.693C112.455 156.898 111.947 157 111.357 157H107.243ZM108.516 155.773H111.357C111.819 155.773 112.18 155.663 112.442 155.443C112.703 155.223 112.834 154.924 112.834 154.545C112.834 154.095 112.703 153.741 112.442 153.483C112.18 153.222 111.819 153.091 111.357 153.091H108.516V155.773ZM108.516 151.932H110.811C111.171 151.932 111.48 151.883 111.737 151.784C111.995 151.682 112.192 151.538 112.328 151.352C112.468 151.163 112.538 150.939 112.538 150.682C112.538 150.314 112.385 150.027 112.078 149.818C111.771 149.606 111.349 149.5 110.811 149.5H108.516V151.932ZM117.568 155.023L121.773 148.273H123.318V157H121.977V150.25L117.795 157H116.227V148.273H117.568V155.023ZM124.587 149.523V148.273H131.678V149.523H128.814V157H127.473V149.523H124.587ZM134.793 151.432H137.293C138.315 151.432 139.098 151.691 139.639 152.21C140.181 152.729 140.452 153.386 140.452 154.182C140.452 154.705 140.33 155.18 140.088 155.608C139.846 156.032 139.49 156.371 139.02 156.625C138.55 156.875 137.974 157 137.293 157H133.634V148.273H134.974V155.75H137.293C137.823 155.75 138.259 155.61 138.599 155.33C138.94 155.049 139.111 154.689 139.111 154.25C139.111 153.788 138.94 153.411 138.599 153.119C138.259 152.828 137.823 152.682 137.293 152.682H134.793V151.432ZM150.538 159.977V145.364H151.879V159.977H150.538ZM150.538 157.182C149.947 157.182 149.41 157.076 148.925 156.864C148.44 156.648 148.023 156.343 147.675 155.949C147.326 155.551 147.057 155.076 146.868 154.523C146.679 153.97 146.584 153.356 146.584 152.682C146.584 152 146.679 151.383 146.868 150.83C147.057 150.273 147.326 149.795 147.675 149.398C148.023 149 148.44 148.695 148.925 148.483C149.41 148.267 149.947 148.159 150.538 148.159H150.947V157.182H150.538ZM150.538 155.977H150.766V149.364H150.538C150.091 149.364 149.703 149.455 149.374 149.636C149.044 149.814 148.771 150.059 148.555 150.369C148.343 150.676 148.184 151.028 148.078 151.426C147.976 151.824 147.925 152.242 147.925 152.682C147.925 153.265 148.018 153.807 148.203 154.307C148.389 154.807 148.675 155.21 149.061 155.517C149.447 155.824 149.94 155.977 150.538 155.977ZM151.879 157.182H151.47V148.159H151.879C152.47 148.159 153.008 148.267 153.493 148.483C153.978 148.695 154.394 149 154.743 149.398C155.091 149.795 155.36 150.273 155.55 150.83C155.739 151.383 155.834 152 155.834 152.682C155.834 153.356 155.739 153.97 155.55 154.523C155.36 155.076 155.091 155.551 154.743 155.949C154.394 156.343 153.978 156.648 153.493 156.864C153.008 157.076 152.47 157.182 151.879 157.182ZM151.879 155.977C152.33 155.977 152.718 155.89 153.044 155.716C153.374 155.538 153.644 155.295 153.857 154.989C154.072 154.678 154.232 154.326 154.334 153.932C154.44 153.534 154.493 153.117 154.493 152.682C154.493 152.098 154.4 151.555 154.214 151.051C154.029 150.547 153.743 150.14 153.357 149.83C152.97 149.519 152.478 149.364 151.879 149.364H151.652V155.977H151.879ZM161.429 157.182C160.641 157.182 159.95 156.994 159.355 156.619C158.764 156.244 158.302 155.72 157.969 155.045C157.639 154.371 157.474 153.583 157.474 152.682C157.474 151.773 157.639 150.979 157.969 150.301C158.302 149.623 158.764 149.097 159.355 148.722C159.95 148.347 160.641 148.159 161.429 148.159C162.217 148.159 162.906 148.347 163.497 148.722C164.092 149.097 164.554 149.623 164.884 150.301C165.217 150.979 165.384 151.773 165.384 152.682C165.384 153.583 165.217 154.371 164.884 155.045C164.554 155.72 164.092 156.244 163.497 156.619C162.906 156.994 162.217 157.182 161.429 157.182ZM161.429 155.977C162.027 155.977 162.52 155.824 162.906 155.517C163.293 155.21 163.579 154.807 163.764 154.307C163.95 153.807 164.043 153.265 164.043 152.682C164.043 152.098 163.95 151.555 163.764 151.051C163.579 150.547 163.293 150.14 162.906 149.83C162.52 149.519 162.027 149.364 161.429 149.364C160.83 149.364 160.338 149.519 159.952 149.83C159.565 150.14 159.279 150.547 159.094 151.051C158.908 151.555 158.815 152.098 158.815 152.682C158.815 153.265 158.908 153.807 159.094 154.307C159.279 154.807 159.565 155.21 159.952 155.517C160.338 155.824 160.83 155.977 161.429 155.977ZM166.29 149.523V148.273H173.381V149.523H170.517V157H169.176V149.523H166.29ZM178.429 157.182C177.641 157.182 176.95 156.994 176.355 156.619C175.764 156.244 175.302 155.72 174.969 155.045C174.639 154.371 174.474 153.583 174.474 152.682C174.474 151.773 174.639 150.979 174.969 150.301C175.302 149.623 175.764 149.097 176.355 148.722C176.95 148.347 177.641 148.159 178.429 148.159C179.217 148.159 179.906 148.347 180.497 148.722C181.092 149.097 181.554 149.623 181.884 150.301C182.217 150.979 182.384 151.773 182.384 152.682C182.384 153.583 182.217 154.371 181.884 155.045C181.554 155.72 181.092 156.244 180.497 156.619C179.906 156.994 179.217 157.182 178.429 157.182ZM178.429 155.977C179.027 155.977 179.52 155.824 179.906 155.517C180.293 155.21 180.579 154.807 180.764 154.307C180.95 153.807 181.043 153.265 181.043 152.682C181.043 152.098 180.95 151.555 180.764 151.051C180.579 150.547 180.293 150.14 179.906 149.83C179.52 149.519 179.027 149.364 178.429 149.364C177.83 149.364 177.338 149.519 176.952 149.83C176.565 150.14 176.279 150.547 176.094 151.051C175.908 151.555 175.815 152.098 175.815 152.682C175.815 153.265 175.908 153.807 176.094 154.307C176.279 154.807 176.565 155.21 176.952 155.517C177.338 155.824 177.83 155.977 178.429 155.977Z" fill="#595F6C"/>
<rect x="0.5" y="0.5" width="249" height="249" rx="19.5" stroke="#595F6C" stroke-dasharray="8 8"/>
</svg>
