<svg width="40" height="41" viewBox="0 0 40 41" fill="none" xmlns="http://www.w3.org/2000/svg">
<rect y="0.5" width="40" height="40" rx="20" fill="#A281ED"/>
<path d="M27.7446 12.4475C27.2215 11.9905 25.1044 10.5337 20.3841 10.5142C20.3841 10.5142 14.8195 10.1978 12.1093 12.5569C10.6018 13.9864 10.0704 16.0838 10.0128 18.6811C9.95512 21.2784 9.8851 26.145 14.8319 27.4651H14.836L14.8319 29.4805C14.8319 29.4805 14.7989 30.2968 15.3673 30.4609C16.0511 30.664 16.4547 30.0429 17.1096 29.3751C17.468 29.0079 17.9622 28.4689 18.3371 28.0588C21.7228 28.3283 24.3218 27.7112 24.6184 27.6214C25.3021 27.4105 29.1697 26.9418 29.7958 22.0752C30.4466 17.0524 29.4828 13.8809 27.7446 12.4475ZM28.3171 21.7081C27.7858 25.77 24.6513 26.0278 24.0747 26.2036C23.8275 26.2778 21.5415 26.8168 18.6707 26.641C18.6707 26.641 16.5289 29.0899 15.8616 29.7266C15.6433 29.9336 15.4044 29.9141 15.4085 29.504C15.4085 29.2345 15.425 26.1567 15.425 26.1567C15.4209 26.1567 15.4209 26.1567 15.425 26.1567C11.232 25.0553 11.4791 20.9113 11.5244 18.7436C11.5697 16.5759 12.0022 14.7988 13.2791 13.6036C15.5733 11.6312 20.2976 11.9241 20.2976 11.9241C24.2888 11.9398 26.2 13.0802 26.6448 13.463C28.1153 14.6582 28.8649 17.5172 28.3171 21.7081ZM22.5919 18.5522C22.6083 18.8881 22.077 18.9115 22.0605 18.5756C22.0152 17.7164 21.591 17.2985 20.7178 17.2516C20.3635 17.2321 20.3965 16.7282 20.7466 16.7477C21.8958 16.8063 22.5342 17.4313 22.5919 18.5522ZM23.428 18.9936C23.4692 17.3375 22.3777 16.0408 20.3059 15.8963C19.9558 15.8729 19.9928 15.369 20.3429 15.3924C22.7319 15.5565 24.0046 17.1149 23.9593 19.0053C23.9552 19.3412 23.4198 19.3255 23.428 18.9936ZM25.3639 19.5169C25.368 19.8528 24.8325 19.8567 24.8325 19.5208C24.8078 16.3376 22.5713 14.6035 19.8569 14.584C19.5068 14.58 19.5068 14.0801 19.8569 14.0801C22.8925 14.0996 25.335 16.0877 25.3639 19.5169ZM24.8984 23.3485V23.3563C24.4536 24.0984 23.6216 24.9186 22.7649 24.6569L22.7566 24.6452C21.8875 24.4147 19.8404 23.4149 18.5471 22.4384C17.8799 21.9385 17.2703 21.3487 16.8007 20.7824C16.3765 20.2785 15.9481 19.681 15.5321 18.9623C14.6548 17.4586 14.4612 16.7868 14.4612 16.7868C14.1852 15.9744 15.0461 15.1854 15.8328 14.7636H15.841C16.2199 14.5761 16.5824 14.6386 16.8254 14.9159C16.8254 14.9159 17.3362 15.494 17.5545 15.7791C17.7604 16.0447 18.0364 16.4704 18.1805 16.7087C18.4318 17.1344 18.2753 17.568 18.0281 17.7476L17.5339 18.1226C17.2826 18.314 17.3156 18.6694 17.3156 18.6694C17.3156 18.6694 18.0487 21.298 20.7878 21.9619C20.7878 21.9619 21.1626 21.9932 21.3644 21.7549L21.7598 21.2862C21.9493 21.0519 22.4065 20.9035 22.8555 21.1417C23.4609 21.4659 24.2312 21.9697 24.7419 22.4267C25.0302 22.6493 25.0961 22.9891 24.8984 23.3485Z" fill="white"/>
</svg>
