<svg width="24" height="24" viewBox="0 0 24 24" fill="none" xmlns="http://www.w3.org/2000/svg">
<path fill-rule="evenodd" clip-rule="evenodd" d="M17.7689 8.3818H22C22 4.98459 19.9644 3 16.5156 3H7.48444C4.03556 3 2 4.98459 2 8.33847V15.6615C2 19.0154 4.03556 21 7.48444 21H16.5156C19.9644 21 22 19.0154 22 15.6615V15.3495H17.7689C15.8052 15.3495 14.2133 13.7975 14.2133 11.883C14.2133 9.96849 15.8052 8.41647 17.7689 8.41647V8.3818ZM17.7689 9.87241H21.2533C21.6657 9.87241 22 10.1983 22 10.6004V13.131C21.9952 13.5311 21.6637 13.8543 21.2533 13.8589H17.8489C16.8548 13.872 15.9855 13.2084 15.76 12.2643C15.6471 11.6783 15.8056 11.0736 16.1931 10.6122C16.5805 10.1509 17.1573 9.88007 17.7689 9.87241ZM17.9205 12.533H18.2494C18.6715 12.533 19.0138 12.1993 19.0138 11.7877C19.0138 11.3761 18.6715 11.0424 18.2494 11.0424H17.9205C17.7185 11.0401 17.5241 11.1167 17.3804 11.2551C17.2368 11.3935 17.156 11.5821 17.156 11.779C17.156 12.1921 17.4968 12.5282 17.9205 12.533ZM6.7371 8.38185H12.3815C12.8037 8.38185 13.146 8.04816 13.146 7.63654C13.146 7.22492 12.8037 6.89124 12.3815 6.89124H6.7371C6.31836 6.89121 5.97753 7.21964 5.97266 7.62787C5.97263 8.04092 6.31348 8.3771 6.7371 8.38185Z" fill="#909090"/>
</svg>
