<svg width="40" height="41" viewBox="0 0 40 41" fill="none" xmlns="http://www.w3.org/2000/svg">
<g clip-path="url(#clip0_5339_10039)">
<path d="M0.166712 20.3198C0.165741 23.8126 1.08249 27.2231 2.82568 30.2292L0 40.5L10.5582 37.744C13.4785 39.3267 16.7504 40.1559 20.0753 40.1561H20.0841C31.0604 40.1561 39.9953 31.2644 40 20.3354C40.0021 15.0395 37.9323 10.0596 34.1717 6.31297C30.4118 2.56667 25.4113 0.502417 20.0833 0.5C9.10571 0.5 0.171244 9.39122 0.166712 20.3198Z" fill="url(#paint0_linear_5339_10039)"/>
<path d="M16.0496 11.06C15.6809 10.1765 15.293 10.1587 14.9424 10.1432C14.6553 10.1299 14.3272 10.1309 13.9993 10.1309C13.6711 10.1309 13.1379 10.264 12.6873 10.7946C12.2361 11.3257 10.9648 12.6091 10.9648 15.2194C10.9648 17.8299 12.7282 20.3526 12.974 20.707C13.2201 21.0607 16.3782 26.5889 21.3798 28.7156C25.5366 30.483 26.3825 30.1314 27.2846 30.0428C28.1869 29.9545 30.1961 28.7597 30.606 27.5208C31.0162 26.282 31.0162 25.2201 30.8932 24.9982C30.7702 24.7772 30.4421 24.6444 29.95 24.3792C29.4577 24.1138 27.0385 22.8302 26.5875 22.6531C26.1363 22.4762 25.8083 22.3879 25.4802 22.9192C25.152 23.4496 24.2097 24.6444 23.9225 24.9982C23.6355 25.3529 23.3483 25.3971 22.8564 25.1317C22.364 24.8655 20.7792 24.3059 18.8991 22.4985C17.4362 21.0921 16.4486 19.3554 16.1616 18.8242C15.8745 18.2937 16.1308 18.0062 16.3776 17.7418C16.5987 17.5041 16.8698 17.1223 17.1161 16.8126C17.3615 16.5027 17.4433 16.2816 17.6074 15.9278C17.7717 15.5736 17.6895 15.2638 17.5666 14.9984C17.4433 14.733 16.4871 12.109 16.0496 11.06Z" fill="white"/>
</g>
<defs>
<linearGradient id="paint0_linear_5339_10039" x1="2000" y1="4000.5" x2="2000" y2="0.5" gradientUnits="userSpaceOnUse">
<stop stop-color="#1FAF38"/>
<stop offset="1" stop-color="#60D669"/>
</linearGradient>
<clipPath id="clip0_5339_10039">
<rect width="40" height="40" fill="white" transform="translate(0 0.5)"/>
</clipPath>
</defs>
</svg>
