<svg width="24" height="24" viewBox="0 0 24 24" fill="none" xmlns="http://www.w3.org/2000/svg">
<path d="M19.5302 6.41002C19.8192 6.68324 19.9879 7.06005 19.9991 7.4576C20.0104 7.85515 19.8633 8.24089 19.5902 8.53002L11.0902 17.53C10.9524 17.6756 10.7869 17.7921 10.6033 17.8727C10.4198 17.9532 10.2219 17.9962 10.0215 17.999C9.82109 18.0018 9.62214 17.9644 9.43641 17.889C9.25068 17.8136 9.08195 17.7017 8.94018 17.56L4.44018 13.06C4.17522 12.7757 4.03097 12.3996 4.03783 12.011C4.04469 11.6224 4.20211 11.2516 4.47694 10.9768C4.75176 10.7019 5.12253 10.5445 5.51114 10.5377C5.89974 10.5308 6.27583 10.6751 6.56018 10.94L9.97018 14.348L17.4102 6.47002C17.6834 6.18101 18.0602 6.01234 18.4578 6.00109C18.8553 5.98984 19.2411 6.13693 19.5302 6.41002Z" fill="#9CE562"/>
</svg>
