<svg width="306" height="254" viewBox="0 0 306 254" fill="none" xmlns="http://www.w3.org/2000/svg">
<path d="M115.411 152.015H279.715C289.594 152.015 297.624 143.984 297.624 134.106V18.9086C297.624 9.03043 289.594 1 279.715 1H115.411C105.533 1 97.5029 9.03043 97.5029 18.9086V134.177C97.574 144.055 105.533 152.015 115.411 152.015Z" fill="white" stroke="black" stroke-miterlimit="10"/>
<path d="M117.047 14.8565C117.047 16.7752 115.555 18.2676 113.636 18.2676C111.788 18.2676 110.225 16.7042 110.225 14.8565C110.225 12.9377 111.717 11.4453 113.636 11.4453C115.555 11.4453 117.047 12.9377 117.047 14.8565Z" fill="#E110D1" stroke="black" stroke-miterlimit="10"/>
<path d="M130.55 14.8565C130.55 16.7752 129.057 18.2676 127.139 18.2676C125.291 18.2676 123.728 16.7042 123.728 14.8565C123.728 12.9377 125.22 11.4453 127.139 11.4453C129.057 11.4453 130.55 12.9377 130.55 14.8565Z" fill="#EEDA36" stroke="black" stroke-miterlimit="10"/>
<path d="M140.641 18.2676C142.525 18.2676 144.052 16.7404 144.052 14.8565C144.052 12.9725 142.525 11.4453 140.641 11.4453C138.757 11.4453 137.229 12.9725 137.229 14.8565C137.229 16.7404 138.757 18.2676 140.641 18.2676Z" fill="#4466F5" stroke="black" stroke-miterlimit="10"/>
<path d="M98.001 26.8672H297.625" stroke="black" stroke-miterlimit="10"/>
<path d="M135.665 51.598V35.5371C126.782 35.5371 119.604 42.7147 119.604 51.598C119.604 60.4812 126.782 67.6588 135.665 67.6588C144.549 67.6588 151.726 60.4812 151.726 51.598C151.726 50.4609 151.584 49.3239 151.371 48.1868L135.665 51.598Z" fill="#60D669"/>
<path d="M153.361 45.4153C151.798 38.1666 145.402 32.7656 137.727 32.7656V48.8265L153.361 45.4153Z" fill="#FFE500"/>
<path d="M117.259 78.4611H115.909C114.985 78.4611 114.274 77.7504 114.274 76.8266V75.4763C114.274 74.5525 114.985 73.8418 115.909 73.8418H117.259C118.183 73.8418 118.894 74.5525 118.894 75.4763V76.8266C118.894 77.6793 118.183 78.4611 117.259 78.4611Z" fill="#EEDA36"/>
<path d="M117.259 85.8536H115.909C114.985 85.8536 114.274 85.143 114.274 84.2191V82.8689C114.274 81.945 114.985 81.2344 115.909 81.2344H117.259C118.183 81.2344 118.894 81.945 118.894 82.8689V84.2191C118.894 85.0719 118.183 85.8536 117.259 85.8536Z" fill="#EEDA36"/>
<path d="M117.259 93.2423H115.909C114.985 93.2423 114.274 92.5317 114.274 91.6078V90.2576C114.274 89.3337 114.985 88.623 115.909 88.623H117.259C118.183 88.623 118.894 89.3337 118.894 90.2576V91.6078C118.894 92.4606 118.183 93.2423 117.259 93.2423Z" fill="#EEDA36"/>
<path d="M155.35 77.5358H124.366C123.726 77.5358 123.229 77.0384 123.229 76.3988C123.229 75.7592 123.726 75.2617 124.366 75.2617H155.35C155.99 75.2617 156.487 75.7592 156.487 76.3988C156.487 77.0384 155.99 77.5358 155.35 77.5358Z" fill="#4466F5"/>
<path d="M152.01 84.6413H124.366C123.726 84.6413 123.229 84.1438 123.229 83.5042C123.229 82.8647 123.726 82.3672 124.366 82.3672H152.01C152.65 82.3672 153.147 82.8647 153.147 83.5042C153.147 84.1438 152.65 84.6413 152.01 84.6413Z" fill="#4466F5"/>
<path d="M161.391 91.7487H124.366C123.726 91.7487 123.229 91.2513 123.229 90.6117C123.229 89.9721 123.726 89.4746 124.366 89.4746H161.391C162.03 89.4746 162.528 89.9721 162.528 90.6117C162.528 91.2513 162.03 91.7487 161.391 91.7487Z" fill="#4466F5"/>
<path d="M179.584 99.9225H116.335C115.696 99.9225 115.198 99.4251 115.198 98.7855C115.198 98.1459 115.696 97.6484 116.335 97.6484H179.584C180.223 97.6484 180.721 98.1459 180.721 98.7855C180.721 99.4251 180.223 99.9225 179.584 99.9225Z" fill="#4466F5"/>
<path d="M179.584 105.893H116.335C115.696 105.893 115.198 105.396 115.198 104.756C115.198 104.117 115.696 103.619 116.335 103.619H179.584C180.223 103.619 180.721 104.117 180.721 104.756C180.721 105.396 180.223 105.893 179.584 105.893Z" fill="#4466F5"/>
<path d="M179.584 112.216H116.335C115.696 112.216 115.198 111.718 115.198 111.078C115.198 110.439 115.696 109.941 116.335 109.941H179.584C180.223 109.941 180.721 110.439 180.721 111.078C180.721 111.718 180.223 112.216 179.584 112.216Z" fill="#4466F5"/>
<path d="M179.584 118.184H116.335C115.696 118.184 115.198 117.687 115.198 117.047C115.198 116.408 115.696 115.91 116.335 115.91H179.584C180.223 115.91 180.721 116.408 180.721 117.047C180.721 117.687 180.223 118.184 179.584 118.184Z" fill="#4466F5"/>
<path d="M114.203 126.643H288.883" stroke="black" stroke-miterlimit="10"/>
<path d="M152.081 59.6276C152.081 59.6276 146.609 54.9373 147.675 53.1606C148.741 51.384 150.304 52.7342 150.304 52.7342C150.304 52.7342 148.67 51.384 149.665 50.318C150.66 49.252 151.726 49.8205 151.726 49.8205C151.726 49.8205 150.731 47.7596 152.081 47.2622C153.431 46.7647 155.208 47.4754 155.208 47.4754C155.208 47.4754 154.71 45.8409 154.852 45.2723C154.995 44.7038 155.918 43.6378 158.406 44.6327C160.893 45.6277 165.939 49.3941 167.644 50.6023C169.35 51.8104 171.127 54.2977 171.269 53.587C171.411 52.8764 172.832 48.5414 174.822 47.4754C176.741 46.4094 177.451 46.2673 177.451 48.8256C177.38 51.384 176.314 58.2774 178.944 63.8916C181.573 69.5057 182.284 73.059 185.198 77.7494C188.182 82.4397 189.533 84.7138 189.533 84.7138L171.411 95.5158C171.411 95.5158 159.187 69.79 159.045 69.5768C158.974 69.4347 154.781 62.4702 152.081 59.6276Z" fill="white"/>
<path d="M149.737 52.521C149.737 52.521 148.173 48.9677 151.869 49.8916C155.564 50.8154 160.112 55.0083 162.315 57.2114" stroke="black" stroke-miterlimit="10"/>
<path d="M165.37 65.2419C165.37 65.2419 164.589 60.8358 170.842 59.983C170.842 59.983 169.847 50.7445 174.68 47.4754C179.583 44.1354 175.746 53.9424 177.736 60.5515C179.726 67.1607 182.142 73.5566 184.7 77.252C187.259 80.9474 189.462 84.856 189.462 84.856L171.269 95.5869C171.269 95.5869 166.934 86.3484 160.254 71.9931C153.573 57.6378 146.04 56.2876 147.604 53.2318C149.594 49.4653 158.335 60.2673 158.335 60.2673" stroke="black" stroke-miterlimit="10"/>
<path d="M151.868 49.9638C151.868 49.9638 150.304 47.3343 152.792 47.0501C153.218 46.979 153.716 47.0501 154.284 47.2633C157.198 48.045 161.746 51.243 164.873 54.512" stroke="black" stroke-miterlimit="10"/>
<path d="M171.055 54.2275C171.055 54.2275 165.015 46.6945 157.127 44.4204C154.284 43.6387 154 46.4813 156.7 48.1158" stroke="black" stroke-miterlimit="10"/>
<path d="M167.502 88.2662L185.482 77.8906C185.482 77.8906 204.243 109.16 226.984 117.403L199.908 127.708L178.091 126.286C178.091 126.286 170.771 107.241 167.502 88.2662Z" fill="white" stroke="black" stroke-miterlimit="10"/>
<path d="M167.502 88.2662C168.142 91.8195 168.852 95.4439 169.705 98.855L192.304 87.7688C188.04 82.0835 185.553 77.8906 185.553 77.8906L167.502 88.2662Z" fill="#E110D1" stroke="black" stroke-miterlimit="10"/>
<path d="M177.522 98.3574L175.745 102.124L173.969 105.89L178.091 105.535L182.283 105.251L179.867 101.769L177.522 98.3574Z" fill="#E110D1"/>
<path d="M191.806 92.8848L190.03 96.6513L188.253 100.418L192.375 100.062L196.568 99.7071L194.222 96.2959L191.806 92.8848Z" fill="#E110D1"/>
<path d="M188.679 106.246L186.903 110.013L185.126 113.779L189.319 113.424L193.441 113.139L191.096 109.657L188.679 106.246Z" fill="#E110D1"/>
<path d="M202.253 108.164L200.476 111.931L198.699 115.697L202.821 115.342L207.014 115.057L204.598 111.575L202.253 108.164Z" fill="#E110D1"/>
<path d="M183.207 116.904L181.431 120.671L179.583 124.437L183.776 124.153L187.898 123.798L185.553 120.387L183.207 116.904Z" fill="#E110D1"/>
<path d="M197.42 119.393L195.644 123.159L193.867 126.926L197.989 126.641L202.182 126.286L199.766 122.875L197.42 119.393Z" fill="#E110D1"/>
<path d="M257.046 96.5093C257.046 96.5093 262.518 110.865 242.477 115.91C222.508 120.956 198.985 120.103 198.985 120.103C198.985 120.103 196.569 120.103 196.711 113.849C196.853 107.596 196.569 95.2301 204.599 81.5854C212.63 67.9408 217.675 62.8952 221.726 61.3317C225.848 59.8393 256.335 75.687 257.046 96.5093Z" fill="white"/>
<path d="M240.133 91.748L238.001 95.3724L235.94 99.0678H240.133H244.326L242.265 95.3724L240.133 91.748Z" fill="#E110D1"/>
<path d="M232.245 73.7676L230.184 77.3919L228.052 81.0163H232.245H236.438L234.377 77.3919L232.245 73.7676Z" fill="#E110D1"/>
<path d="M219.097 88.123L217.036 91.7474L214.904 95.3717H219.097H223.361L221.229 91.7474L219.097 88.123Z" fill="#E110D1"/>
<path d="M226.773 103.262L224.641 106.886L222.58 110.51H226.773H230.966L228.905 106.886L226.773 103.262Z" fill="#E110D1"/>
<path d="M204.6 101.627L202.468 105.251L200.407 108.947H204.6H208.793L206.732 105.251L204.6 101.627Z" fill="#E110D1"/>
<path d="M213.697 73.1289L211.565 76.7533L209.433 80.3776H213.697H217.889L215.757 76.7533L213.697 73.1289Z" fill="#E110D1"/>
<path d="M220.305 61.4043C220.305 61.4043 192.802 84.7139 197.209 119.181" stroke="black" stroke-miterlimit="10"/>
<path d="M232.528 60.1973C232.528 60.1973 239.066 60.2683 245.178 62.4714C251.29 64.6744 260.741 67.8013 270.548 77.3952C270.548 77.3952 284.904 91.4662 286.112 103.832C287.32 116.197 285.97 123.659 270.406 131.903C270.406 131.903 259.036 136.309 246.386 133.963C233.736 131.618 222.934 128.705 214.904 129.7C206.874 130.694 203.605 130.766 199.341 134.816C195.077 138.867 191.594 142.42 191.594 142.42C191.594 142.42 190.528 143.913 189.32 143.842C188.112 143.771 188.325 142.847 188.468 142.207C188.681 141.568 189.462 140.004 187.828 141.568C186.193 143.131 185.483 143.913 184.559 143.842C183.635 143.771 183.706 142.278 183.919 141.283C184.133 140.288 184.559 138.796 184.559 138.796C184.559 138.796 184.772 137.659 183.209 139.507C181.645 141.354 180.579 141.781 179.869 141.283C179.087 140.786 179.371 138.796 179.869 137.659C180.366 136.522 181.787 133.963 181.787 133.963C181.787 133.963 180.153 135.029 179.371 135.385C178.589 135.74 177.097 134.461 177.594 132.969C178.092 131.405 181.787 124.156 189.747 120.248C197.706 116.339 205.381 113.852 213.767 113.07C222.153 112.288 230.254 112.075 236.721 111.436C243.188 110.796 249.016 109.304 251.29 107.811C253.564 106.319 257.259 104.116 254.203 97.1514C251.147 90.1159 244.609 82.8672 244.609 82.8672L234.163 71.4257L232.528 60.1973Z" fill="white"/>
<path d="M247.807 110.512L245.675 114.207L243.543 117.831H247.807H252L249.868 114.207L247.807 110.512Z" fill="#E110D1"/>
<path d="M238.853 120.105L236.721 123.801L234.589 127.425H238.853H243.046L240.914 123.801L238.853 120.105Z" fill="#E110D1"/>
<path d="M257.898 123.801L255.766 127.425L253.705 131.121H257.898H262.091L260.03 127.425L257.898 123.801Z" fill="#E110D1"/>
<path d="M263.371 103.264L261.31 106.888L259.178 110.512H263.371H267.635L265.503 106.888L263.371 103.264Z" fill="#E110D1"/>
<path d="M276.304 92.8867L274.243 96.5111L272.111 100.135H276.304H280.568L278.436 96.5111L276.304 92.8867Z" fill="#E110D1"/>
<path d="M257.898 84.4316L255.766 88.1271L253.705 91.7514H257.898H262.091L260.03 88.1271L257.898 84.4316Z" fill="#E110D1"/>
<path d="M268.914 76.7559L266.782 80.3802L264.721 84.0756H268.914H273.106L271.046 80.3802L268.914 76.7559Z" fill="#E110D1"/>
<path d="M252.853 68.6543L250.721 72.2787L248.589 75.903H252.853H257.046L254.914 72.2787L252.853 68.6543Z" fill="#E110D1"/>
<path d="M276.304 113.924L274.243 117.548L272.111 121.244H276.304H280.568L278.436 117.548L276.304 113.924Z" fill="#E110D1"/>
<path d="M230.964 120.674V112.927C230.964 112.927 231.106 111.933 230.467 112.004C229.756 112.075 224.497 112.501 222.863 112.501C221.228 112.43 220.091 112.572 220.091 112.572C220.091 112.572 218.954 112.714 219.096 113.141C219.167 113.567 219.594 124.724 219.594 124.724V128.491L219.807 129.273C219.807 129.273 219.736 129.699 220.233 129.699C220.731 129.77 223.787 129.983 223.787 129.983L227.908 130.552C227.908 130.552 230.964 131.12 230.964 130.623C230.964 130.196 230.964 120.674 230.964 120.674Z" fill="#E110D1"/>
<path d="M219.097 112.572L219.736 129.486" stroke="black" stroke-miterlimit="10"/>
<path d="M230.965 112.004V131.05" stroke="black" stroke-miterlimit="10"/>
<path d="M234.801 60.1973C234.801 60.1973 257.827 62.116 273.959 81.0195C290.09 99.923 290.801 118.826 276.304 128.705C261.806 138.583 242.121 133.253 233.735 131.547C224.994 129.771 208.649 127.639 201.4 133.111C194.152 138.583 190.527 145.05 188.751 143.628C186.974 142.207 192.517 135.456 192.517 135.456C192.517 135.456 186.477 144.481 184.558 143.842C182.639 143.202 185.126 137.161 185.126 137.161" stroke="black" stroke-miterlimit="10"/>
<path d="M242.264 80.3809C242.264 80.3809 257.827 96.0864 254.842 104.401C251.858 112.716 217.888 112.574 217.888 112.574C217.888 112.574 194.863 114.066 183.848 124.371C183.848 124.371 176.386 130.98 177.665 134.391C178.944 137.873 183.137 131.832 183.137 131.832" stroke="black" stroke-miterlimit="10"/>
<path d="M185.127 129.486C185.127 129.486 178.589 136.806 179.655 140.288C180.65 143.771 185.127 137.375 188.111 133.253" stroke="black" stroke-miterlimit="10"/>
<path d="M240.985 41.2195C240.985 43.9911 238.711 46.2652 235.939 46.2652C233.168 46.2652 230.894 43.9911 230.894 41.2195C230.894 38.4479 233.168 36.1738 235.939 36.1738C238.711 36.1738 240.985 38.4479 240.985 41.2195Z" stroke="black" stroke-width="2" stroke-miterlimit="10"/>
<path d="M218.954 25.6562H225.279C229.472 25.6562 232.954 29.5649 232.954 34.3973V44.2755C232.954 44.5597 232.954 44.844 232.883 45.1283C232.954 45.4125 233.025 45.6968 233.025 46.0521V52.0216V52.377V58.3465C233.025 60.5495 231.249 62.3262 229.046 62.3262H226.558C224.355 62.3262 222.579 60.5495 222.579 58.3465V53.0166H218.883C214.69 53.0166 211.208 49.1079 211.208 44.2755V34.3973C211.279 29.5649 214.761 25.6562 218.954 25.6562Z" fill="white" stroke="black" stroke-miterlimit="10"/>
<path d="M231.32 41.0774L230.183 33.3313C230.183 33.3313 208.863 36.0318 201.899 25.6562C195.005 15.2806 202.254 11.1588 205.736 11.7984C209.218 12.3669 213.34 17.4126 213.34 17.4126C213.34 17.4126 210.071 12.9354 213.34 12.2248C216.609 11.5141 220.233 14.9253 222.081 18.4075C222.081 18.4075 236.152 17.1283 240.914 25.5851C245.675 34.113 241.837 40.1536 233.096 48.8947L232.528 43.9911L231.32 41.0774Z" fill="black"/>
<path d="M253.632 17.4878C254.276 13.2585 251.37 9.30764 247.14 8.66336C242.911 8.01908 238.96 10.9253 238.316 15.1546C237.672 19.384 240.578 23.3348 244.807 23.9791C249.037 24.6234 252.987 21.7171 253.632 17.4878Z" fill="black"/>
<path d="M229.402 42.5716C229.402 44.5615 227.768 46.196 225.778 46.196C223.788 46.196 222.153 44.5615 222.153 42.5716C222.153 40.5818 223.788 38.9473 225.778 38.9473C227.768 38.9473 229.402 40.5818 229.402 42.5716Z" fill="#E4B0C8"/>
<path d="M212.275 39.6582C212.061 39.6582 211.848 39.6582 211.635 39.7293V43.4958C211.635 44.0643 211.564 44.6328 211.706 45.1303C211.848 45.1303 212.132 45.2013 212.275 45.2013C213.838 45.2013 215.046 43.9932 215.046 42.4298C215.046 40.8663 213.767 39.6582 212.275 39.6582Z" fill="#E4B0C8"/>
<path d="M222.793 37.453C222.793 38.1637 222.224 38.7322 221.514 38.7322C220.803 38.7322 220.234 38.1637 220.234 37.453C220.234 36.7424 220.803 36.1738 221.514 36.1738C222.224 36.1738 222.793 36.7424 222.793 37.453Z" fill="#141414"/>
<path d="M213.199 38.4479C213.827 38.4479 214.336 37.9389 214.336 37.3109C214.336 36.6829 213.827 36.1738 213.199 36.1738C212.571 36.1738 212.062 36.6829 212.062 37.3109C212.062 37.9389 212.571 38.4479 213.199 38.4479Z" fill="#141414"/>
<path d="M215.543 42.5717C215.543 42.5717 216.183 44.4905 217.604 44.6326C218.954 44.7747 220.091 43.2113 220.162 42.0742L215.543 42.5717Z" fill="#F7F6F6"/>
<path d="M215.188 42.7132C215.401 43.4239 215.899 44.1345 216.467 44.5609C217.533 45.3427 218.883 44.9873 219.665 43.9924C220.092 43.4239 220.447 42.7132 220.447 42.0026C220.447 41.7894 220.234 41.5762 220.02 41.5762C218.67 41.7183 217.391 41.9315 216.041 42.0736C215.828 42.0736 215.685 42.1447 215.472 42.1447C215.259 42.1447 215.046 42.2868 215.046 42.5711C215.046 42.7843 215.259 42.9975 215.472 42.9975C216.823 42.8554 218.102 42.6422 219.452 42.5C219.665 42.5 219.807 42.429 220.02 42.429C219.878 42.2868 219.736 42.1447 219.594 42.0026C219.523 42.9264 218.883 43.9213 217.96 44.1345C217.107 44.3477 216.467 43.7081 216.112 42.9975C216.041 42.8554 215.97 42.7132 215.899 42.5711C215.899 42.5 215.899 42.6422 215.899 42.5711V42.5V42.429C215.757 42.0026 215.046 42.2158 215.188 42.7132Z" fill="#141414"/>
<path d="M223.574 41.7886C226.085 41.7886 228.122 39.5296 228.122 36.7429C228.122 33.9563 226.085 31.6973 223.574 31.6973C221.062 31.6973 219.025 33.9563 219.025 36.7429C219.025 39.5296 221.062 41.7886 223.574 41.7886Z" stroke="#672ED6" stroke-miterlimit="10"/>
<path d="M212.275 40.6511C214.315 40.6511 215.97 38.6148 215.97 36.1029C215.97 33.591 214.315 31.5547 212.275 31.5547C210.234 31.5547 208.579 33.591 208.579 36.1029C208.579 38.6148 210.234 40.6511 212.275 40.6511Z" stroke="#672ED6" stroke-miterlimit="10"/>
<path d="M217.462 36.1738V40.5799L215.188 39.1586L217.462 36.1738Z" fill="#D96980"/>
<path d="M215.898 37.4534C215.898 37.4534 217.746 36.6717 219.025 37.8088" stroke="#672ED6" stroke-miterlimit="10"/>
<path d="M240.985 41.2215C240.985 43.993 238.711 46.2671 235.939 46.2671C233.168 46.2671 230.894 43.993 230.894 41.2215C230.894 38.4499 233.168 36.1758 235.939 36.1758C238.711 36.1758 240.985 38.4499 240.985 41.2215Z" fill="white"/>
<path d="M233.665 41.8616C233.665 41.7195 233.665 41.6484 233.665 41.5063C233.665 41.4352 233.665 41.4352 233.665 41.3642V41.2931C233.665 41.151 233.665 41.4352 233.665 41.2931C233.665 41.151 233.736 41.0088 233.736 40.8667C233.736 40.7956 233.807 40.7246 233.807 40.6535C233.807 40.5824 233.807 40.5824 233.878 40.5114V40.4403C233.95 40.3692 233.95 40.2982 234.021 40.2271C234.092 40.1561 234.092 40.085 234.163 40.0139C234.163 40.0139 234.163 40.0139 234.163 39.9429L234.234 39.8718C234.305 39.8007 234.376 39.7297 234.447 39.6586C234.447 39.6586 234.447 39.6586 234.518 39.6586C234.518 39.6586 234.589 39.5875 234.66 39.5875C234.731 39.5165 234.873 39.4454 234.944 39.4454C234.873 39.4454 235.016 39.4454 235.016 39.4454C235.087 39.4454 235.158 39.3743 235.229 39.3743C235.3 39.3743 235.371 39.3743 235.442 39.3033C235.513 39.3033 235.726 39.2322 235.584 39.3033C235.939 39.2322 236.224 39.3033 236.579 39.3033C236.863 39.3033 237.076 39.0901 237.076 38.8058C237.076 38.5215 236.863 38.3794 236.579 38.3083C235.513 38.1662 234.305 38.4505 233.594 39.3033C233.097 39.8718 232.884 40.6535 232.812 41.3642C232.812 41.5063 232.812 41.6484 232.812 41.7906C232.812 42.0748 233.026 42.288 233.31 42.288C233.452 42.3591 233.665 42.1459 233.665 41.8616Z" fill="#090909"/>
<path d="M222.721 66.8751H233.31C235.584 66.8751 237.503 65.0274 237.503 62.6823V61.4741C237.503 59.2 235.655 57.2812 233.31 57.2812H222.721C220.447 57.2812 218.528 59.129 218.528 61.4741V62.6823C218.599 65.0274 220.447 66.8751 222.721 66.8751Z" fill="#E110D1" stroke="#211F21" stroke-miterlimit="10"/>
<path d="M0 242.197H305.867" stroke="black" stroke-miterlimit="10"/>
<path d="M141.775 239H75.8262V253H141.775V239Z" fill="white" stroke="black" stroke-miterlimit="10"/>
<path d="M94.2324 151.943C94.2324 151.943 99.6334 155.497 106.811 163.953C115.836 174.613 127.633 191.101 134.953 195.08C151.582 204.248 178.445 205.598 178.445 205.598L165.867 231.04L105.887 223.364L94.2324 151.943Z" fill="white" stroke="black" stroke-miterlimit="10"/>
<path d="M128.77 211.64C127.491 211.853 126.283 211 126.07 209.65L124.719 202.259C124.506 200.909 125.288 199.701 126.567 199.488C127.846 199.274 129.054 200.127 129.268 201.477L130.618 208.868C130.831 210.148 129.978 211.427 128.77 211.64Z" fill="#4466F5"/>
<path d="M117.329 191.386C116.05 191.599 114.842 190.746 114.628 189.396L113.278 182.005C113.065 180.655 113.847 179.447 115.126 179.234C116.405 179.021 117.613 179.873 117.826 181.224L119.177 188.614C119.39 189.894 118.608 191.173 117.329 191.386Z" fill="#4466F5"/>
<path d="M138.294 224.644C137.014 224.857 135.806 224.004 135.593 222.654L134.243 215.263C134.03 213.913 134.811 212.705 136.091 212.492C137.37 212.278 138.578 213.131 138.791 214.481L140.141 221.872C140.355 223.151 139.502 224.431 138.294 224.644Z" fill="#4466F5"/>
<path d="M145.827 215.691C144.548 215.904 143.34 215.051 143.126 213.701L141.776 206.31C141.563 204.96 142.345 203.752 143.624 203.538C144.903 203.325 146.111 204.178 146.324 205.528L147.675 212.919C147.888 214.198 147.035 215.477 145.827 215.691Z" fill="#4466F5"/>
<path d="M158.05 228.482C156.77 228.695 155.562 227.842 155.349 226.492L153.999 219.101C153.786 217.751 154.567 216.543 155.846 216.329C157.126 216.116 158.334 216.969 158.547 218.319L159.897 225.71C160.11 226.989 159.258 228.268 158.05 228.482Z" fill="#4466F5"/>
<path d="M166.861 218.39C165.582 218.603 164.374 217.75 164.161 216.4L162.81 209.009C162.597 207.659 163.379 206.451 164.658 206.238C165.937 206.024 167.145 206.877 167.358 208.227L168.709 215.618C168.922 216.898 168.14 218.177 166.861 218.39Z" fill="#4466F5"/>
<path d="M82.4361 150.806C82.4361 150.806 99.7761 142.136 115.126 182.644C125.786 210.857 122.304 230.969 122.304 230.969L34.751 229.903C34.751 229.903 51.5225 161.964 82.4361 150.806Z" fill="white" stroke="black" stroke-miterlimit="10"/>
<path d="M70.7106 215.333C69.4315 215.546 68.2233 214.694 68.0101 213.343L66.6599 205.953C66.4467 204.602 67.2284 203.394 68.5076 203.181C69.7868 202.968 70.9949 203.821 71.2081 205.171L72.5583 212.562C72.8426 213.841 71.9898 215.12 70.7106 215.333Z" fill="#4466F5"/>
<path d="M85.7761 204.818C84.4969 205.031 83.2888 204.178 83.0756 202.828L81.7253 195.437C81.5121 194.087 82.2939 192.879 83.573 192.665C84.8522 192.452 86.0603 193.305 86.2735 194.655L87.6238 202.046C87.9081 203.325 87.0553 204.533 85.7761 204.818Z" fill="#4466F5"/>
<path d="M99.3503 217.751C98.0711 217.964 96.863 217.112 96.6498 215.761L95.2995 208.371C95.0864 207.02 95.8681 205.812 97.1473 205.599C98.4264 205.386 99.6346 206.239 99.8478 207.589L101.198 214.98C101.411 216.259 100.558 217.538 99.3503 217.751Z" fill="#4466F5"/>
<path d="M111.431 202.044C110.152 202.257 108.944 201.405 108.731 200.054L107.381 192.664C107.167 191.313 107.949 190.105 109.228 189.892C110.508 189.679 111.716 190.532 111.929 191.882L113.279 199.273C113.492 200.552 112.711 201.831 111.431 202.044Z" fill="#4466F5"/>
<path d="M98.4265 189.323C97.1473 189.537 95.9392 188.684 95.726 187.334L94.3757 179.943C94.1625 178.593 94.9442 177.384 96.2234 177.171C97.5026 176.958 98.7107 177.811 98.9239 179.161L100.274 186.552C100.487 187.831 99.7056 189.039 98.4265 189.323Z" fill="#4466F5"/>
<path d="M84.9235 174.187C83.6444 174.4 82.4362 173.547 82.223 172.197L80.8728 164.806C80.6596 163.456 81.4413 162.248 82.7205 162.035C83.9997 161.821 85.2078 162.674 85.421 164.024L86.7712 171.415C86.9844 172.694 86.2027 173.974 84.9235 174.187Z" fill="#4466F5"/>
<path d="M98.071 168.075C96.7918 168.289 95.5837 167.436 95.3705 166.086L94.0203 158.695C93.8071 157.345 94.5888 156.136 95.868 155.923C97.1471 155.71 98.3553 156.563 98.5685 157.913L99.9187 165.304C100.132 166.583 99.2791 167.862 98.071 168.075Z" fill="#4466F5"/>
<path d="M118.822 224.216C117.543 224.429 116.335 223.576 116.121 222.226L114.771 214.835C114.558 213.485 115.34 212.277 116.619 212.064C117.898 211.851 119.106 212.703 119.319 214.054L120.67 221.444C120.883 222.724 120.101 223.932 118.822 224.216Z" fill="#4466F5"/>
<path d="M73.2692 188.542C71.9901 188.755 70.7819 187.903 70.5688 186.552L69.2185 179.162C69.0053 177.811 69.787 176.603 71.0662 176.39C72.3454 176.177 73.5535 177.03 73.7667 178.38L75.117 185.771C75.3302 187.05 74.4774 188.329 73.2692 188.542Z" fill="#4466F5"/>
<path d="M85.9167 214.625L82.7188 241.346C82.7188 241.346 102.191 240.422 112.922 241.772C123.653 243.122 130.191 243.975 130.191 243.975C130.191 243.975 133.744 243.975 133.318 241.914C132.891 239.853 132.962 240.209 134.668 240.706C136.373 241.204 138.861 240.138 139.003 238.787C139.145 237.437 138.505 235.803 138.505 235.803C138.505 235.803 140.708 236.229 141.845 236.087C142.982 235.945 146.536 234.31 146.18 232.605C145.825 230.899 144.475 224.645 124.861 219.884C105.247 215.122 85.9167 214.625 85.9167 214.625Z" fill="white"/>
<path d="M81.2979 241.418C81.2979 241.418 106.1 239.641 126.496 243.621C128.201 243.976 134.952 245.042 132.963 240.778C130.973 236.514 120.81 234.169 115.907 233.529" stroke="black" stroke-miterlimit="10"/>
<path d="M117.684 225.285C117.684 225.285 123.653 226.564 128.415 228.838C131.897 230.544 135.379 232.747 137.298 234.524C141.633 238.432 137.653 242.341 132.607 240.209" stroke="black" stroke-miterlimit="10"/>
<path d="M84.709 214.625C84.709 214.625 110.293 214.767 131.897 221.945C153.501 229.193 146.252 239.001 138.079 235.234" stroke="black" stroke-miterlimit="10"/>
<path d="M81.2277 151.731C81.2277 151.731 48.3242 150.807 23.3802 187.974C-1.49283 225.07 1.563 263.02 55.9994 250.512C63.6034 248.735 86.0602 242.055 86.0602 242.055L88.7607 213.771C88.7607 213.771 63.3191 211.639 45.7659 210.573L81.2277 151.731Z" fill="white"/>
<path d="M71.4912 246.319C79.0242 244.187 86.0597 242.055 86.0597 242.055L88.7602 213.771C88.7602 213.771 83.0039 213.274 75.1156 212.705L71.4912 246.319Z" fill="#4466F5" stroke="black" stroke-miterlimit="10"/>
<path d="M74.4756 218.105L88.1913 219.029" stroke="black" stroke-miterlimit="10"/>
<path d="M73.6943 225.213L87.339 225.284" stroke="black" stroke-miterlimit="10"/>
<path d="M73.0547 232.248L87.1257 231.182" stroke="black" stroke-miterlimit="10"/>
<path d="M72.1309 238.998L86.4151 236.582" stroke="black" stroke-miterlimit="10"/>
<path d="M81.2277 151.731C81.2277 151.731 48.3242 150.807 23.3802 187.974C-1.49283 225.07 1.563 263.02 55.9994 250.512C63.6034 248.735 86.0602 242.055 86.0602 242.055L88.7607 213.771C88.7607 213.771 63.3191 211.639 45.7659 210.573" stroke="black" stroke-miterlimit="10"/>
<path d="M54.791 211.212L63.2478 194.938" stroke="black" stroke-miterlimit="10"/>
<path d="M27.5017 218.816C26.2225 219.029 25.0144 218.176 24.8012 216.826L23.4509 209.435C23.2377 208.085 24.0194 206.877 25.2986 206.663C26.5778 206.45 27.7859 207.303 27.9991 208.653L29.3494 216.044C29.5626 217.323 28.7808 218.602 27.5017 218.816Z" fill="#4466F5"/>
<path d="M20.1823 242.126C18.9031 242.339 17.695 241.487 17.4818 240.136L16.1316 232.746C15.9184 231.395 16.7001 230.187 17.9793 229.974C19.2585 229.761 20.4666 230.614 20.6798 231.964L22.03 239.355C22.2432 240.634 21.4615 241.913 20.1823 242.126Z" fill="#4466F5"/>
<path d="M41.7868 245.04C40.5076 245.253 39.2995 244.4 39.0863 243.05L37.7361 235.73C37.5229 234.38 38.3046 233.172 39.5838 232.958C40.863 232.745 42.0711 233.598 42.2843 234.948L43.6345 242.339C43.8477 243.618 42.9949 244.826 41.7868 245.04Z" fill="#4466F5"/>
<path d="M53.2282 226.847C51.949 227.06 50.7409 226.207 50.5277 224.857L49.1775 217.466C48.9643 216.116 49.746 214.908 51.0252 214.695C52.3044 214.481 53.5125 215.334 53.7257 216.685L55.0759 224.075C55.2891 225.355 54.5074 226.563 53.2282 226.847Z" fill="#4466F5"/>
<path d="M48.4665 204.818C47.1873 205.031 45.9792 204.178 45.766 202.828L44.4158 195.437C44.2026 194.087 44.9843 192.879 46.2635 192.665C47.5427 192.452 48.7508 193.305 48.964 194.655L50.3142 202.046C50.5274 203.325 49.6746 204.533 48.4665 204.818Z" fill="#4466F5"/>
<path d="M57.3493 186.482C56.0701 186.695 54.862 185.842 54.6488 184.492L53.2986 177.101C53.0854 175.751 53.8671 174.543 55.1463 174.329C56.4255 174.116 57.6336 174.969 57.8468 176.319L59.197 183.71C59.4102 184.989 58.5574 186.197 57.3493 186.482Z" fill="#4466F5"/>
<path d="M69.2175 168.075C67.9383 168.289 66.7302 167.436 66.517 166.086L65.1667 158.695C64.9535 157.345 65.7353 156.136 67.0145 155.923C68.2936 155.71 69.5017 156.563 69.7149 157.913L71.0652 165.304C71.2784 166.583 70.4256 167.862 69.2175 168.075Z" fill="#4466F5"/>
<path d="M34.6081 192.593C33.3289 192.806 32.1208 191.953 31.9076 190.603L30.5574 183.212C30.3442 181.862 31.1259 180.654 32.4051 180.441C33.6843 180.228 34.8924 181.08 35.1056 182.431L36.4558 189.821C36.669 191.101 35.8162 192.309 34.6081 192.593Z" fill="#4466F5"/>
<path d="M66.2331 242.126C64.9539 242.339 63.7458 241.487 63.5326 240.136L62.1824 232.746C61.9692 231.395 62.7509 230.187 64.0301 229.974C65.3093 229.761 66.5174 230.614 66.7306 231.964L68.0808 239.355C68.294 240.634 67.4412 241.913 66.2331 242.126Z" fill="#4466F5"/>
<path d="M70.2129 127.497C70.2129 130.695 72.8423 133.324 76.1113 133.324C79.3804 133.324 82.0098 130.695 82.0098 127.497C82.0098 124.299 79.3804 121.669 76.1113 121.669C72.9134 121.598 70.2129 124.228 70.2129 127.497Z" stroke="black" stroke-width="2" stroke-miterlimit="10"/>
<path d="M93.9483 150.948C93.9483 153.649 90.1818 155.852 85.5625 155.852C80.9432 155.852 77.1768 153.649 77.1768 150.948C77.1768 148.248 80.9432 146.045 85.5625 146.045C90.1818 146.045 93.9483 148.248 93.9483 150.948Z" fill="#4466F5" stroke="#211F21" stroke-miterlimit="10"/>
<path d="M95.9387 109.303H88.5478C83.6443 109.303 79.5935 113.922 79.5935 119.465V130.907C79.5935 131.262 79.5935 131.546 79.6646 131.831C79.5935 132.186 79.5225 132.541 79.5225 132.897V139.861V140.216V147.181C79.5225 149.739 81.5834 151.8 84.1417 151.8H87.0554C89.6138 151.8 91.6747 149.739 91.6747 147.181V140.998H95.9387C100.842 140.998 104.893 136.45 104.893 130.836V119.394C104.893 113.922 100.842 109.303 95.9387 109.303Z" fill="white" stroke="black" stroke-miterlimit="10"/>
<path d="M90.04 123.232C90.04 124.156 90.8218 124.867 91.6746 124.867C92.5273 124.867 93.3091 124.085 93.3091 123.232C93.3091 122.379 92.5273 121.598 91.6746 121.598C90.8218 121.598 90.04 122.308 90.04 123.232Z" fill="#141414"/>
<path d="M100.984 123.019C100.984 123.801 101.624 124.44 102.406 124.44C103.187 124.44 103.827 123.801 103.827 123.019C103.827 122.237 103.187 121.598 102.406 121.598C101.624 121.598 100.984 122.237 100.984 123.019Z" fill="#141414"/>
<path d="M99.3496 129.842C99.3496 129.842 98.4968 132.258 96.7202 132.471C94.9435 132.613 93.5933 130.694 93.4512 129.131L99.3496 129.842Z" fill="#F7F6F6"/>
<path d="M98.9949 129.771C98.9949 129.842 98.9238 129.913 98.9238 129.984C98.9949 129.913 98.8528 130.126 98.8528 130.126C98.7817 130.197 98.7817 130.34 98.7106 130.411C98.4975 130.837 98.2132 131.263 97.8579 131.619C97.4315 131.974 96.934 132.187 96.2944 132.116C95.6548 132.045 95.1574 131.619 94.731 131.121C94.3046 130.553 93.9492 129.842 93.8782 129.131C93.736 129.274 93.5939 129.416 93.4518 129.558C95.1574 129.771 96.8629 129.984 98.5685 130.197C98.7817 130.197 99.066 130.269 99.2792 130.269C99.4924 130.269 99.7056 130.055 99.7056 129.842C99.7056 129.629 99.4924 129.487 99.2792 129.416C97.5736 129.203 95.868 128.989 94.1624 128.776C93.9492 128.776 93.665 128.705 93.4518 128.705C93.2386 128.705 93.0254 128.918 93.0254 129.131C93.1675 130.624 94.1624 132.258 95.6548 132.756C97.1472 133.253 98.4264 132.258 99.137 131.05C99.3502 130.695 99.5634 130.34 99.6345 129.984C99.9188 129.487 99.137 129.274 98.9949 129.771Z" fill="#141414"/>
<path d="M84.2842 129.417C84.2842 131.691 86.1319 133.539 88.406 133.539C90.6801 133.539 92.5278 131.691 92.5278 129.417C92.5278 127.143 90.6801 125.295 88.406 125.295C86.1319 125.224 84.2842 127.143 84.2842 129.417Z" fill="#E4B0C8"/>
<path d="M103.756 126.574C104.041 126.574 104.254 126.574 104.467 126.645V130.98C104.467 131.62 104.467 132.259 104.325 132.828C104.183 132.828 103.899 132.899 103.756 132.899C101.98 132.899 100.63 131.478 100.63 129.772C100.558 127.996 101.98 126.574 103.756 126.574Z" fill="#E4B0C8"/>
<path d="M97.5018 121.598L97.1465 127.283L99.847 125.648L97.5018 121.598Z" fill="#D96980"/>
<path d="M81.5119 127.283L82.8621 118.329C82.8621 118.329 107.735 121.456 115.766 109.375C123.796 97.2935 115.339 92.5321 111.288 93.1716C107.167 93.8823 102.405 99.7097 102.405 99.7097C102.405 99.7097 106.243 94.5219 102.405 93.6691C98.5677 92.8163 94.3748 96.796 92.1718 100.918C92.1718 100.918 75.7556 99.3544 70.2124 109.304C64.6693 119.253 69.1465 126.288 79.3089 136.522L80.0195 130.765L81.5119 127.283Z" fill="black"/>
<path d="M70.2129 127.497C70.2129 130.695 72.8423 133.324 76.1113 133.324C79.3804 133.324 82.0098 130.695 82.0098 127.497C82.0098 124.299 79.3804 121.669 76.1113 121.669C72.9134 121.598 70.2129 124.228 70.2129 127.497Z" fill="white"/>
<path d="M79.8071 128.204C79.8071 127.707 79.736 127.21 79.5939 126.712C79.3096 125.788 78.7411 124.935 77.8172 124.509C77.1066 124.154 76.2538 124.083 75.4721 124.154C75.1878 124.154 74.9746 124.367 74.9746 124.651C74.9746 124.864 75.1878 125.149 75.4721 125.149C75.8274 125.078 76.1827 125.078 76.5381 125.149C76.6091 125.149 76.6091 125.149 76.6802 125.149C76.5381 125.149 76.6802 125.149 76.7513 125.149C76.8223 125.149 76.8934 125.149 76.9645 125.22C77.1066 125.22 77.2487 125.291 77.3908 125.362H77.4619C77.533 125.362 77.533 125.433 77.604 125.433C77.6751 125.504 77.8172 125.575 77.8883 125.646C77.7462 125.575 77.8883 125.646 77.9594 125.717C78.0304 125.717 78.0304 125.788 78.1015 125.788C78.1726 125.859 78.2436 125.93 78.3147 126.001C78.2436 125.859 78.3147 126.001 78.3147 126.072C78.3147 126.144 78.3858 126.144 78.3858 126.215C78.4568 126.286 78.4568 126.428 78.5279 126.499C78.5279 126.57 78.599 126.57 78.599 126.641C78.5279 126.499 78.599 126.712 78.599 126.641V126.712C78.67 126.783 78.67 126.925 78.67 126.996C78.7411 127.138 78.7411 127.352 78.8122 127.494C78.8122 127.565 78.8122 127.565 78.8122 127.636C78.8122 127.494 78.8122 127.778 78.8122 127.636C78.8122 127.707 78.8122 127.778 78.8122 127.849C78.8122 127.991 78.8122 128.133 78.8122 128.347C78.8122 128.631 79.0253 128.844 79.3096 128.844C79.5939 128.702 79.8071 128.489 79.8071 128.204Z" fill="#090909"/>
<path d="M148.954 192.596H237.36L221.299 253.002H133.319L148.954 192.596Z" fill="white" stroke="black" stroke-miterlimit="10"/>
<path d="M192.618 224.524C193.569 220.514 191.09 216.492 187.08 215.541C183.07 214.59 179.048 217.07 178.097 221.079C177.146 225.089 179.626 229.111 183.635 230.062C187.645 231.013 191.667 228.534 192.618 224.524Z" fill="#E110D1" stroke="black" stroke-miterlimit="10"/>
<path d="M258.465 240.921C255.836 241.489 253.562 241.205 253.349 240.139L247.237 213.418C247.024 212.423 248.942 211.073 251.501 210.505C254.13 209.936 256.831 210.22 257.044 211.215L262.8 238.007C262.942 239.002 261.024 240.352 258.465 240.921Z" fill="#EEDA36"/>
<path d="M258.324 240.493C257.329 240.706 254.202 241.346 253.705 239.925C253.562 239.427 253.491 238.93 253.349 238.432C252.852 236.158 252.283 233.884 251.786 231.539C250.578 226.138 249.299 220.737 248.09 215.336C247.948 214.767 247.806 214.128 247.664 213.559C247.451 212.422 249.014 211.783 249.867 211.427C251.146 210.93 252.568 210.646 253.918 210.575C254.628 210.575 256.192 210.503 256.618 211.285C256.76 211.569 256.76 211.996 256.831 212.351C257.897 217.397 258.963 222.442 260.1 227.559C260.669 230.118 261.238 232.747 261.735 235.305C261.877 236.016 262.019 236.798 262.232 237.508C262.375 238.148 262.446 238.432 261.806 238.93C260.811 239.783 259.532 240.209 258.324 240.493C257.755 240.635 257.969 241.488 258.537 241.346C259.958 240.991 263.156 240.138 263.156 238.148C263.156 237.722 263.014 237.295 262.943 236.869C262.446 234.524 261.948 232.25 261.451 229.904C260.243 224.148 258.963 218.392 257.755 212.564C257.613 212.067 257.613 211.498 257.4 211.072C256.974 209.58 254.628 209.651 253.42 209.722C251.359 209.864 248.304 210.432 247.024 212.28C246.598 212.849 246.669 213.346 246.811 213.986C248.019 219.245 249.227 224.503 250.436 229.762C251.075 232.463 251.715 235.234 252.283 237.935C252.425 238.574 252.568 239.285 252.781 239.925C252.994 240.92 253.847 241.275 254.842 241.488C256.05 241.701 257.329 241.488 258.537 241.275C259.106 241.275 258.892 240.422 258.324 240.493Z" fill="black"/>
<path d="M260.974 230.192L251.484 232.367L252.183 235.415L261.673 233.24L260.974 230.192Z" fill="#60D669"/>
<path d="M261.593 232.89C258.822 233.53 256.05 234.169 253.349 234.809C252.923 234.88 252.568 235.022 252.141 235.093C252.355 235.164 252.497 235.306 252.71 235.377C252.497 234.382 252.212 233.316 251.999 232.321C251.928 232.535 251.786 232.677 251.715 232.89C254.486 232.25 257.258 231.611 259.959 230.971C260.385 230.9 260.74 230.758 261.167 230.687C260.953 230.616 260.811 230.474 260.598 230.403C260.811 231.398 261.096 232.464 261.309 233.458C261.451 234.027 262.304 233.814 262.162 233.245C261.948 232.25 261.664 231.184 261.451 230.189C261.38 229.976 261.096 229.834 260.882 229.905C258.111 230.545 255.339 231.184 252.639 231.824C252.212 231.895 251.857 232.037 251.431 232.108C251.217 232.179 251.075 232.464 251.146 232.677C251.36 233.672 251.644 234.738 251.857 235.733C251.928 235.946 252.212 236.088 252.426 236.017C255.197 235.377 257.969 234.738 260.669 234.098C261.096 234.027 261.451 233.885 261.877 233.814C262.375 233.601 262.091 232.748 261.593 232.89Z" fill="black"/>
<path d="M247.379 212.921L249.724 202.545L256.617 210.86C256.831 211.073 256.333 211.428 255.694 211.57L248.445 213.134C247.805 213.276 247.308 213.205 247.379 212.921Z" fill="white"/>
<path d="M247.806 213.064C248.517 210.079 249.156 207.023 249.867 204.038C249.938 203.612 250.08 203.186 250.151 202.759C249.938 202.83 249.654 202.901 249.44 202.972C251.146 205.033 252.923 207.165 254.628 209.226C255.055 209.724 255.481 210.221 255.907 210.719C256.05 210.861 256.121 211.003 256.263 211.145L256.334 211.216C256.263 211.216 256.263 211.003 256.192 211.003C256.121 211.003 255.978 211.145 255.907 211.145C255.481 211.287 255.055 211.358 254.628 211.429C253.847 211.571 252.994 211.785 252.212 211.927C251.288 212.14 250.364 212.353 249.44 212.495C249.156 212.566 248.872 212.637 248.588 212.708C248.517 212.708 248.446 212.708 248.374 212.78C248.303 212.78 248.161 212.851 248.019 212.851C247.806 212.851 247.806 212.78 247.806 212.993C247.806 212.424 246.953 212.424 246.953 212.993C246.953 214.414 250.293 213.277 251.004 213.135C252.567 212.78 254.131 212.495 255.694 212.14C256.334 211.998 257.471 211.5 256.902 210.648C256.689 210.363 256.405 210.079 256.192 209.795C255.055 208.373 253.847 206.952 252.709 205.531C251.857 204.465 250.933 203.399 250.08 202.333C249.867 202.049 249.44 202.191 249.369 202.546C248.659 205.531 248.019 208.587 247.308 211.571C247.237 211.998 247.095 212.424 247.024 212.851C246.811 213.348 247.664 213.632 247.806 213.064Z" fill="black"/>
<path d="M248.872 207.946L253.349 206.951L249.725 202.545L248.872 207.946Z" fill="black"/>
<path d="M252.496 236.584L253.562 241.132C253.846 242.411 256.192 242.98 258.821 242.411C261.45 241.843 263.298 240.279 263.014 239L262.019 234.381L252.496 236.584Z" fill="#DB7294"/>
<path d="M252.07 236.655C252.354 237.792 252.567 238.929 252.851 240.137C252.923 240.563 252.994 240.99 253.136 241.345C253.42 242.198 254.273 242.624 255.054 242.837C256.192 243.122 257.542 243.122 258.75 242.837C259.887 242.553 261.024 242.198 262.019 241.487C262.659 240.99 263.298 240.35 263.44 239.568C263.511 239.142 263.369 238.644 263.298 238.218C263.014 236.868 262.73 235.589 262.445 234.238C262.374 234.025 262.09 233.883 261.877 233.954C259.105 234.594 256.334 235.233 253.562 235.873C253.136 235.944 252.78 236.086 252.354 236.157C251.785 236.299 251.999 237.152 252.567 237.01C255.339 236.37 258.11 235.731 260.882 235.091C261.308 235.02 261.664 234.878 262.09 234.807C261.877 234.736 261.735 234.594 261.521 234.523C261.735 235.517 261.948 236.512 262.161 237.507C262.303 238.005 262.374 238.502 262.516 239C262.587 239.568 262.374 239.924 261.948 240.35C260.455 241.842 257.755 242.482 255.694 242.127C254.983 241.984 254.131 241.771 253.917 241.061C253.846 240.705 253.775 240.35 253.704 239.995C253.42 238.858 253.136 237.649 252.923 236.512C252.78 235.873 251.928 236.086 252.07 236.655Z" fill="black"/>
<path d="M261.691 233.245L252.201 235.42L252.884 238.398L262.374 236.223L261.691 233.245Z" fill="#60D669"/>
<path d="M262.233 235.805C259.461 236.445 256.69 237.084 253.989 237.724C253.563 237.795 253.207 237.937 252.781 238.008C252.994 238.079 253.136 238.221 253.349 238.293C253.136 237.298 252.923 236.303 252.639 235.308C252.568 235.521 252.426 235.663 252.355 235.876C255.126 235.237 257.898 234.597 260.598 233.958C261.025 233.886 261.38 233.744 261.806 233.673C261.593 233.602 261.451 233.46 261.238 233.389C261.451 234.384 261.664 235.379 261.948 236.374C262.091 236.942 262.943 236.729 262.801 236.161C262.588 235.166 262.375 234.171 262.091 233.176C262.02 232.963 261.735 232.82 261.522 232.892C258.75 233.531 255.979 234.171 253.278 234.81C252.852 234.881 252.497 235.024 252.07 235.095C251.857 235.166 251.715 235.45 251.786 235.663C251.999 236.658 252.212 237.653 252.497 238.648C252.568 238.861 252.852 239.003 253.065 238.932C255.837 238.293 258.608 237.653 261.309 237.013C261.735 236.942 262.091 236.8 262.517 236.729C263.014 236.587 262.801 235.734 262.233 235.805Z" fill="black"/>
<path d="M266.496 235.733C263.866 235.236 261.947 233.957 262.089 232.962L267.49 206.099C267.704 205.104 269.978 204.678 272.607 205.175C275.237 205.673 277.582 207.094 277.369 208.089L271.612 234.881C271.399 235.876 269.125 236.302 266.496 235.733Z" fill="#E110D1"/>
<path d="M266.567 235.307C265.359 235.023 264.079 234.668 263.084 233.886C262.8 233.602 262.516 233.389 262.516 232.962C262.516 232.465 262.729 231.967 262.8 231.541C263.227 229.267 263.724 226.993 264.15 224.719C265.216 219.247 266.353 213.846 267.419 208.373C267.562 207.734 267.633 207.094 267.775 206.455C267.988 205.389 269.267 205.318 270.191 205.318C271.612 205.318 273.034 205.602 274.313 206.099C275.023 206.384 276.729 207.023 276.8 207.876C276.8 208.16 276.658 208.587 276.587 208.871C275.521 213.917 274.384 218.962 273.318 224.008C272.749 226.566 272.181 229.125 271.612 231.754C271.47 232.536 271.257 233.246 271.115 234.028C270.973 234.668 270.973 234.952 270.262 235.236C269.267 235.734 267.846 235.592 266.567 235.307C265.998 235.236 265.785 236.089 266.353 236.16C267.775 236.444 271.186 236.942 271.968 235.094C272.11 234.739 272.181 234.312 272.252 233.886C272.749 231.541 273.247 229.196 273.744 226.851C274.952 221.094 276.232 215.338 277.44 209.653C277.511 209.155 277.653 208.729 277.724 208.231C277.937 206.668 275.876 205.815 274.739 205.318C273.46 204.82 272.039 204.536 270.688 204.465C269.694 204.465 268.485 204.465 267.704 205.033C267.135 205.389 267.064 205.886 266.922 206.455C265.856 211.785 264.79 217.186 263.724 222.516C263.155 225.216 262.658 227.917 262.09 230.617C261.947 231.257 261.805 231.896 261.663 232.607C261.45 233.602 262.018 234.312 262.871 234.81C263.866 235.521 265.145 235.876 266.353 236.16C266.922 236.302 267.135 235.449 266.567 235.307Z" fill="black"/>
<path d="M263.65 225.139L263.034 228.205L272.579 230.122L273.195 227.056L263.65 225.139Z" fill="#60D669"/>
<path d="M272.679 229.69C269.908 229.122 267.136 228.553 264.364 228.056C263.938 227.985 263.583 227.914 263.156 227.843C263.227 228.056 263.37 228.198 263.441 228.411C263.654 227.416 263.867 226.35 264.08 225.355C263.867 225.426 263.725 225.569 263.512 225.64C266.283 226.208 269.055 226.777 271.826 227.274C272.253 227.345 272.608 227.416 273.034 227.487C272.963 227.274 272.821 227.132 272.75 226.919C272.537 227.914 272.324 228.98 272.111 229.975C271.969 230.543 272.821 230.756 272.963 230.188C273.177 229.193 273.39 228.127 273.603 227.132C273.674 226.919 273.532 226.635 273.319 226.563C270.547 225.995 267.776 225.426 265.004 224.929C264.578 224.858 264.222 224.787 263.796 224.716C263.583 224.645 263.298 224.787 263.227 225C263.014 225.995 262.801 227.061 262.588 228.056C262.517 228.269 262.659 228.553 262.872 228.624C265.644 229.193 268.415 229.761 271.187 230.259C271.613 230.33 271.969 230.401 272.395 230.472C273.034 230.685 273.248 229.832 272.679 229.69Z" fill="black"/>
<path d="M267.918 205.672L274.314 197.215L277.156 207.59C277.227 207.875 276.659 208.017 276.019 207.875L268.771 206.311C268.131 206.24 267.776 205.885 267.918 205.672Z" fill="white"/>
<path d="M268.273 205.886C270.121 203.398 272.04 200.911 273.887 198.495C274.172 198.139 274.385 197.784 274.669 197.429C274.385 197.429 274.101 197.358 273.887 197.358C274.598 199.987 275.309 202.617 276.019 205.246C276.162 205.886 276.375 206.525 276.517 207.094C276.588 207.236 276.588 207.449 276.659 207.591C276.659 207.591 276.659 207.662 276.659 207.733C276.659 207.662 276.659 207.662 276.659 207.591C276.73 207.449 276.659 207.449 276.588 207.449C276.517 207.449 276.304 207.449 276.233 207.449C275.024 207.307 273.816 206.952 272.608 206.667C271.684 206.454 270.832 206.312 269.908 206.099C269.623 206.028 269.339 205.957 269.055 205.957C268.984 205.957 268.913 205.957 268.913 205.886C268.842 205.886 268.771 205.886 268.7 205.815C268.629 205.815 268.557 205.743 268.415 205.743C268.344 205.743 268.344 205.672 268.273 205.672C268.202 205.601 268.202 205.672 268.273 205.886C268.486 205.388 267.776 204.891 267.492 205.459C266.852 206.809 270.263 207.094 271.045 207.307C272.608 207.662 274.172 208.018 275.806 208.302C276.446 208.444 277.725 208.515 277.583 207.52C277.512 207.165 277.37 206.738 277.299 206.383C276.801 204.606 276.304 202.83 275.877 201.053C275.522 199.703 275.167 198.424 274.811 197.073C274.669 196.647 274.243 196.647 274.03 197.002C272.182 199.49 270.263 201.977 268.415 204.393C268.131 204.749 267.918 205.104 267.634 205.459C267.207 205.886 267.918 206.383 268.273 205.886Z" fill="black"/>
<path d="M271.329 201.763L275.806 202.687L274.314 197.215L271.329 201.763Z" fill="black"/>
<path d="M262.872 229.338L261.948 233.957C261.664 235.236 263.582 236.729 266.212 237.226C268.841 237.724 271.186 237.155 271.4 235.805L272.395 231.186L262.872 229.338Z" fill="#E110D1"/>
<path d="M262.445 229.195C262.232 230.333 261.948 231.541 261.735 232.678C261.664 233.104 261.521 233.459 261.521 233.886C261.379 234.739 261.877 235.449 262.516 236.018C264.293 237.51 267.065 238.15 269.268 237.794C270.12 237.652 271.044 237.368 271.613 236.586C271.897 236.231 271.968 235.734 272.039 235.307C272.323 233.957 272.608 232.678 272.892 231.327C272.963 231.114 272.821 230.83 272.608 230.759C269.836 230.19 267.065 229.622 264.293 229.053C263.867 228.982 263.511 228.911 263.085 228.84C262.516 228.698 262.303 229.551 262.872 229.693C265.643 230.261 268.415 230.83 271.186 231.399C271.613 231.47 271.968 231.541 272.395 231.612C272.323 231.399 272.181 231.256 272.11 231.043C271.897 232.038 271.684 233.033 271.471 234.028C271.4 234.525 271.257 235.023 271.186 235.52C271.044 236.089 270.618 236.373 270.049 236.586C268.06 237.297 265.359 236.728 263.653 235.591C263.156 235.236 262.445 234.668 262.516 233.957C262.587 233.602 262.659 233.246 262.73 232.891C262.943 231.683 263.227 230.546 263.44 229.338C263.369 228.84 262.516 228.627 262.445 229.195Z" fill="black"/>
<path d="M263.05 228.215L262.448 231.211L271.993 233.128L272.595 230.132L263.05 228.215Z" fill="#60D669"/>
<path d="M272.11 232.676C269.338 232.107 266.567 231.539 263.795 231.041C263.369 230.97 263.013 230.899 262.587 230.828C262.658 231.041 262.8 231.184 262.871 231.397C263.084 230.402 263.298 229.407 263.44 228.412C263.227 228.483 263.084 228.625 262.871 228.696C265.643 229.265 268.414 229.833 271.186 230.331C271.612 230.402 271.968 230.473 272.394 230.544C272.323 230.331 272.181 230.189 272.11 229.975C271.897 230.97 271.683 231.965 271.541 232.96C271.399 233.529 272.252 233.742 272.394 233.173C272.607 232.178 272.82 231.184 272.963 230.189C273.034 229.975 272.892 229.691 272.678 229.62C269.907 229.052 267.135 228.483 264.364 227.986C263.937 227.915 263.582 227.843 263.156 227.772C262.942 227.701 262.658 227.843 262.587 228.057C262.374 229.052 262.161 230.046 262.018 231.041C261.947 231.255 262.09 231.539 262.303 231.61C265.074 232.178 267.846 232.747 270.617 233.244C271.044 233.316 271.399 233.387 271.826 233.458C272.394 233.671 272.678 232.818 272.11 232.676Z" fill="black"/>
<path d="M260.172 239.712C258.466 239.712 257.045 238.291 257.045 236.586V190.18C257.045 188.474 258.466 187.053 260.172 187.053C261.877 187.053 263.299 188.474 263.299 190.18V236.586C263.299 238.291 261.877 239.712 260.172 239.712Z" fill="#4438EB" stroke="#211F21" stroke-miterlimit="10"/>
<path d="M257.045 199.914H263.299" stroke="#211F21" stroke-miterlimit="10"/>
<path d="M263.725 210.432C262.801 210.432 262.091 209.722 262.091 208.798V194.869C262.091 193.945 262.801 193.234 263.725 193.234C264.649 193.234 265.36 193.945 265.36 194.869V208.727C265.36 209.651 264.649 210.432 263.725 210.432Z" fill="#4438EB" stroke="#211F21" stroke-miterlimit="10"/>
<path d="M279.502 225.355H245.532V253H279.502V225.355Z" fill="#60D669"/>
<path d="M279.502 239.711V238.716C276.304 236.442 271.755 232.036 271.4 225.355H270.689C271.045 232.746 276.09 237.366 279.502 239.711Z" fill="white"/>
<path d="M275.806 253.002C276.162 247.317 274.882 242.555 272.466 240.352C271.045 239.073 268.558 238.078 264.862 240.494C261.735 242.555 259.319 246.748 258.04 252.646C258.04 252.789 257.969 252.86 257.969 253.002H258.679C259.674 248.596 261.522 243.621 265.217 241.276C267.918 239.499 270.334 239.428 272.111 241.063C274.385 243.124 275.522 247.601 275.167 253.002H275.806Z" fill="white"/>
<path d="M248.73 253C249.086 248.878 251.857 245.041 256.832 239.498C261.167 234.665 264.01 229.975 265.36 225.355H264.649C263.299 229.69 260.598 234.239 256.406 238.858C251.36 244.543 248.446 248.594 248.091 253H248.73Z" fill="white"/>
<path d="M245.532 235.519C247.806 235.448 250.933 234.808 252.994 232.179C254.344 230.473 254.984 228.199 255.055 225.285H254.344C254.273 227.915 253.633 230.047 252.425 231.539C250.507 233.955 247.593 234.524 245.461 234.595V235.519H245.532Z" fill="white"/>
<path d="M279.502 225.355H245.532V253H279.502V225.355Z" stroke="#211F21" stroke-miterlimit="10"/>
<path d="M13.574 91.6094H42.0003C45.6246 91.6094 48.6094 94.5231 48.6094 98.2185V109.802V113.853V126.574L41.9292 120.462H13.574C9.94961 120.462 6.96484 117.548 6.96484 113.853V98.2185C6.96484 94.5231 9.94961 91.6094 13.574 91.6094Z" fill="white" stroke="black" stroke-miterlimit="10"/>
<path d="M26.3903 115.242H25.8903V115.742H26.3903V115.242ZM26.3903 115.105L25.8903 115.1V115.105H26.3903ZM26.8472 111.632L26.3733 111.473L26.8472 111.632ZM28.0809 109.542L28.4345 109.895L28.0809 109.542ZM30.0001 108.068L30.258 108.497L30.2605 108.495L30.0001 108.068ZM31.211 107.097L31.5719 107.443L31.5753 107.44L31.211 107.097ZM32.0563 105.784L31.5971 105.586L31.5946 105.592L32.0563 105.784ZM26.6873 100.871L26.4831 100.415H26.4831L26.6873 100.871ZM25.2365 102.094L25.6464 102.38V102.38L25.2365 102.094ZM24.5625 104.276V104.776H25.0297L25.0613 104.309L24.5625 104.276ZM21.6837 104.276L21.1843 104.252L21.1597 104.776H21.6837V104.276ZM22.689 100.951L22.2735 100.673L22.2719 100.676L22.689 100.951ZM25.1222 98.838L24.9054 98.3875L24.9041 98.3881L25.1222 98.838ZM31.9878 98.9066L31.7508 99.3468L31.7522 99.3476L31.9878 98.9066ZM34.2954 101.1L33.8632 101.351L33.8648 101.354L34.2954 101.1ZM34.7295 106.549L34.2624 106.37L34.2607 106.375L34.7295 106.549ZM33.6328 108.365L33.2611 108.031L33.2585 108.034L33.6328 108.365ZM31.9193 109.782L31.6577 109.356L31.6543 109.358L31.9193 109.782ZM30.3085 111.107L30.6833 111.438L30.686 111.435L30.3085 111.107ZM29.1319 115.105L28.6319 115.097V115.105H29.1319ZM29.1319 115.242V115.742H29.6319V115.242H29.1319ZM26.4017 121.4L26.7552 121.046L26.4017 121.4ZM26.4017 118.498L26.7552 118.852L26.4017 118.498ZM29.6231 120.977L29.1962 120.717L29.1916 120.724L29.6231 120.977ZM28.8806 121.731L29.1378 122.16L29.1409 122.158L28.8806 121.731ZM26.8903 115.242V115.105H25.8903V115.242H26.8903ZM26.8902 115.11C26.9052 113.681 27.0554 112.582 27.3211 111.792L26.3733 111.473C26.0602 112.404 25.9058 113.62 25.8903 115.1L26.8902 115.11ZM27.3211 111.792C27.5909 110.99 27.966 110.364 28.4345 109.895L27.7274 109.188C27.1297 109.786 26.6823 110.554 26.3733 111.473L27.3211 111.792ZM28.4345 109.895C28.9348 109.395 29.5412 108.928 30.258 108.497L29.7422 107.64C28.9663 108.107 28.2933 108.622 27.7274 109.188L28.4345 109.895ZM30.2605 108.495C30.746 108.199 31.1835 107.848 31.5718 107.443L30.8502 106.751C30.5226 107.093 30.1529 107.389 29.7397 107.641L30.2605 108.495ZM31.5753 107.44C31.9756 107.014 32.2899 106.525 32.5181 105.975L31.5946 105.592C31.4115 106.033 31.1623 106.419 30.8467 106.755L31.5753 107.44ZM32.5156 105.981C32.7587 105.417 32.8762 104.8 32.8762 104.139H31.8762C31.8762 104.68 31.7805 105.16 31.5971 105.586L32.5156 105.981ZM32.8762 104.139C32.8762 103.311 32.681 102.567 32.2721 101.927L31.4294 102.466C31.7211 102.922 31.8762 103.473 31.8762 104.139H32.8762ZM32.2721 101.927C31.8731 101.303 31.3369 100.819 30.6715 100.482L30.2197 101.375C30.7272 101.632 31.1277 101.994 31.4294 102.466L32.2721 101.927ZM30.6715 100.482C30.009 100.147 29.2794 99.983 28.4922 99.983V100.983C29.1367 100.983 29.7094 101.116 30.2197 101.375L30.6715 100.482ZM28.4922 99.983C27.7962 99.983 27.1251 100.128 26.4831 100.415L26.8914 101.328C27.407 101.097 27.9392 100.983 28.4922 100.983V99.983ZM26.4831 100.415C25.8158 100.714 25.2631 101.183 24.8266 101.807L25.6464 102.38C25.9866 101.893 26.4011 101.547 26.8914 101.328L26.4831 100.415ZM24.8266 101.807C24.3717 102.458 24.1287 103.281 24.0636 104.242L25.0613 104.309C25.1181 103.473 25.3244 102.841 25.6464 102.38L24.8266 101.807ZM24.5625 103.776H21.6837V104.776H24.5625V103.776ZM22.1832 104.299C22.2406 103.079 22.5545 102.061 23.1061 101.227L22.2719 100.676C21.605 101.684 21.2487 102.883 21.1843 104.252L22.1832 104.299ZM23.1045 101.23C23.6716 100.382 24.4143 99.7369 25.3404 99.2879L24.9041 98.3881C23.8196 98.9139 22.9402 99.6774 22.2735 100.673L23.1045 101.23ZM25.339 99.2886C26.2779 98.8368 27.3261 98.6069 28.4922 98.6069V97.6069C27.1908 97.6069 25.9923 97.8644 24.9054 98.3875L25.339 99.2886ZM28.4922 98.6069C29.7657 98.6069 30.8463 98.8598 31.7508 99.3468L32.2249 98.4663C31.1492 97.8871 29.8995 97.6069 28.4922 97.6069V98.6069ZM31.7522 99.3476C32.6725 99.8393 33.3716 100.507 33.8632 101.351L34.7275 100.848C34.1377 99.8348 33.2984 99.04 32.2235 98.4656L31.7522 99.3476ZM33.8648 101.354C34.3632 102.199 34.6179 103.168 34.6179 104.276H35.6179C35.6179 103.008 35.3242 101.86 34.726 100.846L33.8648 101.354ZM34.6179 104.276C34.6179 105.062 34.4965 105.758 34.2624 106.371L35.1965 106.727C35.4803 105.985 35.6179 105.165 35.6179 104.276H34.6179ZM34.2607 106.375C34.0311 106.994 33.6984 107.545 33.2612 108.031L34.0044 108.7C34.5268 108.119 34.9252 107.459 35.1983 106.723L34.2607 106.375ZM33.2585 108.034C32.8223 108.526 32.2902 108.968 31.6578 109.356L32.1808 110.208C32.8887 109.774 33.499 109.27 34.0071 108.697L33.2585 108.034ZM31.6543 109.358C30.9533 109.796 30.375 110.268 29.9311 110.779L30.686 111.435C31.0494 111.017 31.5448 110.605 32.1843 110.206L31.6543 109.358ZM29.9338 110.776C29.4774 111.293 29.1503 111.904 28.9486 112.602L29.9092 112.879C30.0731 112.313 30.3324 111.835 30.6833 111.438L29.9338 110.776ZM28.9486 112.602C28.7495 113.29 28.6476 114.126 28.632 115.097L29.6318 115.113C29.6466 114.196 29.7428 113.455 29.9092 112.879L28.9486 112.602ZM28.6319 115.105V115.242H29.6319V115.105H28.6319ZM29.1319 114.742H26.3903V115.742H29.1319V114.742ZM27.8525 121.505C27.4234 121.505 27.0665 121.357 26.7552 121.046L26.0481 121.753C26.5442 122.249 27.1544 122.505 27.8525 122.505V121.505ZM26.7552 121.046C26.444 120.735 26.2962 120.378 26.2962 119.949H25.2962C25.2962 120.647 25.5521 121.257 26.0481 121.753L26.7552 121.046ZM26.2962 119.949C26.2962 119.52 26.444 119.163 26.7552 118.852L26.0481 118.144C25.5521 118.64 25.2962 119.251 25.2962 119.949H26.2962ZM26.7552 118.852C27.0665 118.54 27.4234 118.393 27.8525 118.393V117.393C27.1544 117.393 26.5442 117.648 26.0481 118.144L26.7552 118.852ZM27.8525 118.393C28.2815 118.393 28.6385 118.54 28.9497 118.852L29.6568 118.144C29.1608 117.648 28.5505 117.393 27.8525 117.393V118.393ZM28.9497 118.852C29.2609 119.163 29.4087 119.52 29.4087 119.949H30.4087C30.4087 119.251 30.1529 118.64 29.6568 118.144L28.9497 118.852ZM29.4087 119.949C29.4087 120.232 29.3378 120.484 29.1962 120.717L30.05 121.237C30.2892 120.845 30.4087 120.412 30.4087 119.949H29.4087ZM29.1916 120.724C29.0511 120.964 28.8627 121.156 28.6203 121.304L29.1409 122.158C29.5229 121.925 29.8296 121.614 30.0546 121.23L29.1916 120.724ZM28.6233 121.302C28.402 121.435 28.1494 121.505 27.8525 121.505V122.505C28.3171 122.505 28.7499 122.392 29.1378 122.16L28.6233 121.302Z" fill="black"/>
<path d="M166.579 137.588H135.026C130.975 137.588 127.706 140.857 127.706 144.908V157.771V162.248V176.319L135.097 169.496H166.508C170.559 169.496 173.828 166.227 173.828 162.177V144.837C173.899 140.857 170.63 137.588 166.579 137.588Z" fill="white" stroke="black" stroke-miterlimit="10"/>
<path d="M143.624 154.147C143.624 155.924 142.203 157.345 140.426 157.345C138.65 157.345 137.229 155.924 137.229 154.147C137.229 152.371 138.65 150.949 140.426 150.949C142.203 151.02 143.624 152.442 143.624 154.147Z" fill="white" stroke="black" stroke-miterlimit="10"/>
<path d="M154.64 154.147C154.64 155.924 153.219 157.345 151.442 157.345C149.665 157.345 148.244 155.924 148.244 154.147C148.244 152.371 149.665 150.949 151.442 150.949C153.219 151.02 154.64 152.442 154.64 154.147Z" fill="white" stroke="black" stroke-miterlimit="10"/>
<path d="M165.726 154.147C165.726 155.924 164.305 157.345 162.528 157.345C160.751 157.345 159.33 155.924 159.33 154.147C159.33 152.371 160.751 150.949 162.528 150.949C164.305 151.02 165.726 152.442 165.726 154.147Z" fill="white" stroke="black" stroke-miterlimit="10"/>
<path d="M64.3151 34.6133H99.7769C104.325 34.6133 107.949 38.3087 107.949 42.7858V57.2832V62.3289V78.1766L99.6348 70.5725H64.3151C59.7669 70.5725 56.1426 66.8771 56.1426 62.4V42.8569C56.1426 38.3087 59.7669 34.6133 64.3151 34.6133Z" fill="white" stroke="black" stroke-miterlimit="10"/>
<path d="M90.1123 53.233C90.1123 55.2228 91.6758 56.7863 93.6656 56.7863C95.6554 56.7863 97.2189 55.2228 97.2189 53.233C97.2189 51.2431 95.6554 49.6797 93.6656 49.6797C91.7468 49.6797 90.1123 51.3142 90.1123 53.233Z" fill="white" stroke="black" stroke-miterlimit="10"/>
<path d="M77.7471 53.233C77.7471 55.2228 79.3105 56.7863 81.3004 56.7863C83.2902 56.7863 84.8536 55.2228 84.8536 53.233C84.8536 51.2431 83.2902 49.6797 81.3004 49.6797C79.3105 49.6797 77.7471 51.3142 77.7471 53.233Z" fill="white" stroke="black" stroke-miterlimit="10"/>
<path d="M65.3105 53.233C65.3105 55.2228 66.874 56.7863 68.8638 56.7863C70.8537 56.7863 72.4171 55.2228 72.4171 53.233C72.4171 51.2431 70.8537 49.6797 68.8638 49.6797C66.9451 49.6797 65.3105 51.3142 65.3105 53.233Z" fill="white" stroke="black" stroke-miterlimit="10"/>
<path d="M291.866 31.5575C291.226 28.0043 289.237 25.7301 287.034 24.3088C283.267 21.8215 278.292 21.8215 274.526 24.3088C272.323 25.7301 270.333 28.0753 269.694 31.5575C268.556 38.0245 274.242 41.5778 275.308 42.857C275.308 42.857 276.018 43.4255 276.374 44.1362C276.445 44.2783 276.587 44.8468 276.658 45.6286H280.78H284.902C285.044 44.8468 285.115 44.3494 285.186 44.1362C285.541 43.4255 286.252 42.857 286.252 42.857C287.318 41.5067 293.074 38.0245 291.866 31.5575Z" fill="#FFE500" stroke="black" stroke-miterlimit="10"/>
<path d="M279.074 46.3405C279.074 46.3405 279.074 40.1578 278.648 39.305C278.221 38.4522 276.089 35.3253 275.734 34.6857C275.379 34.0461 276.089 33.2644 276.658 34.2593C277.155 35.1121 279.145 37.8837 279.572 39.0207C279.998 40.1578 280.424 46.6247 280.424 46.6247L279.074 46.3405Z" fill="white"/>
<path d="M282.485 46.3405C282.485 46.3405 282.485 40.1578 282.911 39.305C283.338 38.4522 285.47 35.3253 285.825 34.6857C286.18 34.0461 285.47 33.2644 284.901 34.2593C284.404 35.1121 282.414 37.8837 281.988 39.0207C281.561 40.1578 281.135 46.6247 281.135 46.6247L282.485 46.3405Z" fill="white"/>
<path d="M285.47 34.472C284.617 34.8274 283.196 34.8984 282.13 34.6142C281.277 35.2537 280.069 35.0405 279.145 34.3299C278.008 34.7563 276.516 34.8274 276.303 34.8274V34.2588C276.942 34.2588 277.937 34.1167 278.648 33.9035C278.008 33.2639 277.937 32.5533 278.293 32.0558C278.79 31.4162 279.43 31.4873 279.856 31.7715C280.353 32.1269 280.567 32.9796 280.14 33.6192C280.069 33.7614 279.927 33.9035 279.714 34.0456C280.282 34.401 280.922 34.5431 281.419 34.3299C281.206 34.1878 281.064 34.1167 280.993 33.9746C280.78 33.7614 280.567 33.2639 281.064 32.6243C281.348 32.1979 281.775 31.9847 282.13 32.0558C282.485 32.1269 282.77 32.4822 282.912 32.9086C282.983 33.335 282.841 33.7614 282.628 34.1167C283.48 34.3299 284.546 34.2588 285.257 33.9746L285.47 34.472ZM281.775 32.7664C281.704 32.8375 281.633 32.9086 281.562 32.9796C281.348 33.2639 281.419 33.4771 281.491 33.6192C281.633 33.7614 281.775 33.9035 282.059 33.9746C282.343 33.6903 282.485 33.406 282.414 33.0507C282.343 32.8375 282.272 32.6954 282.059 32.6243C281.988 32.6243 281.846 32.6243 281.775 32.7664ZM279.287 33.6903C279.501 33.6192 279.643 33.4771 279.714 33.335C279.998 32.9086 279.856 32.4822 279.572 32.269C279.359 32.0558 279.074 32.1269 278.79 32.4111C278.577 32.6954 278.79 33.1928 279.145 33.5482C279.145 33.5482 279.216 33.6192 279.287 33.6903Z" fill="white"/>
<path d="M280.779 44.9868C278.576 44.9868 276.657 44.4183 276.302 44.2051C276.302 44.2761 276.373 44.2761 276.373 44.3472C276.657 44.9868 277.012 50.1035 277.865 52.0223C278.007 52.3776 278.149 52.5908 278.363 52.733C278.789 53.0172 279.784 53.3726 280.779 53.3015C281.774 53.3726 282.769 53.0172 283.195 52.733C283.337 52.5908 283.55 52.3776 283.693 52.0223C284.474 50.0325 284.901 44.9157 285.185 44.3472C285.185 44.2761 285.256 44.2761 285.256 44.2051C284.901 44.4183 282.982 44.9868 280.779 44.9868Z" fill="white" stroke="black" stroke-miterlimit="10"/>
<path d="M280.779 47.2609C282.058 47.2609 283.479 47.1187 284.758 46.6924C284.83 46.0528 284.901 45.5553 284.972 45.1289C282.271 46.1238 279.286 46.1238 276.586 45.1289C276.657 45.5553 276.728 46.1238 276.799 46.6924C278.078 47.1187 279.5 47.2609 280.779 47.2609Z" fill="black"/>
<path d="M280.779 49.8902C281.916 49.8902 283.195 49.7481 284.332 49.4638C284.403 48.9664 284.474 48.3979 284.545 47.9004C282.058 48.7532 279.358 48.7532 276.941 47.9004C277.012 48.3979 277.084 48.9664 277.155 49.4638C278.363 49.7481 279.642 49.8902 280.779 49.8902Z" fill="black"/>
<path d="M277.438 50.6719C277.581 51.2404 277.723 51.6668 277.865 52.0932C277.865 52.1643 277.936 52.2353 277.936 52.2353C278.86 52.4485 279.855 52.5196 280.779 52.5196C281.702 52.5196 282.697 52.4485 283.621 52.2353C283.621 52.1643 283.692 52.1643 283.692 52.0932C283.834 51.7379 283.977 51.2404 284.119 50.6719C281.916 51.3115 279.642 51.3115 277.438 50.6719Z" fill="black"/>
<path d="M280.993 19.1215C280.283 19.1215 279.785 18.624 279.785 17.9134V12.3702C279.785 11.7306 280.283 11.1621 280.993 11.1621C281.633 11.1621 282.201 11.6596 282.201 12.3702V17.9134C282.201 18.624 281.633 19.1215 280.993 19.1215Z" fill="white" stroke="black" stroke-miterlimit="10"/>
<path d="M289.521 20.6843C288.953 20.329 288.74 19.6183 289.024 19.0498L291.653 14.1463C291.938 13.5777 292.648 13.3645 293.288 13.6488C293.856 13.9331 294.069 14.6437 293.785 15.2833L291.156 20.1868C290.8 20.7554 290.09 20.9686 289.521 20.6843Z" fill="white" stroke="black" stroke-miterlimit="10"/>
<path d="M272.465 20.6843C273.034 20.329 273.247 19.6183 272.963 19.0498L270.334 14.1463C270.049 13.5777 269.339 13.3645 268.699 13.6488C268.13 13.9331 267.917 14.6437 268.202 15.2833L270.831 20.1868C271.115 20.7554 271.897 20.9686 272.465 20.6843Z" fill="white" stroke="black" stroke-miterlimit="10"/>
<path d="M266.141 27.1522C265.998 27.7918 265.359 28.2181 264.719 28.076L259.247 26.939C258.608 26.7968 258.181 26.1572 258.323 25.5176C258.465 24.8781 259.105 24.4517 259.745 24.5938L265.217 25.7308C265.856 25.944 266.283 26.5126 266.141 27.1522Z" fill="white" stroke="black" stroke-miterlimit="10"/>
<path d="M265.856 36.0362C265.643 35.3966 265.004 35.0413 264.364 35.1835L259.034 36.7469C258.395 36.9601 258.039 37.5997 258.252 38.2393C258.466 38.8789 259.105 39.2342 259.745 39.021L265.075 37.4576C265.643 37.3865 265.999 36.6758 265.856 36.0362Z" fill="white" stroke="black" stroke-miterlimit="10"/>
<path d="M295.847 27.1522C295.989 27.7918 296.628 28.2181 297.268 28.076L302.74 26.939C303.38 26.7968 303.806 26.1572 303.664 25.5176C303.522 24.8781 302.882 24.4517 302.243 24.5938L296.771 25.7308C296.131 25.944 295.705 26.5126 295.847 27.1522Z" fill="white" stroke="black" stroke-miterlimit="10"/>
<path d="M296.131 36.0362C296.344 35.3966 296.984 35.0413 297.623 35.1835L302.953 36.7469C303.593 36.9601 303.948 37.5997 303.735 38.2393C303.522 38.8789 302.882 39.2342 302.243 39.021L296.913 37.4576C296.344 37.3865 295.918 36.6758 296.131 36.0362Z" fill="white" stroke="black" stroke-miterlimit="10"/>
</svg>
